<?xml version="1.0" encoding="utf-8"?>
<!-- Generator: Adobe Illustrator 17.1.0, SVG Export Plug-In . SVG Version: 6.00 Build 0)  -->
<!DOCTYPE svg PUBLIC "-//W3C//DTD SVG 1.1//EN" "http://www.w3.org/Graphics/SVG/1.1/DTD/svg11.dtd">
<svg version="1.1" id="Layer_1" xmlns="http://www.w3.org/2000/svg" xmlns:xlink="http://www.w3.org/1999/xlink" x="0px" y="0px"
	 viewBox="0 0 300 300" enable-background="new 0 0 300 300" xml:space="preserve">
<g>
	<g>
		<path fill="#010101" d="M54.4,109.9c-1.5,14.9-4.2,29.5-2.6,44.5c1.1,10.4,3.9,21.1,7.9,30.7c3.5,8.2,9.2,15.1,17,19.5
			c10.4,5.9,23.7,6.2,35.3,6.7c15.4,0.8,30.6-0.6,46-1.5c15.5-0.9,31-1.2,46.4-3.2c10.4-1.3,22.5-2.6,32.2-6.8
			c10.1-4.3,13.5-12.3,13.8-22.9c0.1-5.7-0.6-11.5-0.8-17.2c-0.2-5.6,0.2-11.3,0.4-16.9c0.3-11.7,0.1-23.9-4.7-34.8
			c-8.4-19.2-32.9-20-50.8-20.2c-11.6-0.1-23.1-0.9-34.7-1.1c-15.8-0.4-31.6-0.1-47.3,0c-7.1,0.1-14.2,0.1-21.3,0.1
			c-5.6,0-10.4,0.3-15.8,2.2c-8.2,3-17.9,8.8-20.9,17.6c-0.8,2.3,2.9,3.3,3.6,1c3.3-9.8,18.2-16.9,27.9-17.1
			c14.8-0.3,29.6-0.1,44.4-0.2c16-0.1,32-0.1,48,0.9c10,0.7,20,0.1,30,0.8c10.5,0.8,21.6,3.1,29.2,10.9c8.9,9.3,8.8,24.8,8.7,36.8
			c-0.1,5.8-0.4,11.6-0.5,17.5c-0.1,6.1,0.7,12.2,0.8,18.3c0.1,6.2-0.5,12.5-5.1,17.1c-4.1,4.1-10.7,5.6-16.3,6.7
			c-21.7,4.6-43.5,5.6-65.5,6.7c-23.2,1.2-46.8,3.8-69.9-0.6c-17.1-3.3-25.9-16.1-30.4-31.9c-2.8-9.8-4.6-19.9-4.6-30.1
			c0-11.2,2.1-22.4,3.2-33.6C58.4,107.5,54.6,107.6,54.4,109.9L54.4,109.9z"/>
	</g>
</g>
<g enable-background="new    ">
	<path fill="#010101" d="M87.4,150.6c0.2,0.3,0.3,0.6,0.3,0.9c0,0.3-0.1,0.5-0.4,0.7c-0.3,0.2-0.6,0.3-0.9,0.3
		c-0.3,0-0.6-0.2-0.9-0.5c-0.2-0.2-0.3-0.5-0.5-0.8c-0.2-0.3-0.4-0.7-0.6-1c-0.2-0.4-0.4-0.7-0.6-1.1c-0.2-0.3-0.3-0.7-0.5-0.9
		c-0.1-0.1-0.1-0.3-0.2-0.5c-0.1-0.2-0.2-0.4-0.3-0.6c-2.1,0.5-4.1,1-6,1.4c-1.9,0.4-3.7,0.8-5.5,1.3c-0.2,0.3-0.3,0.7-0.5,1.1
		c-0.2,0.4-0.4,0.8-0.6,1.2c0,0.2,0,0.4-0.1,0.7c-0.1,0.3-0.3,0.5-0.7,0.7c-0.2,0.1-0.4,0.1-0.7,0.1c-0.3,0-0.5-0.1-0.6-0.2
		c-0.3-0.2-0.4-0.5-0.4-0.7c0-0.3,0.1-0.5,0.2-0.8c0.1-0.2,0.2-0.4,0.3-0.7c0.1-0.2,0.3-0.4,0.4-0.7c-0.4,0-0.7,0-1.1-0.1
		c-0.3-0.1-0.5-0.4-0.5-0.8c0-0.1,0-0.2,0-0.3c0-0.1,0.1-0.3,0.2-0.4c0.1-0.1,0.2-0.2,0.3-0.3c0.1-0.1,0.3-0.1,0.6-0.1
		c0.3-0.1,0.5-0.1,0.8-0.2c0.3-0.1,0.5-0.1,0.8-0.2c0.4-0.7,0.8-1.6,1.3-2.5c0.5-0.9,0.9-1.9,1.4-2.9c0.5-1,1-2,1.5-3.1
		c0.5-1,0.9-2,1.4-2.9c0.4-0.9,0.8-1.7,1.2-2.4c0.3-0.7,0.6-1.2,0.8-1.5c0-0.3,0.1-0.5,0.3-0.7c0.2-0.2,0.5-0.3,0.8-0.4
		c0.3,0,0.5,0,0.7,0.1s0.4,0.3,0.5,0.6c0.4,1,0.9,2.1,1.3,3.2c0.4,1.1,0.8,2.3,1.3,3.3s0.8,2.1,1.2,3.1c0.4,1,0.7,1.8,1.1,2.6
		c0.3,0,0.5-0.1,0.7-0.1c0.2,0,0.4-0.1,0.6-0.1c0.2,0,0.4,0,0.7,0.1c0.2,0.1,0.4,0.4,0.5,0.8c0,0.2,0,0.4-0.1,0.6
		c-0.1,0.2-0.3,0.4-0.6,0.5c-0.1,0-0.3,0.1-0.5,0.1c-0.2,0-0.3,0.1-0.5,0.1c0.1,0.1,0.1,0.3,0.2,0.4s0.2,0.3,0.2,0.5
		c0.1,0.2,0.2,0.4,0.4,0.7c0.2,0.3,0.3,0.6,0.5,0.9c0.2,0.3,0.3,0.6,0.5,0.8C87.1,150.3,87.3,150.5,87.4,150.6z M82,145.2
		c-0.7-1.6-1.3-3.3-1.9-5c-0.6-1.7-1.2-3.3-1.8-4.9c-0.4,0.8-0.9,1.8-1.4,2.8c-0.5,1-1,2.1-1.5,3.1c-0.5,1.1-1,2.1-1.5,3.2
		c-0.5,1.1-1,2-1.4,2.9c0.7-0.2,1.5-0.3,2.3-0.5c0.8-0.2,1.6-0.4,2.4-0.5c0.8-0.2,1.6-0.4,2.5-0.6C80.5,145.5,81.2,145.4,82,145.2z"
		/>
	<path fill="#010101" d="M110.4,148.9c-0.3,0.5-0.6,1-1.1,1.4c-0.5,0.4-1.1,0.8-1.9,1.2c-0.6,0.3-1.3,0.6-2.1,0.8
		c-0.8,0.2-1.6,0.3-2.4,0.3c-0.7,0-1.3-0.1-1.9-0.3c-0.6-0.2-1.1-0.6-1.6-1.1c-0.2-0.2-0.4-0.5-0.6-0.8c-0.2-0.3-0.3-0.6-0.4-0.8
		c-0.1-0.2-0.2-0.3-0.4-0.3c-0.2,0-0.3,0.1-0.5,0.2c-0.3,0.3-0.6,0.5-0.9,0.8c-0.4,0.3-0.8,0.6-1.3,1c-0.8,0.6-1.7,0.9-2.6,0.9
		c-0.9,0-1.6-0.2-2.3-0.6c-0.4-0.3-0.7-0.6-0.9-1c-0.2-0.4-0.4-0.9-0.4-1.5c0-0.7,0.1-1.4,0.3-2.1c0.2-0.7,0.5-1.3,0.8-1.9
		c0.3-0.6,0.8-1.1,1.2-1.5c0.5-0.4,1-0.6,1.5-0.7c0.1,0,0.3,0,0.4,0c0.2,0,0.3,0,0.4,0c0.3,0,0.6,0.2,0.8,0.4
		c0.2,0.2,0.3,0.5,0.2,0.7c0,0.2-0.1,0.4-0.2,0.6c-0.1,0.2-0.3,0.3-0.6,0.3c-0.1,0-0.2,0-0.4,0c-0.1,0-0.2,0-0.3,0.1
		c-0.2,0.1-0.4,0.2-0.7,0.5c-0.2,0.2-0.4,0.5-0.6,0.9s-0.3,0.8-0.4,1.2c-0.1,0.4-0.2,0.9-0.2,1.4c0,0.5,0.2,0.8,0.6,1
		c0.2,0.1,0.6,0.1,0.9,0.1c0.4-0.1,0.8-0.2,1.2-0.5c0.3-0.2,0.5-0.4,0.8-0.6c0.3-0.2,0.6-0.5,0.9-0.7c0.3-0.3,0.6-0.5,0.9-0.8
		c0.3-0.3,0.6-0.5,0.8-0.7c0.4-0.4,0.8-0.5,1.3-0.5c0.4,0,0.7,0.2,0.8,0.6c0.1,0.2,0.1,0.4,0.2,0.7s0.2,0.5,0.3,0.8
		c0.1,0.3,0.2,0.5,0.3,0.8s0.3,0.4,0.4,0.6c0.3,0.3,0.6,0.5,0.9,0.6c0.3,0.1,0.7,0.2,1.1,0.2c0.5,0,1.1-0.1,1.7-0.3
		c0.6-0.2,1.2-0.4,1.8-0.7c1-0.5,1.6-1,1.9-1.6c0.2-0.3,0.2-0.6,0.2-1c0-0.3-0.1-0.7-0.3-1c-0.2-0.4-0.5-0.9-0.9-1.3
		c-0.4-0.4-0.7-0.9-1.1-1.3c-0.3-0.3-0.4-0.6-0.4-0.9c0-0.3,0.1-0.5,0.3-0.7c0.2-0.2,0.5-0.4,0.9-0.4c0.4,0,0.7,0.1,1,0.3
		c0.2,0.1,0.4,0.3,0.5,0.4c0.1,0.2,0.2,0.4,0.2,0.7c0.3,0.3,0.5,0.6,0.8,1c0.3,0.4,0.5,0.8,0.7,1.1c0.4,0.6,0.6,1.3,0.6,1.9
		S110.7,148.2,110.4,148.9z"/>
	<path fill="#010101" d="M125.2,148.8c0.1,0.3,0.2,0.5,0.1,0.8c-0.1,0.3-0.3,0.5-0.7,0.6c-0.5,0.2-1,0.4-1.7,0.7
		c-0.7,0.3-1.5,0.6-2.3,0.8c-0.8,0.3-1.7,0.4-2.7,0.6c-0.9,0.1-1.9,0.1-2.8,0c-0.9-0.2-1.6-0.5-2.1-1c-0.9-0.9-1.2-2.1-0.9-3.7
		c0.1-0.8,0.3-1.5,0.6-2.1s0.6-1.2,0.9-1.8s0.6-1,1-1.4c0.3-0.4,0.6-0.8,0.9-1c0.3-0.3,0.6-0.5,0.8-0.8c0.3-0.2,0.5-0.4,0.7-0.5
		c0.2-0.1,0.5-0.2,0.8-0.3s0.6-0.1,0.9-0.2c0.3,0,0.6,0,0.9,0c0.3,0,0.6,0.1,0.8,0.3c0.3,0.2,0.5,0.4,0.7,0.7s0.3,0.6,0.3,0.9
		c0.1,0.3,0.1,0.7,0,1c0,0.4-0.1,0.7-0.2,1.1c-0.2,0.7-0.5,1.3-1,1.8c-0.5,0.6-1.1,1.1-1.7,1.5s-1.4,0.8-2.1,1.1
		c-0.8,0.3-1.5,0.5-2.2,0.5c-0.1,0.5,0,0.9,0.2,1.2s0.5,0.5,1,0.5c0.7,0.2,1.4,0.2,2.2,0c0.8-0.1,1.6-0.3,2.4-0.5
		c0.8-0.2,1.5-0.5,2.2-0.8c0.7-0.3,1.3-0.5,1.7-0.6c0.3-0.1,0.6-0.1,0.8,0C124.9,148.4,125.1,148.6,125.2,148.8z M119,143
		c0.1-0.6,0.1-1-0.1-1.2c-0.2-0.1-0.4-0.1-0.6-0.1c-0.2,0-0.4,0.1-0.6,0.2c-0.3,0.2-0.6,0.4-0.9,0.8c-0.4,0.4-0.8,0.9-1.2,1.5
		c-0.4,0.6-0.7,1.2-0.9,1.9c0.4-0.1,0.9-0.2,1.4-0.4c0.5-0.2,0.9-0.4,1.3-0.7c0.4-0.3,0.8-0.6,1.1-0.9
		C118.7,143.7,118.9,143.3,119,143z"/>
	<path fill="#010101" d="M133.8,140.9c-0.1,0.2-0.3,0.3-0.5,0.4c-0.2,0.1-0.4,0.1-0.7,0c-0.3-0.1-0.6-0.2-0.8-0.4
		c-0.3,0-0.6,0.1-1.1,0.2c-0.4,0.1-0.9,0.3-1.4,0.4s-0.9,0.4-1.4,0.6c-0.5,0.2-0.9,0.5-1.2,0.7c-0.5,0.3-0.8,0.7-0.8,0.9
		c0,0.3,0.2,0.5,0.7,0.8c0.6,0.3,1.2,0.6,1.7,0.9c0.6,0.3,1.2,0.6,1.9,1.2c0.5,0.4,0.8,0.8,1,1.4s0.3,1.1,0.3,1.6
		c0,0.6-0.1,1.1-0.3,1.6c-0.2,0.5-0.4,1-0.7,1.5c-0.5,0.8-1.1,1.5-1.9,2.2c-0.7,0.7-1.6,1.3-2.6,1.9c-0.5,0.3-0.9,0.4-1.4,0.4
		c-0.5,0-0.9-0.1-1.4-0.3c-0.4-0.2-0.7-0.5-0.8-0.8s-0.1-0.6,0-0.9c0.1-0.3,0.4-0.5,0.7-0.6c0.3-0.1,0.6,0,1,0.2
		c0.2,0.1,0.3,0.2,0.5,0.2c0.2,0,0.4-0.1,0.5-0.2c0.7-0.4,1.3-0.9,1.9-1.5c0.6-0.6,1.1-1.2,1.4-1.7c0.2-0.3,0.4-0.7,0.5-1
		c0.1-0.3,0.1-0.6,0.1-0.9c0-0.5-0.1-0.9-0.5-1.3c-0.4-0.3-0.9-0.7-1.5-1c-0.6-0.3-1.3-0.6-2.1-1c-0.7-0.3-1.2-0.6-1.5-1
		c-0.3-0.4-0.5-0.9-0.5-1.3c0-0.5,0.2-0.9,0.5-1.4s0.9-1,1.6-1.4c0.4-0.3,0.8-0.5,1.3-0.8c0.5-0.3,1.1-0.5,1.6-0.8
		c0.6-0.2,1.2-0.4,1.8-0.6c0.6-0.2,1.2-0.2,1.8-0.3c0.4,0,0.8,0,1.1,0.2c0.3,0.1,0.6,0.3,0.7,0.5c0.2,0.2,0.3,0.5,0.3,0.8
		S133.9,140.6,133.8,140.9z"/>
	<path fill="#010101" d="M146.4,144.8c0,0.2,0,0.3-0.1,0.5c-0.1,0.2-0.2,0.3-0.4,0.4c-0.3,0.1-0.8,0.2-1.3,0.2
		c0.1,0.2,0.2,0.4,0.3,0.7s0.2,0.6,0.2,0.9c0,0.4,0,0.7-0.2,1.2c-0.1,0.4-0.4,0.8-0.7,1.2c-1.1,1.3-2.3,2.2-3.6,2.8
		c-0.6,0.3-1.1,0.4-1.7,0.5c-0.6,0.1-1.3,0.2-2,0.2c-1.8,0-3-0.5-3.7-1.7c-0.5-0.9-0.6-2.2-0.3-3.8c0.1-0.6,0.3-1.2,0.5-1.7
		c0.2-0.5,0.5-1,0.9-1.5c0.4-0.5,0.8-0.9,1.2-1.2s0.9-0.7,1.4-0.9c0.4-0.2,0.9-0.3,1.4-0.3c0.5,0,0.9,0.2,1.3,0.6
		c0.2-0.1,0.4-0.1,0.6-0.1s0.4,0,0.6,0c0.3,0,0.7,0.1,1.1,0.3c0.4,0.2,0.7,0.4,0.9,0.6h2.5c0.4,0,0.6,0.1,0.9,0.4
		S146.4,144.5,146.4,144.8z M142.4,148.4c0.4-0.5,0.5-0.9,0.3-1.4s-0.4-0.9-0.9-1.2c-0.3,0-0.6,0-1.1,0c-0.4,0-0.8,0-1.1,0
		c-0.6,0-1-0.1-1.3-0.3c-0.3-0.2-0.4-0.4-0.3-0.7c-0.1-0.1-0.2-0.1-0.3,0c-0.1,0-0.2,0.1-0.4,0.1c-0.4,0.3-0.8,0.7-1.3,1.3
		s-0.7,1.3-0.9,2.1c-0.2,1-0.1,1.6,0.2,2.1c0.3,0.5,0.8,0.7,1.6,0.7c0.6,0,1.1,0,1.6-0.1c0.5-0.1,0.9-0.2,1.2-0.4
		c0.5-0.2,1-0.5,1.5-0.9C141.6,149.3,142.1,148.9,142.4,148.4z"/>
	<path fill="#010101" d="M176.3,149.5c-0.1,0.2-0.2,0.3-0.4,0.5c-0.2,0.1-0.4,0.2-0.6,0.3c-0.1,0-0.1,0-0.2,0s-0.1,0-0.3-0.1
		c-0.3,0-0.7,0.1-1.3,0.3c-0.6,0.1-1.2,0.3-1.9,0.5c-0.8,0.3-1.6,0.4-2.4,0.4c-0.8,0-1.5-0.4-2.1-1.1c-0.5-0.5-0.8-1.1-1.1-1.9
		c-0.3-0.8-0.5-1.6-0.7-2.4c-0.1-0.5-0.3-0.7-0.6-0.7c-0.3,0-0.9,0.3-1.6,0.8c-0.2,0.1-0.4,0.3-0.7,0.5c-0.3,0.2-0.6,0.5-0.9,0.9
		c-0.3,0.3-0.7,0.7-1,1.1c-0.3,0.4-0.7,0.8-1,1.1c-0.1,0.2-0.3,0.3-0.5,0.4c-0.2,0.1-0.4,0.1-0.7,0.1c-0.2,0-0.4-0.1-0.7-0.2
		c-0.2-0.1-0.4-0.3-0.5-0.5c-0.3-0.6-0.5-1.2-0.7-1.9c-0.2-0.7-0.4-1.3-0.6-1.7c-0.1-0.3-0.4-0.4-0.7-0.3c-0.4,0-0.7,0.3-1.1,0.8
		c-0.3,0.5-0.7,0.9-1.1,1.3c-0.4,0.4-0.8,0.9-1.2,1.3c-0.3,0.4-0.6,0.8-1,1.3c-0.3,0.5-0.6,0.9-0.9,1.3c-0.2,0.3-0.5,0.5-0.8,0.6
		c-0.3,0.1-0.6,0-0.9-0.1c-0.2-0.1-0.4-0.3-0.5-0.5c-0.1-0.2-0.2-0.5-0.2-0.8c0-0.6-0.1-1.3-0.1-2.1c0-0.8,0-1.5,0-2.2
		c0-0.7,0-1.4,0-2.1c0-0.7,0-1.2,0.1-1.6c0-0.4,0.2-0.7,0.4-0.9c0.2-0.2,0.5-0.3,0.7-0.3c0.3,0,0.6,0.1,0.8,0.3
		c0.2,0.2,0.3,0.5,0.3,0.9c0,0.8,0,1.7,0,2.6c0,0.9,0,1.8,0,2.7c0.1-0.2,0.3-0.3,0.4-0.6c0.2-0.2,0.3-0.4,0.6-0.7
		c0.3-0.3,0.6-0.7,0.9-1c0.3-0.4,0.6-0.7,0.9-1.1c0.3-0.4,0.8-0.8,1.3-1.2c0.5-0.4,1-0.6,1.5-0.7c0.5-0.1,0.9,0,1.3,0.2
		c0.4,0.2,0.8,0.6,1.1,1.3c0.2,0.4,0.3,0.8,0.5,1.2s0.3,0.8,0.4,1.1c0,0.2,0.1,0.3,0.2,0.3s0.2-0.1,0.4-0.2c0.2-0.2,0.4-0.4,0.6-0.7
		c0.2-0.2,0.5-0.5,0.7-0.7c0.2-0.2,0.5-0.5,0.7-0.7c0.2-0.2,0.4-0.4,0.6-0.6c1.4-1.2,2.5-1.7,3.5-1.7c0.5,0,1,0.2,1.3,0.5
		s0.6,1,0.8,1.7c0.1,0.8,0.3,1.5,0.6,2.2c0.3,0.7,0.6,1.3,0.9,1.7c0.3,0.3,0.6,0.5,0.9,0.5c0.3,0,0.7-0.1,1-0.2
		c0.4-0.1,0.7-0.2,1.1-0.4c0.4-0.1,0.8-0.2,1.2-0.3c0.4-0.1,0.8-0.2,1.1-0.3c0.3-0.1,0.6-0.1,0.9-0.1c0.5,0,0.9,0.1,1.2,0.4
		C176.6,148.6,176.6,149,176.3,149.5z"/>
	<path fill="#010101" d="M187.1,148.8c0.1,0.3,0.2,0.5,0.1,0.8c-0.1,0.3-0.3,0.5-0.7,0.6c-0.5,0.2-1,0.4-1.7,0.7
		c-0.7,0.3-1.5,0.6-2.3,0.8c-0.8,0.3-1.7,0.4-2.7,0.6c-0.9,0.1-1.9,0.1-2.8,0c-0.9-0.2-1.6-0.5-2.1-1c-0.9-0.9-1.2-2.1-0.9-3.7
		c0.1-0.8,0.3-1.5,0.6-2.1s0.6-1.2,0.9-1.8c0.3-0.5,0.6-1,1-1.4c0.3-0.4,0.6-0.8,0.9-1s0.6-0.5,0.8-0.8c0.3-0.2,0.5-0.4,0.7-0.5
		c0.2-0.1,0.5-0.2,0.8-0.3c0.3-0.1,0.6-0.1,0.9-0.2c0.3,0,0.6,0,0.9,0c0.3,0,0.6,0.1,0.8,0.3c0.3,0.2,0.5,0.4,0.7,0.7
		s0.3,0.6,0.3,0.9c0.1,0.3,0.1,0.7,0,1s-0.1,0.7-0.2,1.1c-0.2,0.7-0.5,1.3-1,1.8c-0.5,0.6-1.1,1.1-1.7,1.5c-0.7,0.4-1.4,0.8-2.1,1.1
		s-1.5,0.5-2.2,0.5c-0.1,0.5,0,0.9,0.2,1.2c0.2,0.3,0.5,0.5,1,0.5c0.7,0.2,1.4,0.2,2.2,0c0.8-0.1,1.6-0.3,2.4-0.5
		c0.8-0.2,1.5-0.5,2.2-0.8c0.7-0.3,1.3-0.5,1.7-0.6c0.3-0.1,0.6-0.1,0.8,0C186.9,148.4,187,148.6,187.1,148.8z M181,143
		c0.1-0.6,0.1-1-0.1-1.2c-0.2-0.1-0.4-0.1-0.6-0.1c-0.2,0-0.4,0.1-0.6,0.2c-0.3,0.2-0.6,0.4-0.9,0.8c-0.4,0.4-0.8,0.9-1.2,1.5
		c-0.4,0.6-0.7,1.2-0.9,1.9c0.4-0.1,0.9-0.2,1.4-0.4c0.5-0.2,0.9-0.4,1.3-0.7c0.4-0.3,0.8-0.6,1.1-0.9
		C180.7,143.7,180.9,143.3,181,143z"/>
	<path fill="#010101" d="M206.8,150.6c0.2,0.3,0.3,0.6,0.3,0.9c0,0.3-0.1,0.5-0.4,0.7c-0.3,0.2-0.6,0.3-0.9,0.3
		c-0.3,0-0.6-0.2-0.9-0.5c-0.2-0.2-0.3-0.5-0.5-0.8c-0.2-0.3-0.4-0.7-0.6-1c-0.2-0.4-0.4-0.7-0.6-1.1c-0.2-0.3-0.3-0.7-0.5-0.9
		c-0.1-0.1-0.1-0.3-0.2-0.5c-0.1-0.2-0.2-0.4-0.3-0.6c-2.1,0.5-4.1,1-6,1.4c-1.9,0.4-3.7,0.8-5.5,1.3c-0.2,0.3-0.3,0.7-0.5,1.1
		c-0.2,0.4-0.4,0.8-0.6,1.2c0,0.2,0,0.4-0.1,0.7s-0.3,0.5-0.7,0.7c-0.2,0.1-0.4,0.1-0.7,0.1c-0.3,0-0.5-0.1-0.6-0.2
		c-0.3-0.2-0.4-0.5-0.4-0.7c0-0.3,0.1-0.5,0.2-0.8c0.1-0.2,0.2-0.4,0.3-0.7c0.1-0.2,0.3-0.4,0.4-0.7c-0.4,0-0.7,0-1.1-0.1
		c-0.3-0.1-0.5-0.4-0.5-0.8c0-0.1,0-0.2,0-0.3c0-0.1,0.1-0.3,0.2-0.4c0.1-0.1,0.2-0.2,0.3-0.3c0.1-0.1,0.3-0.1,0.6-0.1
		c0.3-0.1,0.5-0.1,0.8-0.2c0.3-0.1,0.5-0.1,0.8-0.2c0.4-0.7,0.8-1.6,1.3-2.5c0.5-0.9,0.9-1.9,1.4-2.9c0.5-1,1-2,1.5-3.1
		c0.5-1,0.9-2,1.4-2.9c0.4-0.9,0.8-1.7,1.2-2.4c0.3-0.7,0.6-1.2,0.8-1.5c0-0.3,0.1-0.5,0.3-0.7c0.2-0.2,0.5-0.3,0.8-0.4
		c0.3,0,0.5,0,0.7,0.1s0.4,0.3,0.5,0.6c0.4,1,0.9,2.1,1.3,3.2c0.4,1.1,0.8,2.3,1.3,3.3c0.4,1.1,0.8,2.1,1.2,3.1
		c0.4,1,0.7,1.8,1.1,2.6c0.3,0,0.5-0.1,0.7-0.1c0.2,0,0.4-0.1,0.6-0.1c0.2,0,0.4,0,0.7,0.1c0.2,0.1,0.4,0.4,0.5,0.8
		c0,0.2,0,0.4-0.1,0.6c-0.1,0.2-0.3,0.4-0.6,0.5c-0.1,0-0.3,0.1-0.5,0.1c-0.2,0-0.3,0.1-0.5,0.1c0.1,0.1,0.1,0.3,0.2,0.4
		s0.2,0.3,0.2,0.5c0.1,0.2,0.2,0.4,0.4,0.7s0.3,0.6,0.5,0.9c0.2,0.3,0.3,0.6,0.5,0.8C206.6,150.3,206.7,150.5,206.8,150.6z
		 M201.5,145.2c-0.7-1.6-1.3-3.3-1.9-5c-0.6-1.7-1.2-3.3-1.8-4.9c-0.4,0.8-0.9,1.8-1.4,2.8c-0.5,1-1,2.1-1.5,3.1
		c-0.5,1.1-1,2.1-1.5,3.2c-0.5,1.1-1,2-1.4,2.9c0.7-0.2,1.5-0.3,2.2-0.5c0.8-0.2,1.6-0.4,2.4-0.5c0.8-0.2,1.6-0.4,2.5-0.6
		C199.9,145.5,200.7,145.4,201.5,145.2z"/>
	<path fill="#010101" d="M220.5,146c0,0.6-0.2,1.2-0.6,1.7c-0.4,0.6-1,1-1.7,1.5c-0.1,0.1-0.3,0.1-0.5,0.2s-0.4,0.2-0.6,0.3
		c-0.2,0.1-0.4,0.2-0.7,0.3c-0.2,0.1-0.4,0.2-0.5,0.3c-0.2,0.1-0.4,0.2-0.7,0.4c-0.3,0.1-0.6,0.3-0.9,0.4c-0.3,0.1-0.6,0.3-0.9,0.3
		c-0.3,0.1-0.6,0.1-0.9,0.1c-0.4,0-0.7-0.1-1-0.3c-0.2-0.2-0.4-0.5-0.4-0.8c0-0.4,0.2-0.8,0.6-1.2c0.2-0.2,0.4-0.3,0.7-0.3
		c0.3,0,0.5,0,0.7,0.1c0.1,0,0.2,0,0.4-0.1s0.3-0.1,0.5-0.2s0.4-0.2,0.6-0.3c0.2-0.1,0.4-0.2,0.5-0.3c0.1-0.1,0.3-0.2,0.5-0.3
		c0.2-0.1,0.4-0.2,0.6-0.3s0.4-0.1,0.5-0.2c0.2-0.1,0.3-0.1,0.4-0.2c0.4-0.2,0.6-0.4,0.8-0.6c0.1-0.2,0.2-0.4,0.2-0.6
		c0-0.3-0.1-0.5-0.3-0.7c-0.2-0.2-0.5-0.4-0.9-0.6c-0.2-0.1-0.6-0.3-1-0.4c-0.4-0.2-0.9-0.3-1.4-0.5c-0.5-0.2-1-0.3-1.6-0.5
		c-0.5-0.1-1.1-0.3-1.6-0.3c-0.1,1.3-0.3,2.6-0.4,4.1c-0.1,1.4-0.2,2.8-0.3,4.3c-0.1,1.4-0.1,2.8-0.2,4.1c0,1.3,0,2.6,0,3.7
		c0.3,0.2,0.5,0.5,0.5,0.9c0,0.2,0,0.4-0.1,0.7c-0.1,0.3-0.2,0.5-0.4,0.7c-0.2,0.2-0.4,0.4-0.7,0.4c-0.2,0.1-0.5,0.1-0.7,0
		c-0.2,0-0.4-0.2-0.6-0.3c-0.2-0.2-0.3-0.4-0.3-0.7c0-0.2-0.1-0.4-0.1-0.6c0-0.2,0-0.4,0-0.7c0-1.5,0-3,0-4.5c0-1.5,0.1-3,0.2-4.4
		c0.1-1.5,0.2-2.8,0.3-4.2c0.1-1.3,0.2-2.6,0.3-3.7c-0.1,0-0.3,0-0.4,0s-0.3,0-0.4,0c-0.1,0-0.3,0-0.4,0c-0.1,0-0.2,0-0.4-0.1
		c-0.3-0.1-0.5-0.2-0.6-0.4c-0.1-0.2-0.2-0.4-0.2-0.6c0-0.3,0.1-0.6,0.3-0.9c0.2-0.3,0.6-0.4,1-0.4c2.1,0.1,4,0.4,5.6,0.8
		s3.1,1,4.4,1.6c0.9,0.4,1.5,0.9,1.9,1.5S220.5,145.4,220.5,146z"/>
	<path fill="#010101" d="M233.6,146c0,0.6-0.2,1.2-0.6,1.7c-0.4,0.6-1,1-1.7,1.5c-0.1,0.1-0.3,0.1-0.5,0.2s-0.4,0.2-0.6,0.3
		s-0.4,0.2-0.7,0.3c-0.2,0.1-0.4,0.2-0.5,0.3c-0.2,0.1-0.4,0.2-0.7,0.4c-0.3,0.1-0.6,0.3-0.9,0.4c-0.3,0.1-0.6,0.3-0.9,0.3
		s-0.6,0.1-0.9,0.1c-0.4,0-0.7-0.1-1-0.3c-0.2-0.2-0.4-0.5-0.4-0.8c0-0.4,0.2-0.8,0.6-1.2c0.2-0.2,0.4-0.3,0.7-0.3
		c0.3,0,0.5,0,0.7,0.1c0.1,0,0.2,0,0.4-0.1c0.2-0.1,0.3-0.1,0.5-0.2s0.4-0.2,0.6-0.3s0.4-0.2,0.5-0.3c0.1-0.1,0.3-0.2,0.5-0.3
		c0.2-0.1,0.4-0.2,0.6-0.3c0.2-0.1,0.4-0.1,0.5-0.2c0.2-0.1,0.3-0.1,0.4-0.2c0.4-0.2,0.6-0.4,0.8-0.6c0.1-0.2,0.2-0.4,0.2-0.6
		c0-0.3-0.1-0.5-0.3-0.7c-0.2-0.2-0.5-0.4-0.9-0.6c-0.2-0.1-0.6-0.3-1-0.4c-0.4-0.2-0.9-0.3-1.4-0.5c-0.5-0.2-1-0.3-1.6-0.5
		c-0.5-0.1-1.1-0.3-1.6-0.3c-0.1,1.3-0.3,2.6-0.4,4.1c-0.1,1.4-0.2,2.8-0.3,4.3c-0.1,1.4-0.1,2.8-0.2,4.1c0,1.3,0,2.6,0,3.7
		c0.3,0.2,0.5,0.5,0.5,0.9c0,0.2,0,0.4-0.1,0.7c-0.1,0.3-0.2,0.5-0.4,0.7c-0.2,0.2-0.4,0.4-0.7,0.4c-0.2,0.1-0.5,0.1-0.7,0
		c-0.2,0-0.4-0.2-0.6-0.3c-0.2-0.2-0.3-0.4-0.3-0.7c0-0.2-0.1-0.4-0.1-0.6c0-0.2,0-0.4,0-0.7c0-1.5,0-3,0-4.5c0.1-1.5,0.1-3,0.2-4.4
		c0.1-1.5,0.2-2.8,0.3-4.2c0.1-1.3,0.2-2.6,0.3-3.7c-0.1,0-0.3,0-0.4,0c-0.1,0-0.3,0-0.4,0c-0.1,0-0.3,0-0.4,0c-0.1,0-0.2,0-0.4-0.1
		c-0.3-0.1-0.5-0.2-0.6-0.4c-0.1-0.2-0.2-0.4-0.2-0.6c0-0.3,0.1-0.6,0.3-0.9c0.2-0.3,0.6-0.4,1-0.4c2.1,0.1,4,0.4,5.6,0.8
		s3.1,1,4.4,1.6c0.9,0.4,1.5,0.9,1.9,1.5C233.4,144.8,233.6,145.4,233.6,146z"/>
</g>
<g>
</g>
<g>
</g>
<g>
</g>
<g>
</g>
<g>
</g>
<g>
</g>
</svg>
