<?xml version="1.0" encoding="utf-8"?>
<!-- Generator: Adobe Illustrator 17.1.0, SVG Export Plug-In . SVG Version: 6.00 Build 0)  -->
<!DOCTYPE svg PUBLIC "-//W3C//DTD SVG 1.1//EN" "http://www.w3.org/Graphics/SVG/1.1/DTD/svg11.dtd">
<svg version="1.1" id="Layer_1" xmlns="http://www.w3.org/2000/svg" xmlns:xlink="http://www.w3.org/1999/xlink" x="0px" y="0px"
	 viewBox="0 0 300 300" enable-background="new 0 0 300 300" xml:space="preserve">
<g>
	<g>
		<path fill="#010101" d="M7.1,133.6c-0.9,7.2-2.3,14.2-1.9,21.5c0.3,5.4,1.9,11.1,3.8,16.2c3.1,8.3,9.1,13.8,17.5,16.3
			c5.9,1.7,12.6,1.7,18.7,2c7.9,0.3,15.7-0.1,23.6-0.6c14.6-0.9,29-1.2,43.4-3.4c9.6-1.5,19.2-3.3,20.1-14.6
			c0.4-5.3-0.6-10.8-0.4-16.2c0.2-6,0.4-12-1.1-17.8c-2.5-10-11.6-14-20.9-15.3c-11.1-1.6-23-1.1-34.2-1.4c-14.8-0.4-29.7,0-44.5,0
			c-8,0-20.2,2.5-23.8,10.9c-0.9,2.2,2.3,4.1,3.2,1.9c2.1-4.9,8.6-7.3,13.3-8.5c6.5-1.8,14.6-0.5,21.3-0.6
			c14.9-0.1,29.8,0.3,44.7,0.6c10.4,0.2,23.8-1.4,32.6,5.6c9.5,7.5,4.9,24.7,5.8,35.1c0.3,3.1,0.4,6.1-0.4,9.2
			c-0.9,3.5-4.7,4.9-7.8,5.8c-6.2,1.9-13.4,2.5-19.8,3.2c-15.1,1.6-30.8,2.1-46,2.4c-12,0.2-28.6,1.4-37.5-8.3
			c-8.4-9.2-8.7-24.9-7-36.3c0.4-2.6,0.7-5.1,1-7.7C11.1,131.2,7.4,131.2,7.1,133.6L7.1,133.6z"/>
	</g>
</g>
<g>
	<g>
		<path fill="#010101" d="M170,133.6c-0.9,7.2-2.3,14.2-1.9,21.5c0.3,5.4,1.9,11.1,3.8,16.2c3.1,8.3,9.1,13.8,17.5,16.3
			c5.9,1.7,12.6,1.7,18.7,2c7.9,0.3,15.7-0.1,23.6-0.6c14.6-0.9,29-1.2,43.4-3.4c9.6-1.5,19.2-3.3,20.1-14.6
			c0.4-5.3-0.6-10.8-0.4-16.2c0.2-6,0.4-12-1.1-17.8c-2.5-10-11.6-14-20.9-15.3c-11.1-1.6-23-1.1-34.2-1.4c-14.8-0.4-29.7,0-44.5,0
			c-8,0-20.2,2.5-23.8,10.9c-0.9,2.2,2.3,4.1,3.2,1.9c2.1-4.9,8.6-7.3,13.3-8.5c6.5-1.8,14.6-0.5,21.3-0.6
			c14.9-0.1,29.8,0.3,44.7,0.6c10.4,0.2,23.8-1.4,32.6,5.6c9.5,7.5,4.9,24.7,5.8,35.1c0.3,3.1,0.4,6.1-0.4,9.2
			c-0.9,3.5-4.7,4.9-7.8,5.8c-6.2,1.9-13.4,2.5-19.8,3.2c-15.1,1.6-30.8,2.1-46,2.4c-12,0.2-28.6,1.4-37.5-8.3
			c-8.4-9.2-8.7-24.9-7-36.3c0.4-2.6,0.7-5.1,1-7.7C174,131.2,170.2,131.2,170,133.6L170,133.6z"/>
	</g>
</g>
<g>
	<g>
		<path fill="#010101" d="M170,222.2c-0.9,7.2-2.3,14.2-1.9,21.5c0.3,5.4,1.9,11.1,3.8,16.2c3.1,8.3,9.1,13.8,17.5,16.3
			c5.9,1.7,12.6,1.7,18.7,2c7.9,0.3,15.7-0.1,23.6-0.6c14.6-0.9,29-1.2,43.4-3.4c9.6-1.5,19.2-3.3,20.1-14.6
			c0.4-5.3-0.6-10.8-0.4-16.2c0.2-6,0.4-12-1.1-17.8c-2.5-10-11.6-14-20.9-15.3c-11.1-1.6-23-1.1-34.2-1.4c-14.8-0.4-29.7,0-44.5,0
			c-8,0-20.2,2.5-23.8,10.9c-0.9,2.2,2.3,4.1,3.2,1.9c2.1-4.9,8.6-7.3,13.3-8.5c6.5-1.8,14.6-0.5,21.3-0.6
			c14.9-0.1,29.8,0.3,44.7,0.6c10.4,0.2,23.8-1.4,32.6,5.6c9.5,7.5,4.9,24.7,5.8,35.1c0.3,3.1,0.4,6.1-0.4,9.2
			c-0.9,3.5-4.7,4.9-7.8,5.8c-6.2,1.9-13.4,2.5-19.8,3.2c-15.1,1.6-30.8,2.1-46,2.4c-12,0.2-28.6,1.4-37.5-8.3
			c-8.4-9.2-8.7-24.9-7-36.3c0.4-2.6,0.7-5.1,1-7.7C174,219.8,170.2,219.8,170,222.2L170,222.2z"/>
	</g>
</g>
<g enable-background="new    ">
	<path fill="#010101" d="M43.2,147c-0.2,0.3-0.4,0.4-0.8,0.4c-0.2,0-0.3,0-0.5-0.1c-0.2-0.1-0.4-0.2-0.5-0.3c-0.3,0-0.8,0-1.3,0
		c-0.6,0-1.3,0-2,0.1c-0.8,0-1.6,0-2.5,0c-0.9,0-1.9,0-2.8,0c0,0.6,0,1.2,0.1,1.9s0.1,1.2,0.1,1.8c0.4,0,0.9,0,1.5-0.1
		c0.6,0,1.2-0.1,1.8-0.1c0.6-0.1,1.2-0.1,1.8-0.2c0.6-0.1,1-0.1,1.4-0.2c0.3,0,0.6-0.1,0.9-0.3c0.2-0.1,0.4-0.2,0.6-0.1
		s0.3,0.1,0.5,0.3c0.2,0.2,0.2,0.4,0.2,0.7c0,0.3-0.1,0.5-0.4,0.7c-0.2,0.1-0.4,0.2-0.7,0.3c-0.3,0.1-0.6,0.1-0.9,0.2
		c-0.4,0.1-0.9,0.1-1.5,0.2c-0.6,0.1-1.1,0.1-1.7,0.1c-0.6,0-1.2,0.1-1.8,0.1c-0.6,0-1.2,0.1-1.7,0.1c0,0.4,0,1,0.1,1.6
		s0.1,1.3,0.1,2c0,0.7,0.1,1.4,0.1,2.1c0,0.7,0.1,1.3,0.1,1.9c0,0.3,0,0.5-0.2,0.6c-0.2,0.1-0.4,0.2-0.6,0.2c-0.2,0-0.4-0.1-0.6-0.2
		c-0.2-0.1-0.3-0.3-0.3-0.6c0-0.6-0.1-1.2-0.1-1.9c0-0.7-0.1-1.3-0.1-2c0-0.7-0.1-1.3-0.1-1.9s0-1.2,0-1.7c-0.2,0-0.5-0.1-0.7-0.1
		c-0.2-0.1-0.3-0.2-0.4-0.3s-0.1-0.3-0.2-0.4c0-0.1,0-0.2,0.1-0.4c0.1-0.1,0.2-0.2,0.3-0.3c0.1,0,0.3-0.1,0.4-0.1
		c0.1,0,0.3-0.1,0.4-0.1c0-0.4,0-1-0.1-1.7c0-0.7-0.1-1.4-0.1-2c-0.1,0-0.3,0-0.5,0c-0.2,0-0.4,0-0.6,0c-0.2,0.2-0.5,0.3-1,0.1
		c-0.3-0.1-0.6-0.3-0.7-0.5s-0.2-0.4-0.3-0.6c0-0.2,0.1-0.5,0.3-0.6s0.5-0.2,0.9-0.2c0.8,0.1,1.8,0.1,2.9,0.1c1.1,0,2.3,0,3.5,0
		c1.2,0,2.3,0,3.3-0.1c1.1,0,1.9,0,2.6,0c0.3,0,0.7,0,1,0.1c0.3,0.1,0.5,0.2,0.6,0.3c0.2,0.2,0.3,0.5,0.3,0.7
		C43.4,146.6,43.3,146.8,43.2,147z"/>
	<path fill="#010101" d="M51.6,157.2c0.1,0.2,0.1,0.4,0.1,0.6c-0.1,0.2-0.2,0.4-0.5,0.5c-0.4,0.1-0.8,0.3-1.4,0.5
		c-0.6,0.2-1.2,0.4-1.8,0.6c-0.7,0.2-1.4,0.3-2.1,0.4c-0.7,0.1-1.5,0.1-2.2,0c-0.7-0.1-1.3-0.4-1.6-0.8c-0.7-0.7-0.9-1.6-0.7-2.9
		c0.1-0.6,0.2-1.1,0.4-1.6c0.2-0.5,0.4-1,0.7-1.4c0.2-0.4,0.5-0.8,0.7-1.1s0.5-0.6,0.7-0.8c0.2-0.2,0.4-0.4,0.6-0.6
		c0.2-0.2,0.4-0.3,0.6-0.4c0.2-0.1,0.4-0.2,0.6-0.2c0.2-0.1,0.5-0.1,0.7-0.1c0.2,0,0.5,0,0.7,0c0.2,0,0.4,0.1,0.6,0.2
		c0.2,0.1,0.4,0.3,0.5,0.5c0.1,0.2,0.2,0.4,0.3,0.7s0.1,0.5,0,0.8c0,0.3-0.1,0.6-0.1,0.8c-0.1,0.5-0.4,1-0.8,1.4
		c-0.4,0.4-0.8,0.8-1.3,1.2c-0.5,0.3-1.1,0.6-1.6,0.8c-0.6,0.2-1.1,0.4-1.7,0.4c0,0.4,0,0.7,0.2,0.9c0.2,0.2,0.4,0.4,0.8,0.4
		c0.5,0.1,1.1,0.1,1.7,0c0.6-0.1,1.2-0.2,1.8-0.4c0.6-0.2,1.2-0.4,1.7-0.6c0.5-0.2,1-0.4,1.3-0.5c0.2-0.1,0.4-0.1,0.6,0
		C51.4,156.9,51.5,157,51.6,157.2z M46.8,152.7c0.1-0.5,0.1-0.8-0.1-0.9c-0.1-0.1-0.3-0.1-0.5-0.1c-0.2,0-0.3,0.1-0.5,0.2
		c-0.2,0.1-0.4,0.3-0.7,0.6c-0.3,0.3-0.6,0.7-0.9,1.2c-0.3,0.5-0.5,0.9-0.7,1.4c0.3-0.1,0.7-0.2,1.1-0.3c0.4-0.2,0.7-0.3,1-0.6
		c0.3-0.2,0.6-0.4,0.8-0.7C46.6,153.2,46.7,153,46.8,152.7z"/>
	<path fill="#010101" d="M63.6,157.1c0.2,0.2,0.2,0.4,0.2,0.7c0,0.3-0.2,0.5-0.4,0.6c-0.5,0.3-1.1,0.6-1.8,0.8
		c-0.7,0.2-1.3,0.4-1.9,0.4c-0.7,0.1-1.2,0-1.6-0.1s-0.7-0.4-0.9-0.8c-0.1-0.1-0.2-0.3-0.3-0.6c-0.1-0.3-0.1-0.5-0.1-0.7
		c0-0.1-0.1-0.2-0.2-0.2c-0.1,0-0.2,0-0.3,0.1c-0.2,0.1-0.4,0.3-0.6,0.4s-0.5,0.4-0.8,0.6c-0.3,0.2-0.5,0.5-0.8,0.7
		c-0.3,0.2-0.5,0.5-0.8,0.7c-0.6,0.4-1.1,0.7-1.6,0.7c-0.5,0-0.9-0.1-1.2-0.4c-0.4-0.4-0.6-0.9-0.6-1.6c0-0.3,0.1-0.7,0.2-1
		c0.1-0.3,0.2-0.6,0.4-1c0.2-0.5,0.5-0.9,0.9-1.4c0.3-0.4,0.7-0.9,1.1-1.3c0.4-0.4,0.8-0.7,1.1-1.1c0.4-0.3,0.7-0.6,1.1-0.8
		c0.3-0.2,0.6-0.4,0.9-0.6c0.4-0.2,0.7-0.4,1.1-0.5s0.8-0.1,1.3-0.1c0.4,0.1,0.9,0.3,1.3,0.6c0.2,0.2,0.3,0.4,0.3,0.6
		c0,0.2,0,0.4-0.1,0.6c-0.1,0.2-0.3,0.4-0.6,0.4c-0.3,0.1-0.5,0-0.8-0.1c-0.4-0.3-0.7-0.4-1.2-0.3c-0.4,0.1-0.9,0.3-1.5,0.7
		c-0.3,0.2-0.6,0.4-0.9,0.7c-0.3,0.3-0.7,0.6-1,1c-0.3,0.4-0.6,0.7-0.9,1.1s-0.5,0.7-0.7,1.1c-0.1,0.2-0.2,0.4-0.2,0.7
		c0,0.3,0,0.4,0.1,0.5c0.2,0.1,0.4,0.1,0.7-0.2c0.2-0.2,0.5-0.4,0.9-0.7c0.3-0.3,0.7-0.6,1.1-0.9c0.4-0.3,0.7-0.6,1.1-0.9
		c0.4-0.3,0.7-0.5,1-0.7c0.2-0.1,0.5-0.2,0.7-0.3s0.4-0.1,0.6,0c0.2,0,0.3,0.1,0.4,0.3c0.1,0.2,0.2,0.4,0.2,0.6c0,0.3,0,0.6,0,0.9
		s0.1,0.5,0.1,0.7c0.1,0.3,0.2,0.4,0.4,0.5c0.2,0.1,0.4,0.1,0.6,0.1c0.2,0,0.4-0.1,0.7-0.1c0.3-0.1,0.5-0.1,0.8-0.2s0.5-0.2,0.8-0.3
		s0.5-0.2,0.7-0.3c0.2-0.1,0.4-0.1,0.6-0.1S63.4,156.9,63.6,157.1z"/>
	<path fill="#010101" d="M69.9,153c0,0.2-0.1,0.4-0.2,0.5s-0.4,0.2-0.6,0.3c-0.3,0-0.8,0-1.5,0c-0.6,0-1.3,0-1.9,0
		c0,0.4,0,0.9,0,1.3s0.1,0.9,0.1,1.4c0.1,0.4,0.1,0.9,0.2,1.3c0.1,0.4,0.1,0.7,0.2,1c0.1,0.3,0,0.5-0.1,0.7
		c-0.1,0.2-0.3,0.3-0.5,0.3c-0.2,0.1-0.4,0-0.7-0.1s-0.4-0.3-0.5-0.7c-0.2-0.7-0.3-1.5-0.4-2.4s-0.2-1.9-0.2-2.9h-1.7
		c-0.3,0-0.5-0.1-0.6-0.2c-0.1-0.2-0.2-0.4-0.2-0.6s0.1-0.4,0.2-0.6c0.1-0.2,0.4-0.3,0.6-0.3c0.2,0,0.4,0,0.7,0c0.3,0,0.6,0,0.9,0
		c0-0.5,0-1,0.1-1.6c0-0.6,0.1-1.3,0.2-1.9c0.1-0.7,0.2-1.3,0.3-2c0.1-0.7,0.2-1.3,0.4-1.9c-0.2-0.1-0.2-0.2-0.2-0.4
		c0-0.1,0.1-0.2,0.2-0.4c0.1-0.1,0.2-0.3,0.3-0.4c0-0.1,0.1-0.2,0.1-0.2s0.1-0.2,0.1-0.2c0.1-0.2,0.3-0.4,0.5-0.4s0.4,0,0.6,0.1
		c0.2,0.1,0.3,0.2,0.4,0.4c0.1,0.2,0.2,0.4,0.1,0.6c0,0.2,0,0.3-0.1,0.4c-0.1,0.1-0.1,0.2-0.2,0.4c-0.1,0.5-0.3,1.1-0.4,1.7
		c-0.1,0.7-0.2,1.3-0.3,2c-0.1,0.7-0.2,1.4-0.2,2.1c-0.1,0.7-0.1,1.3-0.1,1.9c0.2,0,0.4,0,0.7,0c0.3,0,0.6,0,0.9,0
		c0.3,0,0.7,0,1,0.1c0.3,0,0.6,0,0.8,0.1c0.2,0,0.4,0.1,0.5,0.3C69.9,152.6,69.9,152.8,69.9,153z"/>
	<path fill="#010101" d="M84.8,157.2c0.1,0.2,0.1,0.4,0.1,0.6c0,0.2-0.2,0.4-0.4,0.6c-0.4,0.2-0.8,0.4-1.3,0.6s-1.1,0.3-1.7,0.4
		c-0.5,0.1-1.1,0-1.6-0.1c-0.5-0.2-0.9-0.4-1.2-0.9c-0.1-0.2-0.2-0.4-0.3-0.7c-0.1-0.2-0.1-0.5-0.1-0.9c-0.3,0.4-0.7,0.8-1.1,1.3
		c-0.4,0.4-0.9,0.8-1.3,1c-0.6,0.4-1.2,0.7-1.8,0.8c-0.6,0.1-1.2,0.1-1.7,0c-0.4-0.1-0.8-0.3-1.1-0.6c-0.3-0.3-0.6-0.7-0.7-1.1
		c-0.1-0.4-0.2-0.9-0.2-1.4c0-0.5,0-1,0-1.6s0.1-1,0.2-1.4c0.1-0.4,0.2-0.8,0.3-1.1c0.1-0.2,0.2-0.4,0.4-0.5
		c0.2-0.1,0.4-0.2,0.6-0.2c0.2,0,0.4,0.1,0.6,0.3c0.2,0.2,0.2,0.4,0.1,0.7c-0.1,0.3-0.2,0.7-0.3,1.1c-0.1,0.4-0.1,0.8-0.2,1.2
		s-0.1,0.8,0,1.2c0,0.4,0.1,0.7,0.1,0.9c0.1,0.4,0.4,0.6,0.7,0.8c0.3,0.1,0.6,0.1,0.9,0c0.4-0.1,0.7-0.2,1.1-0.5
		c0.9-0.6,1.6-1.4,2.2-2.2c0.6-0.8,1-1.6,1.3-2.3c0.1-0.2,0.2-0.4,0.4-0.4c0.2-0.1,0.4-0.1,0.6-0.1c0.2,0.1,0.4,0.2,0.5,0.3
		s0.2,0.4,0.1,0.6c-0.2,0.7-0.3,1.3-0.3,1.8s0,1,0.2,1.4c0.1,0.3,0.3,0.5,0.5,0.6c0.2,0.1,0.5,0.1,0.8,0.1c0.4,0,0.9-0.1,1.3-0.3
		s0.8-0.3,1.1-0.5c0.3-0.2,0.5-0.2,0.7-0.1C84.6,156.9,84.7,157,84.8,157.2z"/>
	<path fill="#010101" d="M92.6,154.3c-0.1,0.2-0.2,0.3-0.4,0.3c-0.2,0.1-0.4,0-0.6-0.1c-0.2-0.1-0.3-0.1-0.4-0.1c-0.1,0-0.3,0-0.4,0
		c-0.2,0-0.5,0.1-0.9,0.2c-0.3,0.1-0.7,0.2-1,0.4c-0.4,0.2-0.7,0.3-1.1,0.5c-0.4,0.2-0.7,0.4-1,0.6c-0.3,0.2-0.5,0.3-0.7,0.5
		c-0.2,0.2-0.3,0.3-0.4,0.5c-0.1,0.2-0.2,0.4-0.3,0.6c0,0.2-0.1,0.4-0.1,0.6c0,0.3-0.1,0.5-0.3,0.6c-0.2,0.1-0.3,0.2-0.6,0.2
		c-0.2,0-0.4-0.1-0.6-0.2c-0.2-0.2-0.3-0.4-0.3-0.7c0-0.3,0-0.6,0-1c0-0.4,0-0.8,0-1.2c0-0.4,0-0.8,0-1.1s0-0.7,0.1-1
		c-0.1,0-0.2-0.1-0.2-0.2c0-0.1,0-0.2,0.1-0.3c0.1-0.1,0.2-0.3,0.2-0.4c0.1-0.1,0.1-0.3,0.2-0.4c0.1-0.2,0.2-0.3,0.4-0.4
		c0.2-0.1,0.4-0.1,0.6,0c0.2,0.1,0.3,0.2,0.4,0.3s0.2,0.3,0.1,0.5c0,0.1-0.1,0.3-0.1,0.5c0,0.2-0.1,0.4-0.1,0.6s0,0.4,0,0.6
		c0,0.2,0,0.4,0,0.5c0.1-0.1,0.2-0.2,0.3-0.3c0.1-0.1,0.2-0.2,0.3-0.3c0.3-0.2,0.7-0.5,1.2-0.7c0.4-0.2,0.9-0.4,1.4-0.6
		c0.5-0.2,0.9-0.3,1.4-0.5c0.5-0.1,0.9-0.2,1.2-0.2c0.3,0,0.6,0,0.8,0.1c0.2,0.1,0.4,0.2,0.6,0.3c0.2,0.2,0.3,0.4,0.3,0.6
		C92.8,153.9,92.7,154.1,92.6,154.3z"/>
	<path fill="#010101" d="M103.2,157.2c0.1,0.2,0.1,0.4,0.1,0.6c-0.1,0.2-0.2,0.4-0.5,0.5c-0.4,0.1-0.8,0.3-1.4,0.5
		c-0.6,0.2-1.2,0.4-1.8,0.6c-0.7,0.2-1.4,0.3-2.1,0.4c-0.7,0.1-1.5,0.1-2.2,0c-0.7-0.1-1.3-0.4-1.6-0.8c-0.7-0.7-0.9-1.6-0.7-2.9
		c0.1-0.6,0.2-1.1,0.4-1.6c0.2-0.5,0.4-1,0.7-1.4c0.2-0.4,0.5-0.8,0.7-1.1s0.5-0.6,0.7-0.8c0.2-0.2,0.4-0.4,0.6-0.6
		c0.2-0.2,0.4-0.3,0.6-0.4c0.2-0.1,0.4-0.2,0.6-0.2c0.2-0.1,0.5-0.1,0.7-0.1c0.2,0,0.5,0,0.7,0c0.2,0,0.4,0.1,0.6,0.2
		c0.2,0.1,0.4,0.3,0.5,0.5c0.1,0.2,0.2,0.4,0.3,0.7s0.1,0.5,0,0.8c0,0.3-0.1,0.6-0.1,0.8c-0.1,0.5-0.4,1-0.8,1.4
		c-0.4,0.4-0.8,0.8-1.3,1.2c-0.5,0.3-1.1,0.6-1.6,0.8c-0.6,0.2-1.1,0.4-1.7,0.4c0,0.4,0,0.7,0.2,0.9c0.2,0.2,0.4,0.4,0.8,0.4
		c0.5,0.1,1.1,0.1,1.7,0c0.6-0.1,1.2-0.2,1.8-0.4c0.6-0.2,1.2-0.4,1.7-0.6c0.5-0.2,1-0.4,1.3-0.5c0.2-0.1,0.4-0.1,0.6,0
		C103,156.9,103.1,157,103.2,157.2z M98.4,152.7c0.1-0.5,0.1-0.8-0.1-0.9c-0.1-0.1-0.3-0.1-0.5-0.1c-0.2,0-0.3,0.1-0.5,0.2
		c-0.2,0.1-0.4,0.3-0.7,0.6c-0.3,0.3-0.6,0.7-0.9,1.2c-0.3,0.5-0.5,0.9-0.7,1.4c0.3-0.1,0.7-0.2,1.1-0.3c0.4-0.2,0.7-0.3,1-0.6
		c0.3-0.2,0.6-0.4,0.8-0.7C98.2,153.2,98.4,153,98.4,152.7z"/>
	<path fill="#010101" d="M118.5,158.6c0.2,0.2,0.2,0.5,0.2,0.7c0,0.2-0.1,0.4-0.3,0.5c-0.2,0.2-0.5,0.2-0.7,0.2
		c-0.3,0-0.5-0.2-0.7-0.4c-0.1-0.2-0.3-0.4-0.4-0.6c-0.2-0.2-0.3-0.5-0.5-0.8c-0.2-0.3-0.3-0.5-0.4-0.8c-0.1-0.3-0.3-0.5-0.4-0.7
		c0-0.1-0.1-0.2-0.2-0.4c-0.1-0.1-0.2-0.3-0.3-0.5c-1.6,0.4-3.2,0.8-4.6,1.1c-1.5,0.3-2.9,0.7-4.2,1c-0.1,0.3-0.3,0.5-0.4,0.8
		c-0.1,0.3-0.3,0.6-0.5,0.9c0,0.2,0,0.3-0.1,0.6s-0.3,0.4-0.5,0.5c-0.2,0.1-0.3,0.1-0.6,0.1c-0.2,0-0.4-0.1-0.5-0.2
		c-0.2-0.2-0.3-0.4-0.3-0.6s0.1-0.4,0.2-0.6c0.1-0.2,0.2-0.3,0.3-0.5c0.1-0.2,0.2-0.3,0.3-0.5c-0.3,0-0.6,0-0.8-0.1
		c-0.3-0.1-0.4-0.3-0.4-0.6c0-0.1,0-0.1,0-0.2c0-0.1,0.1-0.2,0.1-0.3c0.1-0.1,0.1-0.2,0.3-0.3c0.1-0.1,0.3-0.1,0.4-0.1
		c0.2,0,0.4-0.1,0.6-0.1s0.4-0.1,0.6-0.2c0.3-0.6,0.6-1.2,1-1.9c0.4-0.7,0.7-1.5,1.1-2.3c0.4-0.8,0.8-1.6,1.1-2.4
		c0.4-0.8,0.7-1.5,1.1-2.2c0.3-0.7,0.6-1.3,0.9-1.8c0.3-0.5,0.5-0.9,0.7-1.2c0-0.2,0.1-0.4,0.2-0.6c0.1-0.2,0.4-0.3,0.6-0.3
		c0.2,0,0.4,0,0.5,0.1c0.2,0.1,0.3,0.2,0.4,0.4c0.3,0.8,0.7,1.6,1,2.5c0.3,0.9,0.7,1.7,1,2.6c0.3,0.9,0.6,1.7,0.9,2.4s0.6,1.4,0.8,2
		c0.2,0,0.4-0.1,0.6-0.1c0.2,0,0.3-0.1,0.5-0.1c0.2,0,0.3,0,0.5,0.1c0.2,0.1,0.3,0.3,0.4,0.7c0,0.1,0,0.3-0.1,0.4
		c-0.1,0.2-0.2,0.3-0.4,0.4c-0.1,0-0.2,0.1-0.4,0.1c-0.1,0-0.3,0.1-0.4,0.1c0,0.1,0.1,0.2,0.2,0.3c0.1,0.1,0.1,0.2,0.2,0.4
		c0.1,0.2,0.2,0.3,0.3,0.6c0.1,0.2,0.3,0.4,0.4,0.7s0.3,0.4,0.4,0.7C118.3,158.3,118.4,158.5,118.5,158.6z M114.3,154.4
		c-0.5-1.2-1-2.5-1.5-3.9s-0.9-2.6-1.4-3.8c-0.3,0.6-0.7,1.4-1.1,2.2c-0.4,0.8-0.8,1.6-1.2,2.4s-0.8,1.7-1.2,2.5
		c-0.4,0.8-0.8,1.6-1.1,2.3c0.6-0.1,1.1-0.3,1.7-0.4s1.2-0.3,1.9-0.4c0.6-0.1,1.3-0.3,1.9-0.4C113.1,154.7,113.7,154.5,114.3,154.4z
		"/>
</g>
<g enable-background="new    ">
	<path fill="#010101" d="M200.4,152.2c0.1,0.4-0.1,0.9-0.4,1.5c-0.3,0.6-0.7,1.1-1.2,1.7c-0.5,0.6-1,1.1-1.6,1.6
		c-0.6,0.5-1.1,0.9-1.6,1.3c-0.8,0.5-1.6,1-2.5,1.5s-1.8,1-2.7,1.5c-0.3,0.1-0.5,0.2-0.7,0.1c-0.2-0.1-0.4-0.2-0.5-0.4
		c-0.1-0.2-0.1-0.4-0.1-0.7c0.1-0.2,0.2-0.4,0.5-0.6c1-0.5,1.9-1,2.7-1.5c0.9-0.5,1.6-0.9,2.3-1.4c0.4-0.3,0.8-0.6,1.3-1
		s0.9-0.8,1.3-1.3c0.4-0.4,0.7-0.9,1-1.3c0.3-0.4,0.4-0.8,0.4-1.1c0-0.5-0.2-0.9-0.5-1.3c-0.3-0.4-0.9-0.9-1.6-1.3
		c-0.4-0.2-0.8-0.5-1.3-0.8s-1.1-0.6-1.6-1c-0.6-0.3-1.2-0.7-1.8-1c-0.6-0.3-1.2-0.6-1.7-0.9c-0.1,1.2-0.2,2.3-0.3,3.6
		s-0.2,2.4-0.3,3.4c-0.1,1.1-0.2,2-0.2,2.7c-0.1,0.8-0.1,1.3-0.1,1.6c0,0.2,0.1,0.4,0.2,0.6c0.1,0.2,0.2,0.4,0.3,0.6
		c0.1,0.2,0.1,0.4,0,0.6s-0.2,0.3-0.4,0.4c-0.2,0.1-0.4,0.1-0.7,0c-0.2-0.1-0.4-0.2-0.6-0.5c-0.1-0.2-0.2-0.4-0.3-0.7
		c-0.1-0.3-0.2-0.6-0.2-1c0-0.2,0-0.6,0-1.1c0-0.5,0.1-1,0.1-1.7c0.1-0.6,0.1-1.3,0.2-2.1s0.1-1.6,0.2-2.4c0.1-0.8,0.2-1.6,0.2-2.5
		c0.1-0.8,0.1-1.6,0.2-2.4c-0.1-0.1-0.3-0.2-0.4-0.2c-0.2-0.1-0.3-0.1-0.4-0.2c-0.2,0-0.3,0-0.5-0.1c-0.2-0.1-0.3-0.2-0.4-0.4
		c-0.1-0.2-0.2-0.4-0.2-0.6c0-0.2,0.1-0.3,0.2-0.5c0.1-0.2,0.3-0.3,0.6-0.3c0.2-0.1,0.5,0,0.8,0.1c0.9,0.5,1.9,1,2.8,1.5
		c0.9,0.5,1.8,1,2.7,1.5c0.8,0.5,1.6,0.9,2.3,1.3s1.2,0.7,1.6,1C199.4,149.3,200.4,150.7,200.4,152.2z"/>
	<path fill="#010101" d="M210.5,157.1c0,0.2,0,0.4-0.2,0.6c-0.1,0.2-0.3,0.3-0.7,0.3c-0.2,0-0.5,0.1-0.9,0.2
		c-0.4,0.1-0.8,0.2-1.2,0.4c-0.4,0.2-0.9,0.3-1.3,0.4c-0.4,0.1-0.8,0.3-1.1,0.3c-1,0.2-1.7,0.2-2.3,0c-0.5-0.2-0.9-0.8-1.2-1.7
		c-0.1-0.3-0.1-0.6-0.1-1c0-0.4,0-0.7,0-1c0-0.4,0.1-0.8,0.2-1.2c0.1-0.4,0.2-0.7,0.3-1c-0.1,0-0.1-0.1-0.1-0.2s0-0.2,0-0.3
		c0.1-0.1,0.2-0.3,0.3-0.5c0.1-0.2,0.2-0.4,0.4-0.5c0.2-0.1,0.3-0.2,0.5-0.2c0.2,0,0.4,0,0.5,0.1c0.2,0.1,0.4,0.2,0.5,0.4
		c0.1,0.2,0.1,0.3,0,0.5c-0.2,0.3-0.3,0.8-0.5,1.3c-0.2,0.6-0.3,1.1-0.3,1.6c0,0.3,0,0.6,0,0.8c0,0.2,0,0.5,0.1,0.6
		c0.1,0.3,0.2,0.5,0.4,0.6c0.2,0.1,0.5,0.1,0.9,0c0.3,0,0.6-0.1,1-0.3c0.4-0.2,0.8-0.3,1.3-0.5c0.5-0.2,0.9-0.3,1.3-0.5
		c0.4-0.1,0.8-0.2,1.1-0.2c0.3,0,0.5,0.1,0.7,0.3C210.4,156.7,210.5,156.9,210.5,157.1z M206,146.8c0.2,0.1,0.3,0.3,0.4,0.5
		c0.1,0.2,0.1,0.4,0.1,0.6c0,0.2,0,0.4-0.1,0.6c-0.1,0.2-0.2,0.4-0.4,0.5c-0.3,0.2-0.6,0.3-0.9,0.3c-0.3,0-0.6-0.2-0.9-0.4
		c-0.3-0.3-0.4-0.6-0.4-1c0-0.4,0.2-0.7,0.6-1c0.2-0.2,0.5-0.3,0.8-0.3C205.5,146.5,205.8,146.6,206,146.8z"/>
	<path fill="#010101" d="M218,153.9c-0.1,0.2-0.2,0.3-0.4,0.3c-0.2,0.1-0.4,0-0.6-0.1c-0.2-0.1-0.3-0.1-0.4-0.1c-0.1,0-0.3,0-0.4,0
		c-0.2,0-0.5,0.1-0.9,0.2c-0.3,0.1-0.7,0.2-1,0.4s-0.7,0.3-1.1,0.5s-0.7,0.4-1,0.6c-0.3,0.2-0.5,0.3-0.7,0.5
		c-0.2,0.2-0.3,0.3-0.4,0.5c-0.1,0.2-0.2,0.4-0.3,0.6c0,0.2-0.1,0.4-0.1,0.6c0,0.3-0.1,0.5-0.3,0.6c-0.2,0.1-0.3,0.2-0.6,0.2
		c-0.2,0-0.4-0.1-0.6-0.2c-0.2-0.2-0.3-0.4-0.3-0.7c0-0.3,0-0.6,0-1c0-0.4,0-0.8,0-1.2c0-0.4,0-0.8,0-1.1c0-0.4,0-0.7,0.1-1
		c-0.1,0-0.2-0.1-0.2-0.2c0-0.1,0-0.2,0.1-0.3c0.1-0.1,0.2-0.3,0.2-0.4c0.1-0.1,0.1-0.3,0.2-0.4c0.1-0.2,0.2-0.3,0.4-0.4
		c0.2-0.1,0.4-0.1,0.6,0c0.2,0.1,0.3,0.2,0.4,0.3c0.1,0.1,0.2,0.3,0.1,0.5c0,0.1-0.1,0.3-0.1,0.5c0,0.2-0.1,0.4-0.1,0.6
		c0,0.2,0,0.4,0,0.6c0,0.2,0,0.4,0,0.5c0.1-0.1,0.2-0.2,0.3-0.3c0.1-0.1,0.2-0.2,0.3-0.3c0.3-0.2,0.7-0.5,1.2-0.7
		c0.4-0.2,0.9-0.4,1.4-0.6c0.5-0.2,0.9-0.3,1.4-0.5c0.5-0.1,0.9-0.2,1.2-0.2c0.3,0,0.6,0,0.8,0.1c0.2,0.1,0.4,0.2,0.6,0.3
		c0.2,0.2,0.3,0.4,0.3,0.6C218.2,153.5,218.2,153.7,218,153.9z"/>
	<path fill="#010101" d="M228.6,156.8c0.1,0.2,0.1,0.4,0.1,0.6c-0.1,0.2-0.2,0.4-0.5,0.5c-0.4,0.1-0.8,0.3-1.4,0.5
		c-0.6,0.2-1.2,0.4-1.8,0.6c-0.7,0.2-1.4,0.3-2.1,0.4c-0.7,0.1-1.5,0.1-2.2,0c-0.7-0.1-1.3-0.4-1.6-0.8c-0.7-0.7-0.9-1.6-0.7-2.9
		c0.1-0.6,0.2-1.1,0.4-1.6c0.2-0.5,0.4-1,0.7-1.4c0.2-0.4,0.5-0.8,0.7-1.1s0.5-0.6,0.7-0.8c0.2-0.2,0.4-0.4,0.6-0.6
		c0.2-0.2,0.4-0.3,0.6-0.4c0.2-0.1,0.4-0.2,0.6-0.2c0.2-0.1,0.5-0.1,0.7-0.1c0.2,0,0.5,0,0.7,0c0.2,0,0.4,0.1,0.6,0.2
		c0.2,0.1,0.4,0.3,0.5,0.5c0.1,0.2,0.2,0.4,0.3,0.7c0,0.3,0.1,0.5,0,0.8c0,0.3-0.1,0.6-0.1,0.8c-0.1,0.5-0.4,1-0.8,1.4
		c-0.4,0.4-0.8,0.8-1.3,1.2c-0.5,0.3-1,0.6-1.6,0.8c-0.6,0.2-1.1,0.4-1.7,0.4c0,0.4,0,0.7,0.2,0.9c0.2,0.2,0.4,0.4,0.8,0.4
		c0.5,0.1,1.1,0.1,1.7,0s1.2-0.2,1.8-0.4c0.6-0.2,1.2-0.4,1.7-0.6c0.5-0.2,1-0.4,1.3-0.5c0.2-0.1,0.4-0.1,0.6,0
		C228.4,156.5,228.5,156.6,228.6,156.8z M223.9,152.3c0.1-0.5,0.1-0.8-0.1-0.9c-0.1-0.1-0.3-0.1-0.5-0.1c-0.2,0-0.3,0.1-0.5,0.2
		c-0.2,0.1-0.4,0.3-0.7,0.6c-0.3,0.3-0.6,0.7-0.9,1.2c-0.3,0.5-0.5,0.9-0.7,1.4c0.3-0.1,0.7-0.2,1.1-0.3c0.4-0.2,0.7-0.3,1-0.6
		s0.6-0.4,0.8-0.7C223.6,152.8,223.8,152.5,223.9,152.3z"/>
	<path fill="#010101" d="M238.4,156.1c0.1,0.2,0.2,0.4,0.1,0.7c0,0.2-0.2,0.4-0.5,0.6c-0.3,0.2-0.7,0.3-1.2,0.6
		c-0.5,0.2-1.1,0.4-1.8,0.7s-1.4,0.4-2.2,0.5s-1.7,0.2-2.6,0.3c-0.8,0-1.5-0.1-2.1-0.3c-0.6-0.2-1-0.5-1.3-0.9s-0.4-0.8-0.4-1.3
		c0-0.5,0.2-1.1,0.6-1.7c0.2-0.4,0.5-0.8,0.8-1.2c0.3-0.4,0.7-0.7,1.1-1.1c0.4-0.3,0.8-0.6,1.3-0.9s0.9-0.5,1.4-0.7
		c0.2-0.1,0.4-0.1,0.7-0.1c0.3,0,0.5,0,0.7,0c0.4,0,0.6,0.2,0.8,0.3c0.2,0.2,0.2,0.4,0.3,0.6c0,0.2-0.1,0.4-0.2,0.6
		c-0.1,0.2-0.3,0.3-0.6,0.4c-0.2,0-0.4,0.1-0.6,0c-0.2,0-0.4-0.1-0.6-0.1c-0.3,0.1-0.6,0.2-0.9,0.4c-0.3,0.2-0.6,0.4-1,0.7
		s-0.6,0.6-0.9,0.9c-0.3,0.3-0.5,0.6-0.6,0.9c-0.1,0.2-0.2,0.5-0.2,0.7s0.1,0.4,0.2,0.6c0.1,0.2,0.3,0.3,0.6,0.4
		c0.3,0.1,0.6,0.2,1,0.2c0.8,0,1.5-0.1,2.3-0.2c0.7-0.1,1.4-0.3,2.1-0.5c0.6-0.2,1.2-0.4,1.7-0.6s0.8-0.4,1-0.5
		c0.2-0.1,0.4-0.2,0.7-0.1C238.1,155.9,238.3,156,238.4,156.1z"/>
	<path fill="#010101" d="M244.3,152.6c0,0.2-0.1,0.4-0.2,0.5c-0.1,0.2-0.4,0.2-0.6,0.3c-0.3,0-0.8,0-1.5,0c-0.6,0-1.3,0-1.9,0
		c0,0.4,0,0.9,0,1.3c0,0.5,0.1,0.9,0.1,1.4c0.1,0.4,0.1,0.9,0.2,1.3s0.1,0.7,0.2,1c0.1,0.3,0,0.5-0.1,0.7c-0.1,0.2-0.3,0.3-0.5,0.3
		c-0.2,0.1-0.4,0-0.7-0.1c-0.2-0.1-0.4-0.3-0.5-0.7c-0.2-0.7-0.3-1.5-0.4-2.4c-0.1-0.9-0.2-1.9-0.2-2.9h-1.7c-0.3,0-0.5-0.1-0.6-0.2
		c-0.1-0.2-0.2-0.4-0.2-0.6s0.1-0.4,0.2-0.6s0.4-0.3,0.6-0.3c0.2,0,0.4,0,0.7,0c0.3,0,0.6,0,0.9,0c0-0.5,0-1,0.1-1.6
		c0-0.6,0.1-1.3,0.2-1.9s0.2-1.3,0.3-2c0.1-0.7,0.2-1.3,0.4-1.9c-0.2-0.1-0.2-0.2-0.2-0.4c0-0.1,0.1-0.2,0.2-0.4
		c0.1-0.1,0.2-0.3,0.3-0.4c0-0.1,0.1-0.2,0.1-0.2c0-0.1,0.1-0.2,0.1-0.2c0.1-0.2,0.3-0.4,0.5-0.4c0.2-0.1,0.4,0,0.6,0.1
		c0.2,0.1,0.3,0.2,0.4,0.4c0.1,0.2,0.2,0.4,0.1,0.6c0,0.2,0,0.3-0.1,0.4c-0.1,0.1-0.1,0.2-0.2,0.4c-0.1,0.5-0.3,1.1-0.4,1.7
		s-0.2,1.3-0.3,2c-0.1,0.7-0.2,1.4-0.2,2.1c-0.1,0.7-0.1,1.3-0.1,1.9c0.2,0,0.4,0,0.7,0c0.3,0,0.6,0,0.9,0c0.3,0,0.7,0,1,0.1
		c0.3,0,0.6,0,0.8,0.1c0.2,0,0.4,0.1,0.5,0.3C244.2,152.2,244.3,152.4,244.3,152.6z"/>
	<path fill="#010101" d="M253.5,157.1c0,0.2,0,0.4-0.2,0.6c-0.1,0.2-0.3,0.3-0.7,0.3c-0.2,0-0.5,0.1-0.9,0.2
		c-0.4,0.1-0.8,0.2-1.2,0.4c-0.4,0.2-0.9,0.3-1.3,0.4c-0.4,0.1-0.8,0.3-1.1,0.3c-1,0.2-1.7,0.2-2.3,0c-0.5-0.2-0.9-0.8-1.2-1.7
		c-0.1-0.3-0.1-0.6-0.1-1c0-0.4,0-0.7,0-1c0-0.4,0.1-0.8,0.2-1.2c0.1-0.4,0.2-0.7,0.3-1c-0.1,0-0.1-0.1-0.1-0.2s0-0.2,0-0.3
		c0.1-0.1,0.2-0.3,0.3-0.5c0.1-0.2,0.2-0.4,0.4-0.5c0.2-0.1,0.3-0.2,0.5-0.2s0.4,0,0.5,0.1c0.2,0.1,0.4,0.2,0.5,0.4s0.1,0.3,0,0.5
		c-0.2,0.3-0.3,0.8-0.5,1.3c-0.2,0.6-0.3,1.1-0.3,1.6c0,0.3,0,0.6,0,0.8c0,0.2,0,0.5,0.1,0.6c0.1,0.3,0.2,0.5,0.4,0.6
		c0.2,0.1,0.5,0.1,0.9,0c0.3,0,0.6-0.1,1-0.3c0.4-0.2,0.8-0.3,1.3-0.5c0.5-0.2,0.9-0.3,1.3-0.5c0.4-0.1,0.8-0.2,1.1-0.2
		c0.3,0,0.5,0.1,0.7,0.3C253.3,156.7,253.4,156.9,253.5,157.1z M249,146.8c0.2,0.1,0.3,0.3,0.4,0.5c0.1,0.2,0.1,0.4,0.1,0.6
		c0,0.2,0,0.4-0.1,0.6s-0.2,0.4-0.4,0.5c-0.3,0.2-0.6,0.3-0.9,0.3c-0.3,0-0.6-0.2-0.9-0.4c-0.3-0.3-0.4-0.6-0.4-1
		c0-0.4,0.2-0.7,0.6-1c0.2-0.2,0.5-0.3,0.8-0.3S248.7,146.6,249,146.8z"/>
	<path fill="#010101" d="M260.9,153.4c0,0.2-0.1,0.4-0.2,0.6c-0.1,0.2-0.4,0.3-0.6,0.4c-0.2,0-0.4,0-0.6,0c-0.2,0-0.4,0-0.6-0.1
		c-0.1,0.3-0.3,0.6-0.4,1c-0.1,0.4-0.3,0.7-0.5,1.1s-0.3,0.7-0.5,1.1c-0.2,0.4-0.3,0.7-0.5,1c-0.6,1-1.2,1.5-1.9,1.5
		c-0.6,0-1.3-0.5-1.8-1.4c-0.1-0.2-0.3-0.5-0.4-0.8c-0.1-0.3-0.3-0.6-0.4-0.9c-0.2-0.6-0.3-1.2-0.4-1.9c-0.1-0.7-0.2-1.3-0.3-2
		c-0.1-0.1-0.1-0.1-0.2-0.3c0-0.1,0-0.2,0-0.3c0-0.1,0-0.2,0-0.3c0-0.1,0-0.2,0.1-0.3c0.1-0.3,0.2-0.5,0.4-0.7
		c0.2-0.2,0.4-0.2,0.6-0.2c0.2,0,0.4,0.1,0.5,0.2c0.2,0.1,0.2,0.4,0.3,0.7c0,0.3,0,0.6,0.1,0.9c0,0.4,0.1,0.7,0.1,1.1
		s0.1,0.8,0.2,1.2s0.2,0.8,0.3,1.2c0.1,0.2,0.1,0.4,0.2,0.6c0.1,0.2,0.2,0.4,0.2,0.5c0.1,0.2,0.2,0.3,0.3,0.4
		c0.1,0.1,0.2,0.1,0.2,0.1c0.1,0,0.2-0.1,0.3-0.1c0.1-0.1,0.2-0.2,0.3-0.4c0.3-0.5,0.6-1.1,0.9-1.8c0.3-0.7,0.6-1.3,0.8-2
		c-0.1-0.1-0.2-0.2-0.2-0.3c0-0.1-0.1-0.2-0.1-0.4c0-0.4,0.2-0.8,0.7-1c0.3-0.1,0.6-0.1,0.8,0c0.2,0.1,0.4,0.3,0.5,0.5
		c0.1,0,0.3,0.1,0.5,0.1c0.2,0,0.4,0,0.5,0c0.3,0,0.5,0,0.6,0.2C260.9,153,260.9,153.2,260.9,153.4z"/>
	<path fill="#010101" d="M270.9,156.8c0.1,0.2,0.1,0.4,0.1,0.6c-0.1,0.2-0.2,0.4-0.5,0.5c-0.4,0.1-0.8,0.3-1.4,0.5
		c-0.6,0.2-1.2,0.4-1.8,0.6c-0.7,0.2-1.4,0.3-2.1,0.4c-0.7,0.1-1.5,0.1-2.2,0c-0.7-0.1-1.3-0.4-1.6-0.8c-0.7-0.7-0.9-1.6-0.7-2.9
		c0.1-0.6,0.2-1.1,0.4-1.6c0.2-0.5,0.4-1,0.7-1.4c0.2-0.4,0.5-0.8,0.7-1.1s0.5-0.6,0.7-0.8c0.2-0.2,0.4-0.4,0.6-0.6
		c0.2-0.2,0.4-0.3,0.6-0.4c0.2-0.1,0.4-0.2,0.6-0.2c0.2-0.1,0.5-0.1,0.7-0.1c0.2,0,0.5,0,0.7,0c0.2,0,0.4,0.1,0.6,0.2
		c0.2,0.1,0.4,0.3,0.5,0.5c0.1,0.2,0.2,0.4,0.3,0.7c0,0.3,0.1,0.5,0,0.8c0,0.3-0.1,0.6-0.1,0.8c-0.1,0.5-0.4,1-0.8,1.4
		c-0.4,0.4-0.8,0.8-1.3,1.2c-0.5,0.3-1,0.6-1.6,0.8c-0.6,0.2-1.1,0.4-1.7,0.4c0,0.4,0,0.7,0.2,0.9c0.2,0.2,0.4,0.4,0.8,0.4
		c0.5,0.1,1.1,0.1,1.7,0s1.2-0.2,1.8-0.4c0.6-0.2,1.2-0.4,1.7-0.6c0.5-0.2,1-0.4,1.3-0.5c0.2-0.1,0.4-0.1,0.6,0
		C270.7,156.5,270.9,156.6,270.9,156.8z M266.2,152.3c0.1-0.5,0.1-0.8-0.1-0.9c-0.1-0.1-0.3-0.1-0.5-0.1c-0.2,0-0.3,0.1-0.5,0.2
		c-0.2,0.1-0.4,0.3-0.7,0.6c-0.3,0.3-0.6,0.7-0.9,1.2c-0.3,0.5-0.5,0.9-0.7,1.4c0.3-0.1,0.7-0.2,1.1-0.3c0.4-0.2,0.7-0.3,1-0.6
		s0.6-0.4,0.8-0.7C265.9,152.8,266.1,152.5,266.2,152.3z"/>
	<path fill="#010101" d="M282.7,145.3c0,0.3-0.1,0.5-0.3,0.7s-0.3,0.2-0.3,0.3c-0.7,1.1-1.4,2.3-2.2,3.5c-0.8,1.2-1.6,2.4-2.3,3.6
		c0.3,0.4,0.6,0.9,1,1.4c0.4,0.5,0.7,1,1.1,1.5c0.4,0.5,0.8,1,1.2,1.4s0.8,0.9,1.3,1.3c0.2,0.2,0.3,0.4,0.3,0.6
		c0,0.2-0.1,0.4-0.3,0.6c-0.2,0.2-0.3,0.2-0.6,0.3c-0.2,0-0.4-0.1-0.6-0.2c-0.4-0.4-0.8-0.8-1.2-1.3s-0.8-0.9-1.1-1.4
		c-0.4-0.5-0.7-0.9-1.1-1.3c-0.3-0.4-0.7-0.9-0.9-1.3c-0.8,1.2-1.5,2.4-2.2,3.5c-0.7,1.1-1.3,2-1.7,2.8c-0.2,0.4-0.4,0.7-0.6,1.1
		c-0.1,0.2-0.2,0.3-0.3,0.4c-0.1,0.1-0.3,0.1-0.4,0.1c-0.3,0-0.5-0.1-0.7-0.3c-0.2-0.2-0.2-0.5-0.2-0.8c0-0.2,0.1-0.4,0.3-0.7
		c0.1-0.2,0.2-0.5,0.4-0.7c0.2-0.3,0.4-0.7,0.7-1.2c0.3-0.5,0.6-1,1-1.7c0.4-0.6,0.8-1.3,1.2-2c0.4-0.7,0.9-1.4,1.3-2.1
		c-0.1-0.2-0.3-0.5-0.5-0.9c-0.2-0.3-0.5-0.7-0.7-1.1c-0.2-0.4-0.5-0.8-0.7-1.1c-0.3-0.4-0.5-0.7-0.7-1s-0.4-0.6-0.5-0.8
		s-0.2-0.3-0.2-0.4c-0.1-0.2-0.2-0.4-0.1-0.6s0.1-0.4,0.3-0.5c0.2-0.1,0.4-0.2,0.7-0.2c0.2,0,0.4,0.2,0.6,0.4
		c0.1,0.1,0.2,0.3,0.5,0.7s0.5,0.8,0.8,1.3s0.6,0.9,0.9,1.4c0.3,0.5,0.6,0.9,0.7,1.1c0.3-0.5,0.7-1.1,1-1.6s0.7-1.1,1.1-1.7
		c0.4-0.6,0.7-1.1,1-1.6c0.3-0.5,0.7-1,1-1.5c0.1-0.2,0.2-0.3,0.3-0.3c0.1-0.1,0.2-0.2,0.2-0.3c0.1-0.3,0.3-0.4,0.5-0.4
		c0.2,0,0.4,0,0.6,0.1c0.2,0.1,0.3,0.2,0.4,0.4C282.7,144.9,282.7,145.1,282.7,145.3z"/>
</g>
<g>
	<g>
		<path fill="#010101" d="M96.2,36.8C95.5,44,94.3,51.2,94,58.5c-0.3,6.8,0.9,13.5,2.5,20.1c2,8.4,5.4,17.5,12.7,22.7
			c9.7,6.9,23.2,6.6,34.6,6.7c15.3,0.2,30.9-1.3,46.1-2.3c11.2-0.8,24.2-1.8,34.6-6.3c10.6-4.6,8.9-16.7,8.4-26.2
			c-0.7-11.8,1.7-23.5-1.9-35c-3-9.5-11.2-14.1-20.4-16c-8.3-1.6-16.8-1.1-25.2-1.3c-12.6-0.3-25.2-0.8-37.9-0.7c-6,0-12,0.1-18,0.1
			c-5.1,0-10.4-0.5-15.4,0.7c-6.9,1.7-15.1,6.5-17.6,13.5c-0.8,2.3,2.8,3.3,3.6,1c2-5.5,8.7-8.8,13.8-10.5c6.4-2.2,14.4-0.9,21.1-1
			c15.7-0.1,31.6-0.5,47.3,0.5c10.4,0.7,20.8-0.5,31,2.2c14.1,3.7,16.3,16.9,16.3,29.6c0,5.6-0.5,11.3-0.3,16.9
			c0.3,6.3,2.2,14.6-2.1,19.9c-3.3,4-9.8,4.9-14.6,5.8c-7.5,1.3-14.9,2.5-22.5,3.1c-15.3,1.2-30.8,2.3-46.1,2.3
			c-12.3,0-27.4,0.4-36.2-9.6c-5.3-6-7-14.7-8.6-22.2c-2.5-11.9-0.2-23.7,1-35.6C100.2,34.4,96.5,34.5,96.2,36.8L96.2,36.8z"/>
	</g>
</g>
<g enable-background="new    ">
	<path fill="#010101" d="M119.7,65.1c0.2,0.2,0.2,0.4,0.2,0.6c0,0.2-0.1,0.4-0.2,0.5c-0.2,0.1-0.4,0.2-0.6,0.2
		c-0.2,0-0.4-0.1-0.6-0.4c-0.1-0.1-0.2-0.3-0.4-0.5c-0.1-0.2-0.3-0.5-0.4-0.7c-0.1-0.2-0.3-0.5-0.4-0.7c-0.1-0.2-0.2-0.5-0.3-0.6
		c0-0.1-0.1-0.2-0.2-0.3c-0.1-0.1-0.1-0.3-0.2-0.4c-1.5,0.4-2.8,0.7-4.1,1c-1.3,0.3-2.6,0.6-3.8,0.9c-0.1,0.2-0.2,0.5-0.4,0.8
		c-0.1,0.3-0.3,0.5-0.4,0.8c0,0.1,0,0.3-0.1,0.5c-0.1,0.2-0.2,0.3-0.5,0.5c-0.1,0.1-0.3,0.1-0.5,0.1c-0.2,0-0.3-0.1-0.4-0.2
		c-0.2-0.2-0.3-0.3-0.3-0.5s0-0.4,0.1-0.6c0.1-0.2,0.1-0.3,0.2-0.5c0.1-0.2,0.2-0.3,0.3-0.5c-0.3,0-0.5,0-0.7-0.1
		c-0.2-0.1-0.4-0.3-0.4-0.5c0-0.1,0-0.1,0-0.2s0.1-0.2,0.1-0.3s0.1-0.2,0.2-0.2c0.1-0.1,0.2-0.1,0.4-0.1c0.2,0,0.4-0.1,0.6-0.1
		s0.4-0.1,0.5-0.2c0.3-0.5,0.6-1.1,0.9-1.7c0.3-0.7,0.7-1.3,1-2c0.3-0.7,0.7-1.4,1-2.1c0.3-0.7,0.7-1.4,0.9-2
		c0.3-0.6,0.6-1.2,0.8-1.6c0.2-0.5,0.4-0.8,0.6-1.1c0-0.2,0.1-0.3,0.2-0.5c0.1-0.2,0.3-0.2,0.6-0.2c0.2,0,0.3,0,0.5,0.1
		c0.1,0.1,0.2,0.2,0.3,0.4c0.3,0.7,0.6,1.5,0.9,2.2c0.3,0.8,0.6,1.6,0.9,2.3c0.3,0.8,0.6,1.5,0.8,2.2c0.3,0.7,0.5,1.3,0.8,1.8
		c0.2,0,0.3-0.1,0.5-0.1c0.2,0,0.3-0.1,0.4-0.1c0.2,0,0.3,0,0.5,0.1s0.3,0.3,0.4,0.6c0,0.1,0,0.2-0.1,0.4c-0.1,0.2-0.2,0.3-0.4,0.3
		c-0.1,0-0.2,0.1-0.3,0.1c-0.1,0-0.2,0.1-0.3,0.1c0,0.1,0.1,0.2,0.1,0.3c0.1,0.1,0.1,0.2,0.2,0.3c0.1,0.1,0.2,0.3,0.3,0.5
		c0.1,0.2,0.2,0.4,0.3,0.6c0.1,0.2,0.2,0.4,0.3,0.6C119.5,64.8,119.6,65,119.7,65.1z M116,61.3c-0.5-1.1-0.9-2.3-1.3-3.4
		c-0.4-1.2-0.8-2.3-1.3-3.4c-0.3,0.6-0.6,1.2-0.9,1.9c-0.3,0.7-0.7,1.4-1,2.2c-0.3,0.7-0.7,1.5-1,2.2c-0.3,0.7-0.7,1.4-1,2
		c0.5-0.1,1-0.2,1.6-0.3c0.5-0.1,1.1-0.2,1.7-0.4c0.6-0.1,1.1-0.3,1.7-0.4C114.9,61.5,115.4,61.4,116,61.3z"/>
	<path fill="#010101" d="M135.6,63.9c-0.2,0.4-0.4,0.7-0.8,1s-0.8,0.6-1.3,0.8c-0.4,0.2-0.9,0.4-1.5,0.6c-0.5,0.2-1.1,0.2-1.7,0.2
		c-0.5,0-0.9-0.1-1.3-0.2s-0.8-0.4-1.1-0.8c-0.2-0.2-0.3-0.3-0.4-0.6c-0.1-0.2-0.2-0.4-0.3-0.6c0-0.2-0.1-0.2-0.2-0.2
		c-0.1,0-0.2,0.1-0.3,0.2c-0.2,0.2-0.4,0.4-0.7,0.6c-0.2,0.2-0.6,0.4-0.9,0.7c-0.6,0.4-1.2,0.6-1.8,0.6c-0.6,0-1.1-0.1-1.6-0.4
		c-0.3-0.2-0.5-0.4-0.7-0.7c-0.2-0.3-0.2-0.6-0.2-1c0-0.5,0.1-1,0.2-1.5c0.1-0.5,0.3-0.9,0.6-1.3c0.2-0.4,0.5-0.7,0.9-1
		c0.3-0.3,0.7-0.4,1-0.5c0.1,0,0.2,0,0.3,0c0.1,0,0.2,0,0.3,0c0.2,0,0.4,0.1,0.5,0.3c0.1,0.2,0.2,0.3,0.2,0.5c0,0.2-0.1,0.3-0.2,0.4
		c-0.1,0.1-0.2,0.2-0.4,0.2c-0.1,0-0.2,0-0.3,0c-0.1,0-0.2,0-0.2,0c-0.2,0.1-0.3,0.2-0.5,0.3c-0.2,0.2-0.3,0.4-0.4,0.6
		c-0.1,0.2-0.2,0.5-0.3,0.8c-0.1,0.3-0.1,0.6-0.1,0.9c0,0.3,0.1,0.6,0.4,0.7c0.2,0.1,0.4,0.1,0.7,0s0.5-0.2,0.8-0.3
		c0.2-0.1,0.4-0.2,0.6-0.4c0.2-0.2,0.4-0.3,0.6-0.5s0.4-0.4,0.6-0.5c0.2-0.2,0.4-0.3,0.6-0.5c0.3-0.3,0.6-0.4,0.9-0.3
		s0.5,0.2,0.6,0.4c0,0.1,0.1,0.3,0.2,0.5c0.1,0.2,0.1,0.4,0.2,0.5c0.1,0.2,0.1,0.4,0.2,0.5c0.1,0.2,0.2,0.3,0.3,0.4
		c0.2,0.2,0.4,0.4,0.6,0.4c0.2,0.1,0.5,0.1,0.8,0.2c0.4,0,0.8-0.1,1.2-0.2c0.4-0.1,0.8-0.3,1.2-0.5c0.7-0.3,1.1-0.7,1.3-1.1
		c0.1-0.2,0.2-0.4,0.1-0.7c0-0.2-0.1-0.5-0.2-0.7c-0.2-0.3-0.4-0.6-0.6-0.9s-0.5-0.6-0.7-0.9c-0.2-0.2-0.3-0.4-0.3-0.6
		c0-0.2,0.1-0.4,0.2-0.5c0.2-0.2,0.3-0.3,0.6-0.3s0.5,0.1,0.7,0.2c0.1,0.1,0.2,0.2,0.3,0.3c0.1,0.1,0.1,0.3,0.1,0.5
		c0.2,0.2,0.4,0.4,0.6,0.7c0.2,0.3,0.3,0.5,0.5,0.8c0.2,0.4,0.4,0.9,0.4,1.3C136,62.9,135.9,63.4,135.6,63.9z"/>
	<path fill="#010101" d="M145.9,63.8c0.1,0.2,0.1,0.4,0.1,0.6c-0.1,0.2-0.2,0.3-0.5,0.4c-0.3,0.1-0.7,0.3-1.2,0.5s-1,0.4-1.6,0.6
		c-0.6,0.2-1.2,0.3-1.9,0.4s-1.3,0.1-1.9,0c-0.6-0.1-1.1-0.3-1.5-0.7c-0.6-0.6-0.8-1.5-0.6-2.6c0.1-0.5,0.2-1,0.4-1.5
		s0.4-0.9,0.6-1.2s0.4-0.7,0.7-1s0.4-0.5,0.6-0.7c0.2-0.2,0.4-0.4,0.6-0.5s0.4-0.3,0.5-0.3c0.2-0.1,0.3-0.2,0.5-0.2
		c0.2-0.1,0.4-0.1,0.6-0.1s0.4,0,0.6,0s0.4,0.1,0.6,0.2c0.2,0.1,0.4,0.3,0.5,0.5c0.1,0.2,0.2,0.4,0.2,0.6c0,0.2,0.1,0.5,0,0.7
		c0,0.3-0.1,0.5-0.1,0.7c-0.1,0.5-0.4,0.9-0.7,1.3c-0.3,0.4-0.7,0.7-1.2,1c-0.5,0.3-0.9,0.6-1.5,0.8c-0.5,0.2-1,0.3-1.5,0.4
		c0,0.3,0,0.6,0.2,0.8c0.2,0.2,0.4,0.3,0.7,0.4c0.5,0.1,1,0.1,1.5,0c0.6-0.1,1.1-0.2,1.6-0.4c0.5-0.2,1.1-0.3,1.5-0.5
		c0.5-0.2,0.9-0.3,1.2-0.4c0.2-0.1,0.4-0.1,0.5,0C145.7,63.5,145.8,63.6,145.9,63.8z M141.6,59.8c0.1-0.4,0.1-0.7-0.1-0.8
		c-0.1-0.1-0.2-0.1-0.4-0.1s-0.3,0.1-0.4,0.1c-0.2,0.1-0.4,0.3-0.6,0.5c-0.3,0.3-0.6,0.6-0.8,1.1s-0.5,0.8-0.6,1.3
		c0.3-0.1,0.6-0.2,0.9-0.3c0.3-0.1,0.6-0.3,0.9-0.5c0.3-0.2,0.5-0.4,0.7-0.6C141.4,60.2,141.6,60,141.6,59.8z"/>
	<path fill="#010101" d="M151.9,58.3c-0.1,0.1-0.2,0.2-0.3,0.3c-0.1,0.1-0.3,0.1-0.5,0c-0.2-0.1-0.4-0.2-0.6-0.3
		c-0.2,0-0.4,0-0.7,0.1c-0.3,0.1-0.6,0.2-0.9,0.3c-0.3,0.1-0.7,0.3-1,0.4c-0.3,0.2-0.6,0.3-0.8,0.5c-0.4,0.2-0.5,0.5-0.6,0.7
		c0,0.2,0.2,0.4,0.5,0.5c0.4,0.2,0.8,0.4,1.2,0.6c0.4,0.2,0.8,0.4,1.3,0.8c0.3,0.3,0.5,0.6,0.7,0.9c0.1,0.4,0.2,0.7,0.2,1.1
		c0,0.4-0.1,0.8-0.2,1.1c-0.1,0.4-0.3,0.7-0.5,1c-0.4,0.5-0.8,1.1-1.3,1.5c-0.5,0.5-1.1,0.9-1.8,1.3c-0.3,0.2-0.6,0.3-1,0.3
		c-0.3,0-0.7-0.1-1-0.2c-0.3-0.2-0.5-0.3-0.5-0.6c-0.1-0.2-0.1-0.4,0-0.6c0.1-0.2,0.2-0.3,0.5-0.4c0.2-0.1,0.4,0,0.7,0.1
		c0.1,0.1,0.2,0.1,0.4,0.1c0.1,0,0.3,0,0.4-0.1c0.5-0.3,0.9-0.6,1.3-1c0.4-0.4,0.8-0.8,1-1.2c0.2-0.2,0.3-0.5,0.3-0.7
		c0.1-0.2,0.1-0.4,0.1-0.6c0-0.3-0.1-0.6-0.3-0.9c-0.3-0.2-0.6-0.5-1-0.7c-0.4-0.2-0.9-0.4-1.4-0.7c-0.5-0.2-0.8-0.4-1-0.7
		c-0.2-0.3-0.3-0.6-0.3-0.9c0-0.3,0.1-0.6,0.4-1c0.2-0.3,0.6-0.7,1.1-1c0.3-0.2,0.6-0.4,0.9-0.6c0.4-0.2,0.7-0.4,1.1-0.5
		c0.4-0.2,0.8-0.3,1.2-0.4s0.9-0.2,1.3-0.2c0.3,0,0.5,0,0.7,0.1c0.2,0.1,0.4,0.2,0.5,0.4c0.2,0.2,0.2,0.3,0.2,0.5
		C152,58,152,58.1,151.9,58.3z"/>
	<path fill="#010101" d="M160.6,61c0,0.1,0,0.2-0.1,0.3c-0.1,0.1-0.1,0.2-0.2,0.3c-0.2,0.1-0.5,0.1-0.9,0.1c0.1,0.1,0.2,0.3,0.2,0.5
		c0.1,0.2,0.1,0.4,0.1,0.7c0,0.2,0,0.5-0.1,0.8c-0.1,0.3-0.3,0.6-0.5,0.9c-0.8,0.9-1.6,1.5-2.5,1.9c-0.4,0.2-0.8,0.3-1.2,0.4
		s-0.9,0.1-1.4,0.1c-1.2,0-2.1-0.4-2.6-1.2c-0.4-0.6-0.4-1.5-0.2-2.6c0.1-0.4,0.2-0.8,0.4-1.2c0.2-0.4,0.4-0.7,0.6-1
		c0.2-0.3,0.5-0.6,0.8-0.8s0.6-0.5,0.9-0.6c0.3-0.2,0.6-0.2,0.9-0.2c0.3,0,0.6,0.1,0.9,0.4c0.1,0,0.3-0.1,0.4-0.1c0.2,0,0.3,0,0.4,0
		c0.2,0,0.5,0.1,0.7,0.2c0.3,0.1,0.5,0.2,0.6,0.4h1.7c0.2,0,0.4,0.1,0.6,0.2S160.6,60.8,160.6,61z M157.9,63.5
		c0.3-0.3,0.3-0.6,0.2-1c-0.1-0.3-0.3-0.6-0.6-0.8c-0.2,0-0.4,0-0.7,0c-0.3,0-0.5,0-0.8,0c-0.4,0-0.7-0.1-0.9-0.2
		c-0.2-0.1-0.3-0.3-0.2-0.5c-0.1,0-0.1,0-0.2,0s-0.2,0.1-0.3,0.1c-0.3,0.2-0.6,0.5-0.9,0.9c-0.3,0.4-0.5,0.9-0.6,1.4
		c-0.1,0.7-0.1,1.1,0.1,1.4c0.2,0.3,0.6,0.5,1.1,0.5c0.4,0,0.8,0,1.1-0.1c0.3-0.1,0.6-0.1,0.9-0.3c0.4-0.2,0.7-0.4,1-0.6
		C157.3,64.1,157.6,63.9,157.9,63.5z"/>
	<path fill="#010101" d="M181.4,64.3c-0.1,0.1-0.2,0.2-0.3,0.3s-0.3,0.2-0.4,0.2c-0.1,0-0.1,0-0.1,0c0,0-0.1,0-0.2,0
		c-0.2,0-0.5,0.1-0.9,0.2c-0.4,0.1-0.9,0.2-1.3,0.4c-0.5,0.2-1.1,0.3-1.7,0.2c-0.6,0-1-0.3-1.4-0.8c-0.3-0.4-0.6-0.8-0.8-1.3
		c-0.2-0.5-0.4-1.1-0.5-1.7c-0.1-0.3-0.2-0.5-0.4-0.5c-0.2,0-0.6,0.2-1.1,0.6c-0.1,0.1-0.3,0.2-0.5,0.4c-0.2,0.2-0.4,0.4-0.6,0.6
		c-0.2,0.2-0.5,0.5-0.7,0.8c-0.2,0.3-0.5,0.5-0.7,0.8c-0.1,0.1-0.2,0.2-0.4,0.3c-0.2,0.1-0.3,0.1-0.5,0.1c-0.2,0-0.3,0-0.5-0.1
		c-0.2-0.1-0.3-0.2-0.3-0.3c-0.2-0.4-0.3-0.8-0.5-1.3c-0.1-0.5-0.3-0.9-0.4-1.2c-0.1-0.2-0.2-0.2-0.5-0.2c-0.2,0-0.5,0.2-0.8,0.6
		c-0.2,0.3-0.5,0.6-0.8,0.9c-0.3,0.3-0.6,0.6-0.8,0.9c-0.2,0.2-0.4,0.5-0.7,0.9c-0.2,0.3-0.4,0.7-0.6,0.9c-0.1,0.2-0.3,0.4-0.5,0.4
		c-0.2,0-0.4,0-0.6-0.1c-0.2-0.1-0.3-0.2-0.4-0.3c-0.1-0.2-0.2-0.3-0.2-0.6c0-0.4,0-0.9-0.1-1.4c0-0.5,0-1,0-1.6s0-1,0-1.4
		s0-0.8,0-1.1c0-0.3,0.1-0.5,0.3-0.6c0.2-0.1,0.3-0.2,0.5-0.2c0.2,0,0.4,0,0.5,0.2c0.2,0.1,0.2,0.3,0.2,0.6c0,0.6,0,1.2,0,1.8
		c0,0.7,0,1.3,0,1.9c0.1-0.1,0.2-0.2,0.3-0.4c0.1-0.2,0.2-0.3,0.4-0.5c0.2-0.2,0.4-0.5,0.6-0.7c0.2-0.3,0.4-0.5,0.6-0.7
		c0.2-0.3,0.5-0.6,0.9-0.8c0.4-0.3,0.7-0.4,1.1-0.5c0.3-0.1,0.6,0,0.9,0.1c0.3,0.1,0.5,0.4,0.7,0.9c0.1,0.3,0.2,0.6,0.3,0.9
		c0.1,0.3,0.2,0.5,0.3,0.7c0,0.1,0.1,0.2,0.2,0.2c0.1,0,0.2,0,0.2-0.1c0.1-0.1,0.3-0.3,0.4-0.5c0.2-0.2,0.3-0.3,0.5-0.5
		c0.2-0.2,0.3-0.3,0.5-0.5c0.2-0.2,0.3-0.3,0.4-0.4c0.9-0.8,1.7-1.2,2.4-1.2c0.4,0,0.7,0.1,0.9,0.4c0.2,0.3,0.4,0.7,0.5,1.2
		c0.1,0.5,0.2,1,0.4,1.6c0.2,0.5,0.4,0.9,0.6,1.2c0.2,0.2,0.4,0.3,0.6,0.3c0.2,0,0.5,0,0.7-0.1c0.2-0.1,0.5-0.2,0.8-0.2
		c0.3-0.1,0.5-0.2,0.8-0.2s0.5-0.1,0.8-0.2c0.2-0.1,0.4-0.1,0.6-0.1c0.3,0,0.6,0.1,0.8,0.2C181.6,63.7,181.6,63.9,181.4,64.3z"/>
	<path fill="#010101" d="M188.9,63.8c0.1,0.2,0.1,0.4,0.1,0.6c-0.1,0.2-0.2,0.3-0.5,0.4c-0.3,0.1-0.7,0.3-1.2,0.5s-1,0.4-1.6,0.6
		c-0.6,0.2-1.2,0.3-1.9,0.4c-0.7,0.1-1.3,0.1-1.9,0c-0.6-0.1-1.1-0.3-1.5-0.7c-0.6-0.6-0.8-1.5-0.6-2.6c0.1-0.5,0.2-1,0.4-1.5
		c0.2-0.5,0.4-0.9,0.6-1.2c0.2-0.4,0.4-0.7,0.7-1c0.2-0.3,0.4-0.5,0.6-0.7c0.2-0.2,0.4-0.4,0.6-0.5c0.2-0.2,0.4-0.3,0.5-0.3
		c0.2-0.1,0.3-0.2,0.5-0.2c0.2-0.1,0.4-0.1,0.6-0.1c0.2,0,0.4,0,0.6,0c0.2,0,0.4,0.1,0.6,0.2c0.2,0.1,0.4,0.3,0.5,0.5
		c0.1,0.2,0.2,0.4,0.2,0.6c0,0.2,0.1,0.5,0,0.7c0,0.3-0.1,0.5-0.1,0.7c-0.1,0.5-0.4,0.9-0.7,1.3s-0.7,0.7-1.2,1
		c-0.5,0.3-0.9,0.6-1.5,0.8c-0.5,0.2-1,0.3-1.5,0.4c0,0.3,0,0.6,0.2,0.8c0.2,0.2,0.4,0.3,0.7,0.4c0.5,0.1,1,0.1,1.5,0
		c0.6-0.1,1.1-0.2,1.6-0.4c0.5-0.2,1.1-0.3,1.5-0.5c0.5-0.2,0.9-0.3,1.2-0.4c0.2-0.1,0.4-0.1,0.5,0
		C188.7,63.5,188.8,63.6,188.9,63.8z M184.7,59.8c0.1-0.4,0.1-0.7-0.1-0.8c-0.1-0.1-0.2-0.1-0.4-0.1c-0.2,0-0.3,0.1-0.4,0.1
		c-0.2,0.1-0.4,0.3-0.6,0.5c-0.3,0.3-0.6,0.6-0.8,1.1c-0.3,0.4-0.5,0.8-0.6,1.3c0.3-0.1,0.6-0.2,0.9-0.3s0.6-0.3,0.9-0.5
		c0.3-0.2,0.5-0.4,0.7-0.6C184.5,60.2,184.6,60,184.7,59.8z"/>
	<path fill="#010101" d="M202.6,65.1c0.2,0.2,0.2,0.4,0.2,0.6c0,0.2-0.1,0.4-0.2,0.5c-0.2,0.1-0.4,0.2-0.6,0.2
		c-0.2,0-0.4-0.1-0.6-0.4c-0.1-0.1-0.2-0.3-0.4-0.5s-0.3-0.5-0.4-0.7c-0.1-0.2-0.3-0.5-0.4-0.7c-0.1-0.2-0.2-0.5-0.3-0.6
		c0-0.1-0.1-0.2-0.2-0.3c-0.1-0.1-0.1-0.3-0.2-0.4c-1.5,0.4-2.8,0.7-4.1,1c-1.3,0.3-2.6,0.6-3.8,0.9c-0.1,0.2-0.2,0.5-0.4,0.8
		c-0.1,0.3-0.3,0.5-0.4,0.8c0,0.1,0,0.3-0.1,0.5c-0.1,0.2-0.2,0.3-0.5,0.5c-0.1,0.1-0.3,0.1-0.5,0.1c-0.2,0-0.3-0.1-0.4-0.2
		c-0.2-0.2-0.3-0.3-0.3-0.5s0-0.4,0.1-0.6c0.1-0.2,0.1-0.3,0.2-0.5c0.1-0.2,0.2-0.3,0.3-0.5c-0.3,0-0.5,0-0.7-0.1
		c-0.2-0.1-0.4-0.3-0.4-0.5c0-0.1,0-0.1,0-0.2s0.1-0.2,0.1-0.3s0.1-0.2,0.2-0.2c0.1-0.1,0.2-0.1,0.4-0.1c0.2,0,0.4-0.1,0.6-0.1
		c0.2,0,0.4-0.1,0.5-0.2c0.3-0.5,0.6-1.1,0.9-1.7c0.3-0.7,0.7-1.3,1-2c0.3-0.7,0.7-1.4,1-2.1c0.3-0.7,0.7-1.4,0.9-2
		c0.3-0.6,0.6-1.2,0.8-1.6c0.2-0.5,0.4-0.8,0.6-1.1c0-0.2,0.1-0.3,0.2-0.5c0.1-0.2,0.3-0.2,0.6-0.2c0.2,0,0.3,0,0.5,0.1
		c0.1,0.1,0.2,0.2,0.3,0.4c0.3,0.7,0.6,1.5,0.9,2.2c0.3,0.8,0.6,1.6,0.9,2.3c0.3,0.8,0.6,1.5,0.8,2.2c0.3,0.7,0.5,1.3,0.8,1.8
		c0.2,0,0.3-0.1,0.5-0.1s0.3-0.1,0.4-0.1c0.2,0,0.3,0,0.5,0.1c0.2,0.1,0.3,0.3,0.4,0.6c0,0.1,0,0.2-0.1,0.4
		c-0.1,0.2-0.2,0.3-0.4,0.3c-0.1,0-0.2,0.1-0.3,0.1c-0.1,0-0.2,0.1-0.3,0.1c0,0.1,0.1,0.2,0.1,0.3c0.1,0.1,0.1,0.2,0.2,0.3
		c0.1,0.1,0.2,0.3,0.3,0.5c0.1,0.2,0.2,0.4,0.3,0.6c0.1,0.2,0.2,0.4,0.3,0.6C202.4,64.8,202.5,65,202.6,65.1z M198.9,61.3
		c-0.5-1.1-0.9-2.3-1.3-3.4c-0.4-1.2-0.8-2.3-1.3-3.4c-0.3,0.6-0.6,1.2-0.9,1.9c-0.3,0.7-0.7,1.4-1,2.2c-0.3,0.7-0.7,1.5-1,2.2
		c-0.3,0.7-0.7,1.4-1,2c0.5-0.1,1-0.2,1.6-0.3c0.5-0.1,1.1-0.2,1.7-0.4c0.6-0.1,1.1-0.3,1.7-0.4C197.8,61.5,198.3,61.4,198.9,61.3z"
		/>
	<path fill="#010101" d="M212,61.8c0,0.4-0.1,0.8-0.4,1.2c-0.3,0.4-0.7,0.7-1.2,1c-0.1,0-0.2,0.1-0.3,0.2c-0.1,0.1-0.3,0.1-0.4,0.2
		s-0.3,0.1-0.5,0.2c-0.2,0.1-0.3,0.1-0.4,0.2c-0.1,0.1-0.3,0.2-0.5,0.3c-0.2,0.1-0.4,0.2-0.6,0.3c-0.2,0.1-0.4,0.2-0.7,0.2
		c-0.2,0.1-0.4,0.1-0.6,0.1c-0.3,0-0.5-0.1-0.7-0.2c-0.2-0.1-0.3-0.3-0.3-0.5c0-0.3,0.1-0.5,0.4-0.8c0.1-0.1,0.3-0.2,0.5-0.2
		s0.4,0,0.5,0.1c0.1,0,0.1,0,0.2-0.1s0.2-0.1,0.4-0.1c0.1-0.1,0.3-0.1,0.4-0.2s0.2-0.1,0.4-0.2c0.1-0.1,0.2-0.1,0.3-0.2
		s0.3-0.1,0.4-0.2c0.1-0.1,0.2-0.1,0.4-0.1c0.1,0,0.2-0.1,0.2-0.1c0.2-0.1,0.4-0.3,0.5-0.4c0.1-0.2,0.2-0.3,0.2-0.4
		c0-0.2-0.1-0.3-0.2-0.5c-0.2-0.2-0.4-0.3-0.6-0.4c-0.2-0.1-0.4-0.2-0.7-0.3c-0.3-0.1-0.6-0.2-1-0.3c-0.3-0.1-0.7-0.2-1.1-0.3
		c-0.4-0.1-0.7-0.2-1.1-0.2c-0.1,0.9-0.2,1.8-0.3,2.8s-0.2,2-0.2,3s-0.1,1.9-0.1,2.9c0,0.9,0,1.8,0,2.6c0.2,0.1,0.3,0.3,0.4,0.6
		c0,0.1,0,0.3-0.1,0.5s-0.2,0.3-0.3,0.5c-0.1,0.2-0.3,0.3-0.5,0.3c-0.2,0.1-0.3,0.1-0.5,0s-0.3-0.1-0.4-0.2
		c-0.1-0.1-0.2-0.3-0.2-0.5c0-0.1,0-0.2-0.1-0.4s0-0.3,0-0.5c0-1,0-2.1,0-3.1c0-1,0.1-2.1,0.1-3.1s0.1-2,0.2-2.9
		c0.1-0.9,0.1-1.8,0.2-2.6c-0.1,0-0.2,0-0.3,0s-0.2,0-0.3,0c-0.1,0-0.2,0-0.3,0c-0.1,0-0.2,0-0.3,0c-0.2-0.1-0.3-0.2-0.4-0.3
		c-0.1-0.1-0.1-0.3-0.1-0.4c0-0.2,0.1-0.4,0.2-0.6c0.2-0.2,0.4-0.3,0.7-0.2c1.5,0.1,2.8,0.3,3.9,0.6c1.2,0.3,2.2,0.7,3,1.1
		c0.6,0.3,1,0.6,1.3,1C211.9,61,212,61.4,212,61.8z"/>
	<path fill="#010101" d="M221.2,61.8c0,0.4-0.1,0.8-0.4,1.2c-0.3,0.4-0.7,0.7-1.2,1c-0.1,0-0.2,0.1-0.3,0.2
		c-0.1,0.1-0.3,0.1-0.4,0.2s-0.3,0.1-0.5,0.2c-0.2,0.1-0.3,0.1-0.4,0.2c-0.1,0.1-0.3,0.2-0.5,0.3c-0.2,0.1-0.4,0.2-0.6,0.3
		c-0.2,0.1-0.4,0.2-0.7,0.2c-0.2,0.1-0.4,0.1-0.6,0.1c-0.3,0-0.5-0.1-0.7-0.2c-0.2-0.1-0.3-0.3-0.3-0.5c0-0.3,0.1-0.5,0.4-0.8
		c0.1-0.1,0.3-0.2,0.5-0.2s0.4,0,0.5,0.1c0.1,0,0.1,0,0.2-0.1s0.2-0.1,0.4-0.1c0.1-0.1,0.3-0.1,0.4-0.2s0.2-0.1,0.4-0.2
		c0.1-0.1,0.2-0.1,0.3-0.2s0.3-0.1,0.4-0.2c0.1-0.1,0.2-0.1,0.4-0.1c0.1,0,0.2-0.1,0.2-0.1c0.2-0.1,0.4-0.3,0.5-0.4
		c0.1-0.2,0.2-0.3,0.2-0.4c0-0.2-0.1-0.3-0.2-0.5c-0.2-0.2-0.4-0.3-0.6-0.4c-0.2-0.1-0.4-0.2-0.7-0.3c-0.3-0.1-0.6-0.2-1-0.3
		c-0.3-0.1-0.7-0.2-1.1-0.3c-0.4-0.1-0.7-0.2-1.1-0.2c-0.1,0.9-0.2,1.8-0.3,2.8s-0.2,2-0.2,3s-0.1,1.9-0.1,2.9c0,0.9,0,1.8,0,2.6
		c0.2,0.1,0.3,0.3,0.4,0.6c0,0.1,0,0.3-0.1,0.5s-0.2,0.3-0.3,0.5c-0.1,0.2-0.3,0.3-0.5,0.3c-0.2,0.1-0.3,0.1-0.5,0s-0.3-0.1-0.4-0.2
		c-0.1-0.1-0.2-0.3-0.2-0.5c0-0.1,0-0.2-0.1-0.4s0-0.3,0-0.5c0-1,0-2.1,0-3.1c0-1,0.1-2.1,0.1-3.1s0.1-2,0.2-2.9
		c0.1-0.9,0.1-1.8,0.2-2.6c-0.1,0-0.2,0-0.3,0s-0.2,0-0.3,0c-0.1,0-0.2,0-0.3,0c-0.1,0-0.2,0-0.3,0c-0.2-0.1-0.3-0.2-0.4-0.3
		c-0.1-0.1-0.1-0.3-0.1-0.4c0-0.2,0.1-0.4,0.2-0.6c0.2-0.2,0.4-0.3,0.7-0.2c1.5,0.1,2.8,0.3,3.9,0.6c1.2,0.3,2.2,0.7,3,1.1
		c0.6,0.3,1,0.6,1.3,1C221,61,221.2,61.4,221.2,61.8z"/>
</g>
<g>
	<g>
		<path fill="#010101" d="M7.1,214.9c-0.9,7.2-2.3,14.2-1.9,21.5c0.3,5.4,1.9,11.1,3.8,16.2c3.1,8.3,9.1,13.8,17.5,16.3
			c5.9,1.7,12.6,1.7,18.7,2c7.9,0.3,15.7-0.1,23.6-0.6c14.6-0.9,29-1.2,43.4-3.4c9.6-1.5,19.2-3.3,20.1-14.6
			c0.4-5.3-0.6-10.8-0.4-16.2c0.2-6,0.4-12-1.1-17.8c-2.5-10-11.6-14-20.9-15.3c-11.1-1.6-23-1.1-34.2-1.4c-14.8-0.4-29.7,0-44.5,0
			c-8,0-20.2,2.5-23.8,10.9c-0.9,2.2,2.3,4.1,3.2,1.9c2.1-4.9,8.6-7.3,13.3-8.5c6.5-1.8,14.6-0.5,21.3-0.6
			c14.9-0.1,29.8,0.3,44.7,0.6c10.4,0.2,23.8-1.4,32.6,5.6c9.5,7.5,4.9,24.7,5.8,35.1c0.3,3.1,0.4,6.1-0.4,9.2
			c-0.9,3.5-4.7,4.9-7.8,5.8c-6.2,1.9-13.4,2.5-19.8,3.2c-15.1,1.6-30.8,2.1-46,2.4c-12,0.2-28.6,1.4-37.5-8.3
			c-8.4-9.2-8.7-24.9-7-36.3c0.4-2.6,0.7-5.1,1-7.7C11.1,212.5,7.4,212.5,7.1,214.9L7.1,214.9z"/>
	</g>
</g>
<g enable-background="new    ">
	<path fill="#010101" d="M41.9,228.2c-0.2,0.3-0.4,0.4-0.8,0.4c-0.2,0-0.3,0-0.5-0.1c-0.2-0.1-0.4-0.2-0.5-0.3c-0.3,0-0.8,0-1.3,0
		c-0.6,0-1.3,0-2,0.1c-0.8,0-1.6,0-2.5,0c-0.9,0-1.9,0-2.8,0c0,0.6,0,1.2,0.1,1.9s0.1,1.2,0.1,1.8c0.4,0,0.9,0,1.5-0.1
		c0.6,0,1.2-0.1,1.8-0.1c0.6-0.1,1.2-0.1,1.8-0.2c0.6-0.1,1-0.1,1.4-0.2c0.3,0,0.6-0.1,0.9-0.3c0.2-0.1,0.4-0.2,0.6-0.1
		s0.3,0.1,0.5,0.3c0.2,0.2,0.2,0.4,0.2,0.7c0,0.3-0.1,0.5-0.4,0.7c-0.2,0.1-0.4,0.2-0.7,0.3c-0.3,0.1-0.6,0.1-0.9,0.2
		c-0.4,0.1-0.9,0.1-1.5,0.2c-0.6,0.1-1.1,0.1-1.7,0.1c-0.6,0-1.2,0.1-1.8,0.1c-0.6,0-1.2,0.1-1.7,0.1c0,0.4,0,1,0.1,1.6
		s0.1,1.3,0.1,2c0,0.7,0.1,1.4,0.1,2.1c0,0.7,0.1,1.3,0.1,1.9c0,0.3,0,0.5-0.2,0.6c-0.2,0.1-0.4,0.2-0.6,0.2c-0.2,0-0.4-0.1-0.6-0.2
		c-0.2-0.1-0.3-0.3-0.3-0.6c0-0.6-0.1-1.2-0.1-1.9c0-0.7-0.1-1.3-0.1-2c0-0.7-0.1-1.3-0.1-1.9s0-1.2,0-1.7c-0.2,0-0.5-0.1-0.7-0.1
		c-0.2-0.1-0.3-0.2-0.4-0.3s-0.1-0.3-0.2-0.4c0-0.1,0-0.2,0.1-0.4c0.1-0.1,0.2-0.2,0.3-0.3c0.1,0,0.3-0.1,0.4-0.1
		c0.1,0,0.3-0.1,0.4-0.1c0-0.4,0-1-0.1-1.7c0-0.7-0.1-1.4-0.1-2c-0.1,0-0.3,0-0.5,0c-0.2,0-0.4,0-0.6,0c-0.2,0.2-0.5,0.3-1,0.1
		c-0.3-0.1-0.6-0.3-0.7-0.5s-0.2-0.4-0.3-0.6c0-0.2,0.1-0.5,0.3-0.6s0.5-0.2,0.9-0.2c0.8,0.1,1.8,0.1,2.9,0.1c1.1,0,2.3,0,3.5,0
		c1.2,0,2.3,0,3.3-0.1c1.1,0,1.9,0,2.6,0c0.3,0,0.7,0,1,0.1c0.3,0.1,0.5,0.2,0.6,0.3c0.2,0.2,0.3,0.5,0.3,0.7
		C42,227.9,42,228.1,41.9,228.2z"/>
	<path fill="#010101" d="M50.2,238.4c0.1,0.2,0.1,0.4,0.1,0.6c-0.1,0.2-0.2,0.4-0.5,0.5c-0.4,0.1-0.8,0.3-1.4,0.5
		c-0.6,0.2-1.2,0.4-1.8,0.6c-0.7,0.2-1.4,0.3-2.1,0.4c-0.7,0.1-1.5,0.1-2.2,0c-0.7-0.1-1.3-0.4-1.6-0.8c-0.7-0.7-0.9-1.6-0.7-2.9
		c0.1-0.6,0.2-1.1,0.4-1.6c0.2-0.5,0.4-1,0.7-1.4c0.2-0.4,0.5-0.8,0.7-1.1s0.5-0.6,0.7-0.8c0.2-0.2,0.4-0.4,0.6-0.6
		c0.2-0.2,0.4-0.3,0.6-0.4c0.2-0.1,0.4-0.2,0.6-0.2c0.2-0.1,0.5-0.1,0.7-0.1c0.2,0,0.5,0,0.7,0c0.2,0,0.4,0.1,0.6,0.2
		c0.2,0.1,0.4,0.3,0.5,0.5c0.1,0.2,0.2,0.4,0.3,0.7s0.1,0.5,0,0.8c0,0.3-0.1,0.6-0.1,0.8c-0.1,0.5-0.4,1-0.8,1.4
		c-0.4,0.4-0.8,0.8-1.3,1.2c-0.5,0.3-1.1,0.6-1.6,0.8c-0.6,0.2-1.1,0.4-1.7,0.4c0,0.4,0,0.7,0.2,0.9c0.2,0.2,0.4,0.4,0.8,0.4
		c0.5,0.1,1.1,0.1,1.7,0c0.6-0.1,1.2-0.2,1.8-0.4c0.6-0.2,1.2-0.4,1.7-0.6c0.5-0.2,1-0.4,1.3-0.5c0.2-0.1,0.4-0.1,0.6,0
		C50,238.1,50.1,238.3,50.2,238.4z M45.5,233.9c0.1-0.5,0.1-0.8-0.1-0.9c-0.1-0.1-0.3-0.1-0.5-0.1c-0.2,0-0.3,0.1-0.5,0.2
		c-0.2,0.1-0.4,0.3-0.7,0.6c-0.3,0.3-0.6,0.7-0.9,1.2c-0.3,0.5-0.5,0.9-0.7,1.4c0.3-0.1,0.7-0.2,1.1-0.3c0.4-0.2,0.7-0.3,1-0.6
		c0.3-0.2,0.6-0.4,0.8-0.7C45.2,234.5,45.4,234.2,45.5,233.9z"/>
	<path fill="#010101" d="M62.2,238.3c0.2,0.2,0.2,0.4,0.2,0.7c0,0.3-0.2,0.5-0.4,0.6c-0.5,0.3-1.1,0.6-1.8,0.8
		c-0.7,0.2-1.3,0.4-1.9,0.4c-0.7,0.1-1.2,0-1.6-0.1s-0.7-0.4-0.9-0.8c-0.1-0.1-0.2-0.3-0.3-0.6c-0.1-0.3-0.1-0.5-0.1-0.7
		c0-0.1-0.1-0.2-0.2-0.2c-0.1,0-0.2,0-0.3,0.1c-0.2,0.1-0.4,0.3-0.6,0.4s-0.5,0.4-0.8,0.6c-0.3,0.2-0.5,0.5-0.8,0.7
		c-0.3,0.2-0.5,0.5-0.8,0.7c-0.6,0.4-1.1,0.7-1.6,0.7c-0.5,0-0.9-0.1-1.2-0.4c-0.4-0.4-0.6-0.9-0.6-1.6c0-0.3,0.1-0.7,0.2-1
		c0.1-0.3,0.2-0.6,0.4-1c0.2-0.5,0.5-0.9,0.9-1.4c0.3-0.4,0.7-0.9,1.1-1.3c0.4-0.4,0.8-0.7,1.1-1.1c0.4-0.3,0.7-0.6,1.1-0.8
		c0.3-0.2,0.6-0.4,0.9-0.6c0.4-0.2,0.7-0.4,1.1-0.5s0.8-0.1,1.3-0.1c0.4,0.1,0.9,0.3,1.3,0.6c0.2,0.2,0.3,0.4,0.3,0.6
		c0,0.2,0,0.4-0.1,0.6c-0.1,0.2-0.3,0.4-0.6,0.4c-0.3,0.1-0.5,0-0.8-0.1c-0.4-0.3-0.7-0.4-1.2-0.3c-0.4,0.1-0.9,0.3-1.5,0.7
		c-0.3,0.2-0.6,0.4-0.9,0.7c-0.3,0.3-0.7,0.6-1,1c-0.3,0.4-0.6,0.7-0.9,1.1s-0.5,0.7-0.7,1.1c-0.1,0.2-0.2,0.4-0.2,0.7
		c0,0.3,0,0.4,0.1,0.5c0.2,0.1,0.4,0.1,0.7-0.2c0.2-0.2,0.5-0.4,0.9-0.7c0.3-0.3,0.7-0.6,1.1-0.9c0.4-0.3,0.7-0.6,1.1-0.9
		c0.4-0.3,0.7-0.5,1-0.7c0.2-0.1,0.5-0.2,0.7-0.3s0.4-0.1,0.6,0c0.2,0,0.3,0.1,0.4,0.3c0.1,0.2,0.2,0.4,0.2,0.6c0,0.3,0,0.6,0,0.9
		s0.1,0.5,0.1,0.7c0.1,0.3,0.2,0.4,0.4,0.5c0.2,0.1,0.4,0.1,0.6,0.1c0.2,0,0.4-0.1,0.7-0.1c0.3-0.1,0.5-0.1,0.8-0.2s0.5-0.2,0.8-0.3
		s0.5-0.2,0.7-0.3c0.2-0.1,0.4-0.1,0.6-0.1S62.1,238.2,62.2,238.3z"/>
	<path fill="#010101" d="M68.6,234.2c0,0.2-0.1,0.4-0.2,0.5S68,235,67.7,235c-0.3,0-0.8,0-1.5,0c-0.6,0-1.3,0-1.9,0
		c0,0.4,0,0.9,0,1.3s0.1,0.9,0.1,1.4c0.1,0.4,0.1,0.9,0.2,1.3c0.1,0.4,0.1,0.7,0.2,1c0.1,0.3,0,0.5-0.1,0.7
		c-0.1,0.2-0.3,0.3-0.5,0.3c-0.2,0.1-0.4,0-0.7-0.1s-0.4-0.3-0.5-0.7c-0.2-0.7-0.3-1.5-0.4-2.4s-0.2-1.9-0.2-2.9H61
		c-0.3,0-0.5-0.1-0.6-0.2c-0.1-0.2-0.2-0.4-0.2-0.6s0.1-0.4,0.2-0.6c0.1-0.2,0.4-0.3,0.6-0.3c0.2,0,0.4,0,0.7,0c0.3,0,0.6,0,0.9,0
		c0-0.5,0-1,0.1-1.6c0-0.6,0.1-1.3,0.2-1.9c0.1-0.7,0.2-1.3,0.3-2c0.1-0.7,0.2-1.3,0.4-1.9c-0.2-0.1-0.2-0.2-0.2-0.4
		c0-0.1,0.1-0.2,0.2-0.4c0.1-0.1,0.2-0.3,0.3-0.4c0-0.1,0.1-0.2,0.1-0.2s0.1-0.2,0.1-0.2c0.1-0.2,0.3-0.4,0.5-0.4s0.4,0,0.6,0.1
		c0.2,0.1,0.3,0.2,0.4,0.4c0.1,0.2,0.2,0.4,0.1,0.6c0,0.2,0,0.3-0.1,0.4c-0.1,0.1-0.1,0.2-0.2,0.4c-0.1,0.5-0.3,1.1-0.4,1.7
		c-0.1,0.7-0.2,1.3-0.3,2c-0.1,0.7-0.2,1.4-0.2,2.1c-0.1,0.7-0.1,1.3-0.1,1.9c0.2,0,0.4,0,0.7,0c0.3,0,0.6,0,0.9,0
		c0.3,0,0.7,0,1,0.1c0.3,0,0.6,0,0.8,0.1c0.2,0,0.4,0.1,0.5,0.3C68.5,233.9,68.6,234,68.6,234.2z"/>
	<path fill="#010101" d="M83.5,238.5c0.1,0.2,0.1,0.4,0.1,0.6c0,0.2-0.2,0.4-0.4,0.6c-0.4,0.2-0.8,0.4-1.3,0.6s-1.1,0.3-1.7,0.4
		c-0.5,0.1-1.1,0-1.6-0.1c-0.5-0.2-0.9-0.4-1.2-0.9c-0.1-0.2-0.2-0.4-0.3-0.7c-0.1-0.2-0.1-0.5-0.1-0.9c-0.3,0.4-0.7,0.8-1.1,1.3
		c-0.4,0.4-0.9,0.8-1.3,1c-0.6,0.4-1.2,0.7-1.8,0.8c-0.6,0.1-1.2,0.1-1.7,0c-0.4-0.1-0.8-0.3-1.1-0.6c-0.3-0.3-0.6-0.7-0.7-1.1
		c-0.1-0.4-0.2-0.9-0.2-1.4c0-0.5,0-1,0-1.6s0.1-1,0.2-1.4c0.1-0.4,0.2-0.8,0.3-1.1c0.1-0.2,0.2-0.4,0.4-0.5
		c0.2-0.1,0.4-0.2,0.6-0.2c0.2,0,0.4,0.1,0.6,0.3c0.2,0.2,0.2,0.4,0.1,0.7c-0.1,0.3-0.2,0.7-0.3,1.1c-0.1,0.4-0.1,0.8-0.2,1.2
		s-0.1,0.8,0,1.2c0,0.4,0.1,0.7,0.1,0.9c0.1,0.4,0.4,0.6,0.7,0.8c0.3,0.1,0.6,0.1,0.9,0c0.4-0.1,0.7-0.2,1.1-0.5
		c0.9-0.6,1.6-1.4,2.2-2.2c0.6-0.8,1-1.6,1.3-2.3c0.1-0.2,0.2-0.4,0.4-0.4c0.2-0.1,0.4-0.1,0.6-0.1c0.2,0.1,0.4,0.2,0.5,0.3
		s0.2,0.4,0.1,0.6c-0.2,0.7-0.3,1.3-0.3,1.8s0,1,0.2,1.4c0.1,0.3,0.3,0.5,0.5,0.6c0.2,0.1,0.5,0.1,0.8,0.1c0.4,0,0.9-0.1,1.3-0.3
		s0.8-0.3,1.1-0.5c0.3-0.2,0.5-0.2,0.7-0.1C83.2,238.1,83.4,238.3,83.5,238.5z"/>
	<path fill="#010101" d="M91.3,235.5c-0.1,0.2-0.2,0.3-0.4,0.3c-0.2,0.1-0.4,0-0.6-0.1c-0.2-0.1-0.3-0.1-0.4-0.1c-0.1,0-0.3,0-0.4,0
		c-0.2,0-0.5,0.1-0.9,0.2c-0.3,0.1-0.7,0.2-1,0.4c-0.4,0.2-0.7,0.3-1.1,0.5c-0.4,0.2-0.7,0.4-1,0.6c-0.3,0.2-0.5,0.3-0.7,0.5
		c-0.2,0.2-0.3,0.3-0.4,0.5c-0.1,0.2-0.2,0.4-0.3,0.6c0,0.2-0.1,0.4-0.1,0.6c0,0.3-0.1,0.5-0.3,0.6c-0.2,0.1-0.3,0.2-0.6,0.2
		c-0.2,0-0.4-0.1-0.6-0.2c-0.2-0.2-0.3-0.4-0.3-0.7c0-0.3,0-0.6,0-1c0-0.4,0-0.8,0-1.2c0-0.4,0-0.8,0-1.1s0-0.7,0.1-1
		c-0.1,0-0.2-0.1-0.2-0.2c0-0.1,0-0.2,0.1-0.3c0.1-0.1,0.2-0.3,0.2-0.4c0.1-0.1,0.1-0.3,0.2-0.4c0.1-0.2,0.2-0.3,0.4-0.4
		c0.2-0.1,0.4-0.1,0.6,0c0.2,0.1,0.3,0.2,0.4,0.3s0.2,0.3,0.1,0.5c0,0.1-0.1,0.3-0.1,0.5c0,0.2-0.1,0.4-0.1,0.6s0,0.4,0,0.6
		c0,0.2,0,0.4,0,0.5c0.1-0.1,0.2-0.2,0.3-0.3c0.1-0.1,0.2-0.2,0.3-0.3c0.3-0.2,0.7-0.5,1.2-0.7c0.4-0.2,0.9-0.4,1.4-0.6
		c0.5-0.2,0.9-0.3,1.4-0.5c0.5-0.1,0.9-0.2,1.2-0.2c0.3,0,0.6,0,0.8,0.1c0.2,0.1,0.4,0.2,0.6,0.3c0.2,0.2,0.3,0.4,0.3,0.6
		C91.4,235.1,91.4,235.4,91.3,235.5z"/>
	<path fill="#010101" d="M101.8,238.4c0.1,0.2,0.1,0.4,0.1,0.6c-0.1,0.2-0.2,0.4-0.5,0.5c-0.4,0.1-0.8,0.3-1.4,0.5
		c-0.6,0.2-1.2,0.4-1.8,0.6c-0.7,0.2-1.4,0.3-2.1,0.4c-0.7,0.1-1.5,0.1-2.2,0c-0.7-0.1-1.3-0.4-1.6-0.8c-0.7-0.7-0.9-1.6-0.7-2.9
		c0.1-0.6,0.2-1.1,0.4-1.6c0.2-0.5,0.4-1,0.7-1.4c0.2-0.4,0.5-0.8,0.7-1.1s0.5-0.6,0.7-0.8c0.2-0.2,0.4-0.4,0.6-0.6
		c0.2-0.2,0.4-0.3,0.6-0.4c0.2-0.1,0.4-0.2,0.6-0.2c0.2-0.1,0.5-0.1,0.7-0.1c0.2,0,0.5,0,0.7,0c0.2,0,0.4,0.1,0.6,0.2
		c0.2,0.1,0.4,0.3,0.5,0.5c0.1,0.2,0.2,0.4,0.3,0.7s0.1,0.5,0,0.8c0,0.3-0.1,0.6-0.1,0.8c-0.1,0.5-0.4,1-0.8,1.4
		c-0.4,0.4-0.8,0.8-1.3,1.2c-0.5,0.3-1.1,0.6-1.6,0.8c-0.6,0.2-1.1,0.4-1.7,0.4c0,0.4,0,0.7,0.2,0.9c0.2,0.2,0.4,0.4,0.8,0.4
		c0.5,0.1,1.1,0.1,1.7,0c0.6-0.1,1.2-0.2,1.8-0.4c0.6-0.2,1.2-0.4,1.7-0.6c0.5-0.2,1-0.4,1.3-0.5c0.2-0.1,0.4-0.1,0.6,0
		C101.6,238.1,101.8,238.3,101.8,238.4z M97.1,233.9c0.1-0.5,0.1-0.8-0.1-0.9c-0.1-0.1-0.3-0.1-0.5-0.1c-0.2,0-0.3,0.1-0.5,0.2
		c-0.2,0.1-0.4,0.3-0.7,0.6c-0.3,0.3-0.6,0.7-0.9,1.2c-0.3,0.5-0.5,0.9-0.7,1.4c0.3-0.1,0.7-0.2,1.1-0.3c0.4-0.2,0.7-0.3,1-0.6
		c0.3-0.2,0.6-0.4,0.8-0.7C96.8,234.5,97,234.2,97.1,233.9z"/>
	<path fill="#010101" d="M116.5,237.8c0,0.6-0.1,1.2-0.4,1.9c-0.3,0.6-0.7,1.3-1.4,1.9c-0.5,0.5-1,0.9-1.6,1.3
		c-0.6,0.4-1.2,0.8-1.9,1.2s-1.3,0.7-2,1c-0.7,0.3-1.4,0.5-2,0.7c-0.4,0.1-0.8,0.1-1.2,0.1s-0.7-0.2-1-0.4c-0.2-0.2-0.3-0.4-0.3-0.7
		c0-0.2,0.1-0.4,0.3-0.6c0.1-0.1,0.3-0.2,0.4-0.3s0.4,0,0.5,0.1c0.1,0.1,0.2,0.1,0.4,0.1c0.2,0,0.3,0,0.5-0.1c0.5-0.1,1-0.3,1.6-0.5
		c0.6-0.2,1.2-0.5,1.8-0.8c0.6-0.3,1.2-0.7,1.7-1.1c0.6-0.4,1-0.8,1.4-1.2c0.8-0.9,1.2-1.7,1.2-2.4c0-0.4-0.1-0.8-0.4-1.1
		s-0.6-0.7-1.1-1.1c-0.2-0.1-0.4-0.2-0.6-0.3c-0.3-0.1-0.6-0.2-0.9-0.2c-0.3-0.1-0.7-0.1-1-0.1c-0.4,0-0.7,0-1,0
		c-0.4,0-0.7-0.1-0.9-0.2c-0.2-0.1-0.4-0.4-0.6-0.7c-0.1-0.2-0.1-0.5-0.1-0.7c0.1-0.3,0.2-0.5,0.5-0.6c0.5-0.4,1.1-0.7,1.7-1
		c0.6-0.3,1.2-0.7,1.9-1.1c0.5-0.4,0.7-0.7,0.6-1c-0.1-0.2-0.4-0.4-1-0.5c-0.3,0-0.6-0.1-1.1-0.1c-0.4-0.1-0.9-0.1-1.4-0.2
		c-0.5-0.1-1-0.1-1.5-0.2c-0.5-0.1-1-0.2-1.5-0.2c0,0.7,0,1.5-0.1,2.3c0,0.8-0.1,1.7-0.1,2.6c0,0.9-0.1,1.7-0.1,2.5s0,1.6,0,2.2
		c0,0.4,0.2,0.6,0.5,0.8c0.3,0.2,0.4,0.4,0.5,0.6c0,0.2,0,0.4-0.1,0.6c-0.1,0.2-0.3,0.3-0.5,0.4c-0.2,0.1-0.4,0.1-0.7,0
		c-0.3-0.1-0.7-0.4-1-0.7c-0.3-0.3-0.5-0.8-0.5-1.4c0-0.7-0.1-1.5,0-2.4c0-0.9,0-1.8,0.1-2.7c0-0.9,0.1-1.8,0.1-2.7
		c0-0.9,0.1-1.7,0.1-2.4c-0.4-0.1-0.7-0.1-1-0.2c-0.3-0.1-0.7-0.2-1-0.3c-0.3-0.1-0.6-0.2-0.9-0.3s-0.5-0.2-0.7-0.3
		c-0.3-0.2-0.4-0.3-0.4-0.6c0-0.2,0-0.4,0.2-0.6c0.1-0.2,0.3-0.3,0.5-0.4c0.2-0.1,0.4,0,0.7,0.1c0.2,0.1,0.5,0.2,0.9,0.4
		s0.8,0.2,1.3,0.3c0.5,0.1,1.1,0.2,1.7,0.3c0.6,0.1,1.2,0.2,1.9,0.3c0.8,0.1,1.6,0.2,2.3,0.3c0.7,0.1,1.4,0.2,2,0.2
		c0.8,0.1,1.5,0.3,2,0.6c0.5,0.3,0.8,0.6,0.9,1c0.1,0.4,0.1,0.8-0.1,1.3c-0.2,0.5-0.6,0.9-1.2,1.3c-0.5,0.3-0.9,0.6-1.2,0.8
		s-0.7,0.4-1.1,0.6c-0.1,0.1-0.2,0.2-0.2,0.3c0,0.1,0.1,0.2,0.3,0.2c0.2,0,0.4,0,0.7,0.1c0.3,0,0.5,0.1,0.8,0.1s0.5,0.1,0.8,0.2
		c0.3,0.1,0.5,0.2,0.7,0.3c0.7,0.4,1.2,1,1.6,1.5C116.3,236.4,116.5,237.1,116.5,237.8z"/>
</g>
<g enable-background="new    ">
	<path fill="#010101" d="M196.1,241.5c0.1,0.4-0.1,0.9-0.4,1.5c-0.3,0.6-0.7,1.1-1.2,1.7c-0.5,0.6-1,1.1-1.6,1.6
		c-0.6,0.5-1.1,0.9-1.6,1.3c-0.8,0.5-1.6,1-2.5,1.5s-1.8,1-2.7,1.5c-0.3,0.1-0.5,0.2-0.7,0.1c-0.2-0.1-0.4-0.2-0.5-0.4
		c-0.1-0.2-0.1-0.4-0.1-0.7c0.1-0.2,0.2-0.4,0.5-0.6c1-0.5,1.9-1,2.7-1.5c0.9-0.5,1.6-0.9,2.3-1.4c0.4-0.3,0.8-0.6,1.3-1
		s0.9-0.8,1.3-1.3c0.4-0.4,0.7-0.9,1-1.3c0.3-0.4,0.4-0.8,0.4-1.1c0-0.5-0.2-0.9-0.5-1.3c-0.3-0.4-0.9-0.9-1.6-1.3
		c-0.4-0.2-0.8-0.5-1.3-0.8s-1.1-0.6-1.6-1c-0.6-0.3-1.2-0.7-1.8-1c-0.6-0.3-1.2-0.6-1.7-0.9c-0.1,1.2-0.2,2.3-0.3,3.6
		s-0.2,2.4-0.3,3.4c-0.1,1.1-0.2,2-0.2,2.7c-0.1,0.8-0.1,1.3-0.1,1.6c0,0.2,0.1,0.4,0.2,0.6c0.1,0.2,0.2,0.4,0.3,0.6
		c0.1,0.2,0.1,0.4,0,0.6s-0.2,0.3-0.4,0.4c-0.2,0.1-0.4,0.1-0.7,0c-0.2-0.1-0.4-0.2-0.6-0.5c-0.1-0.2-0.2-0.4-0.3-0.7
		c-0.1-0.3-0.2-0.6-0.2-1c0-0.2,0-0.6,0-1.1c0-0.5,0.1-1,0.1-1.7c0.1-0.6,0.1-1.3,0.2-2.1s0.1-1.6,0.2-2.4c0.1-0.8,0.2-1.6,0.2-2.5
		c0.1-0.8,0.1-1.6,0.2-2.4c-0.1-0.1-0.3-0.2-0.4-0.2c-0.2-0.1-0.3-0.1-0.4-0.2c-0.2,0-0.3,0-0.5-0.1c-0.2-0.1-0.3-0.2-0.4-0.4
		c-0.1-0.2-0.2-0.4-0.2-0.6c0-0.2,0.1-0.3,0.2-0.5c0.1-0.2,0.3-0.3,0.6-0.3c0.2-0.1,0.5,0,0.8,0.1c0.9,0.5,1.9,1,2.8,1.5
		c0.9,0.5,1.8,1,2.7,1.5c0.8,0.5,1.6,0.9,2.3,1.3s1.2,0.7,1.6,1C195.1,238.6,196.1,240,196.1,241.5z"/>
	<path fill="#010101" d="M206.2,246.4c0,0.2,0,0.4-0.2,0.6c-0.1,0.2-0.3,0.3-0.7,0.3c-0.2,0-0.5,0.1-0.9,0.2
		c-0.4,0.1-0.8,0.2-1.2,0.4c-0.4,0.2-0.9,0.3-1.3,0.4c-0.4,0.1-0.8,0.3-1.1,0.3c-1,0.2-1.7,0.2-2.3,0c-0.5-0.2-0.9-0.8-1.2-1.7
		c-0.1-0.3-0.1-0.6-0.1-1c0-0.4,0-0.7,0-1c0-0.4,0.1-0.8,0.2-1.2c0.1-0.4,0.2-0.7,0.3-1c-0.1,0-0.1-0.1-0.1-0.2s0-0.2,0-0.3
		c0.1-0.1,0.2-0.3,0.3-0.5c0.1-0.2,0.2-0.4,0.4-0.5c0.2-0.1,0.3-0.2,0.5-0.2c0.2,0,0.4,0,0.5,0.1c0.2,0.1,0.4,0.2,0.5,0.4
		c0.1,0.2,0.1,0.3,0,0.5c-0.2,0.3-0.3,0.8-0.5,1.3c-0.2,0.6-0.3,1.1-0.3,1.6c0,0.3,0,0.6,0,0.8c0,0.2,0,0.5,0.1,0.6
		c0.1,0.3,0.2,0.5,0.4,0.6c0.2,0.1,0.5,0.1,0.9,0c0.3,0,0.6-0.1,1-0.3c0.4-0.2,0.8-0.3,1.3-0.5c0.5-0.2,0.9-0.3,1.3-0.5
		c0.4-0.1,0.8-0.2,1.1-0.2c0.3,0,0.5,0.1,0.7,0.3C206.1,246,206.2,246.2,206.2,246.4z M201.7,236.1c0.2,0.1,0.3,0.3,0.4,0.5
		c0.1,0.2,0.1,0.4,0.1,0.6c0,0.2,0,0.4-0.1,0.6c-0.1,0.2-0.2,0.4-0.4,0.5c-0.3,0.2-0.6,0.3-0.9,0.3c-0.3,0-0.6-0.2-0.9-0.4
		c-0.3-0.3-0.4-0.6-0.4-1c0-0.4,0.2-0.7,0.6-1c0.2-0.2,0.5-0.3,0.8-0.3C201.2,235.8,201.5,235.9,201.7,236.1z"/>
	<path fill="#010101" d="M213.8,243.2c-0.1,0.2-0.2,0.3-0.4,0.3c-0.2,0.1-0.4,0-0.6-0.1c-0.2-0.1-0.3-0.1-0.4-0.1
		c-0.1,0-0.3,0-0.4,0c-0.2,0-0.5,0.1-0.9,0.2c-0.3,0.1-0.7,0.2-1,0.4s-0.7,0.3-1.1,0.5s-0.7,0.4-1,0.6c-0.3,0.2-0.5,0.3-0.7,0.5
		c-0.2,0.2-0.3,0.3-0.4,0.5c-0.1,0.2-0.2,0.4-0.3,0.6c0,0.2-0.1,0.4-0.1,0.6c0,0.3-0.1,0.5-0.3,0.6c-0.2,0.1-0.3,0.2-0.6,0.2
		c-0.2,0-0.4-0.1-0.6-0.2c-0.2-0.2-0.3-0.4-0.3-0.7c0-0.3,0-0.6,0-1c0-0.4,0-0.8,0-1.2c0-0.4,0-0.8,0-1.1c0-0.4,0-0.7,0.1-1
		c-0.1,0-0.2-0.1-0.2-0.2c0-0.1,0-0.2,0.1-0.3c0.1-0.1,0.2-0.3,0.2-0.4c0.1-0.1,0.1-0.3,0.2-0.4c0.1-0.2,0.2-0.3,0.4-0.4
		c0.2-0.1,0.4-0.1,0.6,0c0.2,0.1,0.3,0.2,0.4,0.3c0.1,0.1,0.2,0.3,0.1,0.5c0,0.1-0.1,0.3-0.1,0.5c0,0.2-0.1,0.4-0.1,0.6
		c0,0.2,0,0.4,0,0.6c0,0.2,0,0.4,0,0.5c0.1-0.1,0.2-0.2,0.3-0.3c0.1-0.1,0.2-0.2,0.3-0.3c0.3-0.2,0.7-0.5,1.2-0.7
		c0.4-0.2,0.9-0.4,1.4-0.6c0.5-0.2,0.9-0.3,1.4-0.5c0.5-0.1,0.9-0.2,1.2-0.2c0.3,0,0.6,0,0.8,0.1c0.2,0.1,0.4,0.2,0.6,0.3
		c0.2,0.2,0.3,0.4,0.3,0.6C213.9,242.8,213.9,243,213.8,243.2z"/>
	<path fill="#010101" d="M224.3,246.1c0.1,0.2,0.1,0.4,0.1,0.6c-0.1,0.2-0.2,0.4-0.5,0.5c-0.4,0.1-0.8,0.3-1.4,0.5
		c-0.6,0.2-1.2,0.4-1.8,0.6c-0.7,0.2-1.4,0.3-2.1,0.4c-0.7,0.1-1.5,0.1-2.2,0c-0.7-0.1-1.3-0.4-1.6-0.8c-0.7-0.7-0.9-1.6-0.7-2.9
		c0.1-0.6,0.2-1.1,0.4-1.6c0.2-0.5,0.4-1,0.7-1.4c0.2-0.4,0.5-0.8,0.7-1.1s0.5-0.6,0.7-0.8s0.4-0.4,0.6-0.6c0.2-0.2,0.4-0.3,0.6-0.4
		c0.2-0.1,0.4-0.2,0.6-0.2c0.2-0.1,0.5-0.1,0.7-0.1c0.2,0,0.5,0,0.7,0c0.2,0,0.4,0.1,0.6,0.2c0.2,0.1,0.4,0.3,0.5,0.5
		c0.1,0.2,0.2,0.4,0.3,0.7s0.1,0.5,0,0.8c0,0.3-0.1,0.6-0.1,0.8c-0.1,0.5-0.4,1-0.8,1.4c-0.4,0.4-0.8,0.8-1.3,1.2
		c-0.5,0.3-1,0.6-1.6,0.8c-0.6,0.2-1.1,0.4-1.7,0.4c0,0.4,0,0.7,0.2,0.9c0.2,0.2,0.4,0.4,0.8,0.4c0.5,0.1,1.1,0.1,1.7,0
		s1.2-0.2,1.8-0.4c0.6-0.2,1.2-0.4,1.7-0.6c0.5-0.2,1-0.4,1.3-0.5c0.2-0.1,0.4-0.1,0.6,0C224.1,245.8,224.3,245.9,224.3,246.1z
		 M219.6,241.6c0.1-0.5,0.1-0.8-0.1-0.9c-0.1-0.1-0.3-0.1-0.5-0.1c-0.2,0-0.3,0.1-0.5,0.2c-0.2,0.1-0.4,0.3-0.7,0.6
		c-0.3,0.3-0.6,0.7-0.9,1.2c-0.3,0.5-0.5,0.9-0.7,1.4c0.3-0.1,0.7-0.2,1.1-0.3c0.4-0.2,0.7-0.3,1-0.6s0.6-0.4,0.8-0.7
		C219.4,242.1,219.5,241.8,219.6,241.6z"/>
	<path fill="#010101" d="M234.1,245.4c0.1,0.2,0.2,0.4,0.1,0.7c0,0.2-0.2,0.4-0.5,0.6c-0.3,0.2-0.7,0.3-1.2,0.6
		c-0.5,0.2-1.1,0.4-1.8,0.7s-1.4,0.4-2.2,0.5s-1.7,0.2-2.6,0.3c-0.8,0-1.5-0.1-2.1-0.3c-0.6-0.2-1-0.5-1.3-0.9s-0.4-0.8-0.4-1.3
		c0-0.5,0.2-1.1,0.6-1.7c0.2-0.4,0.5-0.8,0.8-1.2c0.3-0.4,0.7-0.7,1.1-1.1c0.4-0.3,0.8-0.6,1.3-0.9s0.9-0.5,1.4-0.7
		c0.2-0.1,0.4-0.1,0.7-0.1c0.3,0,0.5,0,0.7,0c0.4,0,0.6,0.2,0.8,0.3c0.2,0.2,0.2,0.4,0.3,0.6c0,0.2-0.1,0.4-0.2,0.6
		c-0.1,0.2-0.3,0.3-0.6,0.4c-0.2,0-0.4,0.1-0.6,0c-0.2,0-0.4-0.1-0.6-0.1c-0.3,0.1-0.6,0.2-0.9,0.4c-0.3,0.2-0.6,0.4-1,0.7
		s-0.6,0.6-0.9,0.9c-0.3,0.3-0.5,0.6-0.6,0.9c-0.1,0.2-0.2,0.5-0.2,0.7s0.1,0.4,0.2,0.6c0.1,0.2,0.3,0.3,0.6,0.4
		c0.3,0.1,0.6,0.2,1,0.2c0.8,0,1.5-0.1,2.3-0.2c0.7-0.1,1.4-0.3,2.1-0.5c0.6-0.2,1.2-0.4,1.7-0.6s0.8-0.4,1-0.5
		c0.2-0.1,0.4-0.2,0.7-0.1C233.8,245.2,234,245.3,234.1,245.4z"/>
	<path fill="#010101" d="M240,241.9c0,0.2-0.1,0.4-0.2,0.5c-0.1,0.2-0.4,0.2-0.6,0.3c-0.3,0-0.8,0-1.5,0c-0.6,0-1.3,0-1.9,0
		c0,0.4,0,0.9,0,1.3c0,0.5,0.1,0.9,0.1,1.4c0.1,0.4,0.1,0.9,0.2,1.3s0.1,0.7,0.2,1c0.1,0.3,0,0.5-0.1,0.7c-0.1,0.2-0.3,0.3-0.5,0.3
		c-0.2,0.1-0.4,0-0.7-0.1c-0.2-0.1-0.4-0.3-0.5-0.7c-0.2-0.7-0.3-1.5-0.4-2.4c-0.1-0.9-0.2-1.9-0.2-2.9h-1.7c-0.3,0-0.5-0.1-0.6-0.2
		c-0.1-0.2-0.2-0.4-0.2-0.6s0.1-0.4,0.2-0.6s0.4-0.3,0.6-0.3c0.2,0,0.4,0,0.7,0c0.3,0,0.6,0,0.9,0c0-0.5,0-1,0.1-1.6
		c0-0.6,0.1-1.3,0.2-1.9s0.2-1.3,0.3-2c0.1-0.7,0.2-1.3,0.4-1.9c-0.2-0.1-0.2-0.2-0.2-0.4c0-0.1,0.1-0.2,0.2-0.4
		c0.1-0.1,0.2-0.3,0.3-0.4c0-0.1,0.1-0.2,0.1-0.2c0-0.1,0.1-0.2,0.1-0.2c0.1-0.2,0.3-0.4,0.5-0.4c0.2-0.1,0.4,0,0.6,0.1
		c0.2,0.1,0.3,0.2,0.4,0.4c0.1,0.2,0.2,0.4,0.1,0.6c0,0.2,0,0.3-0.1,0.4c-0.1,0.1-0.1,0.2-0.2,0.4c-0.1,0.5-0.3,1.1-0.4,1.7
		s-0.2,1.3-0.3,2c-0.1,0.7-0.2,1.4-0.2,2.1c-0.1,0.7-0.1,1.3-0.1,1.9c0.2,0,0.4,0,0.7,0c0.3,0,0.6,0,0.9,0c0.3,0,0.7,0,1,0.1
		c0.3,0,0.6,0,0.8,0.1c0.2,0,0.4,0.1,0.5,0.3C239.9,241.5,240,241.7,240,241.9z"/>
	<path fill="#010101" d="M249.2,246.4c0,0.2,0,0.4-0.2,0.6c-0.1,0.2-0.3,0.3-0.7,0.3c-0.2,0-0.5,0.1-0.9,0.2
		c-0.4,0.1-0.8,0.2-1.2,0.4c-0.4,0.2-0.9,0.3-1.3,0.4c-0.4,0.1-0.8,0.3-1.1,0.3c-1,0.2-1.7,0.2-2.3,0c-0.5-0.2-0.9-0.8-1.2-1.7
		c-0.1-0.3-0.1-0.6-0.1-1c0-0.4,0-0.7,0-1c0-0.4,0.1-0.8,0.2-1.2c0.1-0.4,0.2-0.7,0.3-1c-0.1,0-0.1-0.1-0.1-0.2s0-0.2,0-0.3
		c0.1-0.1,0.2-0.3,0.3-0.5c0.1-0.2,0.2-0.4,0.4-0.5c0.2-0.1,0.3-0.2,0.5-0.2s0.4,0,0.5,0.1c0.2,0.1,0.4,0.2,0.5,0.4s0.1,0.3,0,0.5
		c-0.2,0.3-0.3,0.8-0.5,1.3c-0.2,0.6-0.3,1.1-0.3,1.6c0,0.3,0,0.6,0,0.8c0,0.2,0,0.5,0.1,0.6c0.1,0.3,0.2,0.5,0.4,0.6
		c0.2,0.1,0.5,0.1,0.9,0c0.3,0,0.6-0.1,1-0.3c0.4-0.2,0.8-0.3,1.3-0.5c0.5-0.2,0.9-0.3,1.3-0.5c0.4-0.1,0.8-0.2,1.1-0.2
		c0.3,0,0.5,0.1,0.7,0.3C249.1,246,249.2,246.2,249.2,246.4z M244.7,236.1c0.2,0.1,0.3,0.3,0.4,0.5c0.1,0.2,0.1,0.4,0.1,0.6
		c0,0.2,0,0.4-0.1,0.6s-0.2,0.4-0.4,0.5c-0.3,0.2-0.6,0.3-0.9,0.3c-0.3,0-0.6-0.2-0.9-0.4c-0.3-0.3-0.4-0.6-0.4-1
		c0-0.4,0.2-0.7,0.6-1c0.2-0.2,0.5-0.3,0.8-0.3S244.5,235.9,244.7,236.1z"/>
	<path fill="#010101" d="M256.7,242.7c0,0.2-0.1,0.4-0.2,0.6c-0.1,0.2-0.4,0.3-0.6,0.4c-0.2,0-0.4,0-0.6,0c-0.2,0-0.4,0-0.6-0.1
		c-0.1,0.3-0.3,0.6-0.4,1c-0.1,0.4-0.3,0.7-0.5,1.1s-0.3,0.7-0.5,1.1c-0.2,0.4-0.3,0.7-0.5,1c-0.6,1-1.2,1.5-1.9,1.5
		c-0.6,0-1.3-0.5-1.8-1.4c-0.1-0.2-0.3-0.5-0.4-0.8c-0.1-0.3-0.3-0.6-0.4-0.9c-0.2-0.6-0.3-1.2-0.4-1.9c-0.1-0.7-0.2-1.3-0.3-2
		c-0.1-0.1-0.1-0.1-0.2-0.3c0-0.1,0-0.2,0-0.3c0-0.1,0-0.2,0-0.3c0-0.1,0-0.2,0.1-0.3c0.1-0.3,0.2-0.5,0.4-0.7
		c0.2-0.2,0.4-0.2,0.6-0.2c0.2,0,0.4,0.1,0.5,0.2c0.2,0.1,0.2,0.4,0.3,0.7c0,0.3,0,0.6,0.1,0.9c0,0.4,0.1,0.7,0.1,1.1
		s0.1,0.8,0.2,1.2s0.2,0.8,0.3,1.2c0.1,0.2,0.1,0.4,0.2,0.6c0.1,0.2,0.2,0.4,0.2,0.5c0.1,0.2,0.2,0.3,0.3,0.4
		c0.1,0.1,0.2,0.1,0.2,0.1c0.1,0,0.2-0.1,0.3-0.1c0.1-0.1,0.2-0.2,0.3-0.4c0.3-0.5,0.6-1.1,0.9-1.8c0.3-0.7,0.6-1.3,0.8-2
		c-0.1-0.1-0.2-0.2-0.2-0.3c0-0.1-0.1-0.2-0.1-0.4c0-0.4,0.2-0.8,0.7-1c0.3-0.1,0.6-0.1,0.8,0c0.2,0.1,0.4,0.3,0.5,0.5
		c0.1,0,0.3,0.1,0.5,0.1c0.2,0,0.4,0,0.5,0c0.3,0,0.5,0,0.6,0.2C256.6,242.3,256.7,242.5,256.7,242.7z"/>
	<path fill="#010101" d="M266.7,246.1c0.1,0.2,0.1,0.4,0.1,0.6c-0.1,0.2-0.2,0.4-0.5,0.5c-0.4,0.1-0.8,0.3-1.4,0.5
		c-0.6,0.2-1.2,0.4-1.8,0.6c-0.7,0.2-1.4,0.3-2.1,0.4c-0.7,0.1-1.5,0.1-2.2,0c-0.7-0.1-1.3-0.4-1.6-0.8c-0.7-0.7-0.9-1.6-0.7-2.9
		c0.1-0.6,0.2-1.1,0.4-1.6c0.2-0.5,0.4-1,0.7-1.4c0.2-0.4,0.5-0.8,0.7-1.1s0.5-0.6,0.7-0.8s0.4-0.4,0.6-0.6c0.2-0.2,0.4-0.3,0.6-0.4
		c0.2-0.1,0.4-0.2,0.6-0.2c0.2-0.1,0.5-0.1,0.7-0.1c0.2,0,0.5,0,0.7,0c0.2,0,0.4,0.1,0.6,0.2c0.2,0.1,0.4,0.3,0.5,0.5
		c0.1,0.2,0.2,0.4,0.3,0.7s0.1,0.5,0,0.8c0,0.3-0.1,0.6-0.1,0.8c-0.1,0.5-0.4,1-0.8,1.4c-0.4,0.4-0.8,0.8-1.3,1.2
		c-0.5,0.3-1,0.6-1.6,0.8c-0.6,0.2-1.1,0.4-1.7,0.4c0,0.4,0,0.7,0.2,0.9c0.2,0.2,0.4,0.4,0.8,0.4c0.5,0.1,1.1,0.1,1.7,0
		s1.2-0.2,1.8-0.4c0.6-0.2,1.2-0.4,1.7-0.6c0.5-0.2,1-0.4,1.3-0.5c0.2-0.1,0.4-0.1,0.6,0C266.5,245.8,266.6,245.9,266.7,246.1z
		 M261.9,241.6c0.1-0.5,0.1-0.8-0.1-0.9c-0.1-0.1-0.3-0.1-0.5-0.1c-0.2,0-0.3,0.1-0.5,0.2c-0.2,0.1-0.4,0.3-0.7,0.6
		c-0.3,0.3-0.6,0.7-0.9,1.2c-0.3,0.5-0.5,0.9-0.7,1.4c0.3-0.1,0.7-0.2,1.1-0.3c0.4-0.2,0.7-0.3,1-0.6s0.6-0.4,0.8-0.7
		C261.7,242.1,261.8,241.8,261.9,241.6z"/>
	<path fill="#010101" d="M280.7,235c-0.4,0.4-0.7,0.8-1.1,1.3c-0.4,0.5-0.7,1-1,1.4c-0.5,0.8-1,1.5-1.4,2.2c-0.4,0.7-0.8,1.3-1.2,2
		c-0.4,0.7-0.8,1.3-1.2,1.9c-0.4,0.6-0.8,1.3-1.1,2c0.1,0.3,0.1,0.5-0.1,0.7s-0.3,0.3-0.5,0.3c-0.1,0.2-0.3,0.5-0.5,0.9
		s-0.4,0.7-0.7,1.1c-0.2,0.4-0.5,0.7-0.7,1.1c-0.2,0.3-0.4,0.6-0.5,0.8c-0.2,0.2-0.4,0.3-0.6,0.3c-0.2,0-0.4,0-0.6-0.2
		c-0.2-0.1-0.3-0.3-0.4-0.5s0-0.4,0.2-0.7c0.4-0.6,0.8-1.2,1.2-1.9c0.4-0.7,0.8-1.4,1.1-2c-0.4-0.8-0.9-1.6-1.4-2.6
		s-0.9-1.9-1.4-2.8c-0.4-0.9-0.8-1.8-1.1-2.5c-0.3-0.8-0.6-1.4-0.7-1.8c-0.1-0.2-0.1-0.4,0.1-0.5s0.3-0.3,0.5-0.4
		c0.2-0.1,0.4-0.1,0.6,0c0.2,0.1,0.4,0.2,0.4,0.5c0.2,0.5,0.4,1,0.7,1.7c0.3,0.7,0.6,1.4,1,2.2s0.7,1.5,1.1,2.3
		c0.4,0.8,0.8,1.5,1.1,2.2c0.2-0.4,0.5-0.9,0.8-1.4c0.3-0.6,0.7-1.2,1.1-1.8c0.4-0.7,0.8-1.3,1.3-2c0.4-0.7,0.9-1.4,1.4-2.1
		c0.7-1.1,1.5-2.1,2.2-2.9c0.2-0.2,0.4-0.3,0.7-0.3c0.3,0,0.5,0.1,0.6,0.2c0.2,0.1,0.3,0.3,0.3,0.5C281,234.5,280.9,234.7,280.7,235
		z"/>
</g>
<g>
</g>
<g>
</g>
<g>
</g>
<g>
</g>
<g>
</g>
<g>
</g>
</svg>
