<?xml version="1.0" encoding="utf-8"?>
<!-- Generator: Adobe Illustrator 17.1.0, SVG Export Plug-In . SVG Version: 6.00 Build 0)  -->
<!DOCTYPE svg PUBLIC "-//W3C//DTD SVG 1.1//EN" "http://www.w3.org/Graphics/SVG/1.1/DTD/svg11.dtd">
<svg version="1.1" id="Layer_1" xmlns="http://www.w3.org/2000/svg" xmlns:xlink="http://www.w3.org/1999/xlink" x="0px" y="0px"
	 viewBox="0 0 300 300" enable-background="new 0 0 300 300" xml:space="preserve">
<g>
	<g>
		<path fill="#010101" d="M169.8,137.6c-0.9,7.2-2.3,14.2-1.9,21.5c0.3,5.4,1.9,11.1,3.8,16.2c3.1,8.3,9.1,13.8,17.5,16.3
			c5.9,1.7,12.6,1.7,18.7,2c7.9,0.3,15.7-0.1,23.6-0.6c14.6-0.9,29-1.2,43.4-3.4c9.6-1.5,19.2-3.3,20.1-14.6
			c0.4-5.3-0.6-10.8-0.4-16.2c0.2-6,0.4-12-1.1-17.8c-2.5-10-11.6-14-20.9-15.3c-11.1-1.6-23-1.1-34.2-1.4c-14.8-0.4-29.7,0-44.5,0
			c-8,0-20.2,2.5-23.8,10.9c-0.9,2.2,2.3,4.1,3.2,1.9c2.1-4.9,8.6-7.3,13.3-8.5c6.5-1.8,14.6-0.5,21.3-0.6
			c14.9-0.1,29.8,0.3,44.7,0.6c10.4,0.2,23.8-1.4,32.6,5.6c9.5,7.5,4.9,24.7,5.8,35.1c0.3,3.1,0.4,6.1-0.4,9.2
			c-0.9,3.5-4.7,4.9-7.8,5.8c-6.2,1.9-13.4,2.5-19.8,3.2c-15.1,1.6-30.8,2.1-46,2.4c-12,0.2-28.6,1.4-37.5-8.3
			c-8.4-9.2-8.7-24.9-7-36.3c0.4-2.6,0.7-5.1,1-7.7C173.9,135.2,170.1,135.2,169.8,137.6L169.8,137.6z"/>
	</g>
</g>
<g enable-background="new    ">
	<path fill="#010101" d="M200.3,156.2c0.1,0.4-0.1,0.9-0.4,1.5c-0.3,0.6-0.7,1.1-1.2,1.7c-0.5,0.6-1,1.1-1.6,1.6
		c-0.6,0.5-1.1,0.9-1.6,1.3c-0.8,0.5-1.6,1-2.5,1.5s-1.8,1-2.7,1.5c-0.3,0.1-0.5,0.2-0.7,0.1c-0.2-0.1-0.4-0.2-0.5-0.4
		c-0.1-0.2-0.1-0.4-0.1-0.7c0.1-0.2,0.2-0.4,0.5-0.6c1-0.5,1.9-1,2.7-1.5c0.9-0.5,1.6-0.9,2.3-1.4c0.4-0.3,0.8-0.6,1.3-1
		s0.9-0.8,1.3-1.3c0.4-0.4,0.7-0.9,1-1.3c0.3-0.4,0.4-0.8,0.4-1.1c0-0.5-0.2-0.9-0.5-1.3c-0.3-0.4-0.9-0.9-1.6-1.3
		c-0.4-0.2-0.8-0.5-1.3-0.8s-1.1-0.6-1.6-1c-0.6-0.3-1.2-0.7-1.8-1c-0.6-0.3-1.2-0.6-1.7-0.9c-0.1,1.2-0.2,2.3-0.3,3.6
		s-0.2,2.4-0.3,3.4c-0.1,1.1-0.2,2-0.2,2.7c-0.1,0.8-0.1,1.3-0.1,1.6c0,0.2,0.1,0.4,0.2,0.6c0.1,0.2,0.2,0.4,0.3,0.6
		c0.1,0.2,0.1,0.4,0,0.6s-0.2,0.3-0.4,0.4c-0.2,0.1-0.4,0.1-0.7,0c-0.2-0.1-0.4-0.2-0.6-0.5c-0.1-0.2-0.2-0.4-0.3-0.7
		c-0.1-0.3-0.2-0.6-0.2-1c0-0.2,0-0.6,0-1.1c0-0.5,0.1-1,0.1-1.7c0.1-0.6,0.1-1.3,0.2-2.1s0.1-1.6,0.2-2.4c0.1-0.8,0.2-1.6,0.2-2.5
		c0.1-0.8,0.1-1.6,0.2-2.4c-0.1-0.1-0.3-0.2-0.4-0.2c-0.2-0.1-0.3-0.1-0.4-0.2c-0.2,0-0.3,0-0.5-0.1c-0.2-0.1-0.3-0.2-0.4-0.4
		c-0.1-0.2-0.2-0.4-0.2-0.6c0-0.2,0.1-0.3,0.2-0.5c0.1-0.2,0.3-0.3,0.6-0.3c0.2-0.1,0.5,0,0.8,0.1c0.9,0.5,1.9,1,2.8,1.5
		c0.9,0.5,1.8,1,2.7,1.5c0.8,0.5,1.6,0.9,2.3,1.3c0.7,0.4,1.2,0.7,1.6,1C199.3,153.3,200.3,154.7,200.3,156.2z"/>
	<path fill="#010101" d="M210.3,161.1c0,0.2,0,0.4-0.2,0.6c-0.1,0.2-0.3,0.3-0.7,0.3c-0.2,0-0.5,0.1-0.9,0.2
		c-0.4,0.1-0.8,0.2-1.2,0.4c-0.4,0.2-0.9,0.3-1.3,0.4c-0.4,0.1-0.8,0.3-1.1,0.3c-1,0.2-1.7,0.2-2.3,0c-0.5-0.2-0.9-0.8-1.2-1.7
		c-0.1-0.3-0.1-0.6-0.1-1c0-0.4,0-0.7,0-1c0-0.4,0.1-0.8,0.2-1.2c0.1-0.4,0.2-0.7,0.3-1c-0.1,0-0.1-0.1-0.1-0.2s0-0.2,0-0.3
		c0.1-0.1,0.2-0.3,0.3-0.5c0.1-0.2,0.2-0.4,0.4-0.5c0.2-0.1,0.3-0.2,0.5-0.2c0.2,0,0.4,0,0.5,0.1c0.2,0.1,0.4,0.2,0.5,0.4
		c0.1,0.2,0.1,0.3,0,0.5c-0.2,0.3-0.3,0.8-0.5,1.3c-0.2,0.6-0.3,1.1-0.3,1.6c0,0.3,0,0.6,0,0.8c0,0.2,0,0.5,0.1,0.6
		c0.1,0.3,0.2,0.5,0.4,0.6c0.2,0.1,0.5,0.1,0.9,0c0.3,0,0.6-0.1,1-0.3c0.4-0.2,0.8-0.3,1.3-0.5c0.5-0.2,0.9-0.3,1.3-0.5
		c0.4-0.1,0.8-0.2,1.1-0.2c0.3,0,0.5,0.1,0.7,0.3C210.2,160.7,210.3,160.9,210.3,161.1z M205.9,150.8c0.2,0.1,0.3,0.3,0.4,0.5
		c0.1,0.2,0.1,0.4,0.1,0.6c0,0.2,0,0.4-0.1,0.6c-0.1,0.2-0.2,0.4-0.4,0.5c-0.3,0.2-0.6,0.3-0.9,0.3c-0.3,0-0.6-0.2-0.9-0.4
		c-0.3-0.3-0.4-0.6-0.4-1c0-0.4,0.2-0.7,0.6-1c0.2-0.2,0.5-0.3,0.8-0.3C205.4,150.5,205.6,150.6,205.9,150.8z"/>
	<path fill="#010101" d="M217.9,157.9c-0.1,0.2-0.2,0.3-0.4,0.3c-0.2,0.1-0.4,0-0.6-0.1c-0.2-0.1-0.3-0.1-0.4-0.1
		c-0.1,0-0.3,0-0.4,0c-0.2,0-0.5,0.1-0.9,0.2c-0.3,0.1-0.7,0.2-1,0.4s-0.7,0.3-1.1,0.5s-0.7,0.4-1,0.6c-0.3,0.2-0.5,0.3-0.7,0.5
		c-0.2,0.2-0.3,0.3-0.4,0.5c-0.1,0.2-0.2,0.4-0.3,0.6c0,0.2-0.1,0.4-0.1,0.6c0,0.3-0.1,0.5-0.3,0.6c-0.2,0.1-0.3,0.2-0.6,0.2
		c-0.2,0-0.4-0.1-0.6-0.2c-0.2-0.2-0.3-0.4-0.3-0.7c0-0.3,0-0.6,0-1c0-0.4,0-0.8,0-1.2c0-0.4,0-0.8,0-1.1c0-0.4,0-0.7,0.1-1
		c-0.1,0-0.2-0.1-0.2-0.2c0-0.1,0-0.2,0.1-0.3c0.1-0.1,0.2-0.3,0.2-0.4c0.1-0.1,0.1-0.3,0.2-0.4c0.1-0.2,0.2-0.3,0.4-0.4
		c0.2-0.1,0.4-0.1,0.6,0c0.2,0.1,0.3,0.2,0.4,0.3c0.1,0.1,0.2,0.3,0.1,0.5c0,0.1-0.1,0.3-0.1,0.5c0,0.2-0.1,0.4-0.1,0.6
		c0,0.2,0,0.4,0,0.6c0,0.2,0,0.4,0,0.5c0.1-0.1,0.2-0.2,0.3-0.3c0.1-0.1,0.2-0.2,0.3-0.3c0.3-0.2,0.7-0.5,1.2-0.7
		c0.4-0.2,0.9-0.4,1.4-0.6c0.5-0.2,0.9-0.3,1.4-0.5c0.5-0.1,0.9-0.2,1.2-0.2c0.3,0,0.6,0,0.8,0.1c0.2,0.1,0.4,0.2,0.6,0.3
		c0.2,0.2,0.3,0.4,0.3,0.6C218.1,157.5,218,157.7,217.9,157.9z"/>
	<path fill="#010101" d="M228.5,160.8c0.1,0.2,0.1,0.4,0.1,0.6c-0.1,0.2-0.2,0.4-0.5,0.5c-0.4,0.1-0.8,0.3-1.4,0.5
		c-0.6,0.2-1.2,0.4-1.8,0.6c-0.7,0.2-1.4,0.3-2.1,0.4c-0.7,0.1-1.5,0.1-2.2,0c-0.7-0.1-1.3-0.4-1.6-0.8c-0.7-0.7-0.9-1.6-0.7-2.9
		c0.1-0.6,0.2-1.1,0.4-1.6c0.2-0.5,0.4-1,0.7-1.4c0.2-0.4,0.5-0.8,0.7-1.1s0.5-0.6,0.7-0.8s0.4-0.4,0.6-0.6c0.2-0.2,0.4-0.3,0.6-0.4
		c0.2-0.1,0.4-0.2,0.6-0.2c0.2-0.1,0.5-0.1,0.7-0.1c0.2,0,0.5,0,0.7,0c0.2,0,0.4,0.1,0.6,0.2c0.2,0.1,0.4,0.3,0.5,0.5
		c0.1,0.2,0.2,0.4,0.3,0.7s0.1,0.5,0,0.8c0,0.3-0.1,0.6-0.1,0.8c-0.1,0.5-0.4,1-0.8,1.4c-0.4,0.4-0.8,0.8-1.3,1.2
		c-0.5,0.3-1,0.6-1.6,0.8c-0.6,0.2-1.1,0.4-1.7,0.4c0,0.4,0,0.7,0.2,0.9c0.2,0.2,0.4,0.4,0.8,0.4c0.5,0.1,1.1,0.1,1.7,0
		s1.2-0.2,1.8-0.4c0.6-0.2,1.2-0.4,1.7-0.6c0.5-0.2,1-0.4,1.3-0.5c0.2-0.1,0.4-0.1,0.6,0C228.3,160.5,228.4,160.6,228.5,160.8z
		 M223.7,156.3c0.1-0.5,0.1-0.8-0.1-0.9c-0.1-0.1-0.3-0.1-0.5-0.1c-0.2,0-0.3,0.1-0.5,0.2c-0.2,0.1-0.4,0.3-0.7,0.6
		c-0.3,0.3-0.6,0.7-0.9,1.2c-0.3,0.5-0.5,0.9-0.7,1.4c0.3-0.1,0.7-0.2,1.1-0.3c0.4-0.2,0.7-0.3,1-0.6s0.6-0.4,0.8-0.7
		C223.5,156.8,223.7,156.5,223.7,156.3z"/>
	<path fill="#010101" d="M238.3,160.1c0.1,0.2,0.2,0.4,0.1,0.7c0,0.2-0.2,0.4-0.5,0.6c-0.3,0.2-0.7,0.3-1.2,0.6
		c-0.5,0.2-1.1,0.4-1.8,0.7s-1.4,0.4-2.2,0.5s-1.7,0.2-2.6,0.3c-0.8,0-1.5-0.1-2.1-0.3c-0.6-0.2-1-0.5-1.3-0.9s-0.4-0.8-0.4-1.3
		c0-0.5,0.2-1.1,0.6-1.7c0.2-0.4,0.5-0.8,0.8-1.2c0.3-0.4,0.7-0.7,1.1-1.1c0.4-0.3,0.8-0.6,1.3-0.9s0.9-0.5,1.4-0.7
		c0.2-0.1,0.4-0.1,0.7-0.1c0.3,0,0.5,0,0.7,0c0.4,0,0.6,0.2,0.8,0.3c0.2,0.2,0.2,0.4,0.3,0.6c0,0.2-0.1,0.4-0.2,0.6
		c-0.1,0.2-0.3,0.3-0.6,0.4c-0.2,0-0.4,0.1-0.6,0c-0.2,0-0.4-0.1-0.6-0.1c-0.3,0.1-0.6,0.2-0.9,0.4c-0.3,0.2-0.6,0.4-1,0.7
		s-0.6,0.6-0.9,0.9c-0.3,0.3-0.5,0.6-0.6,0.9c-0.1,0.2-0.2,0.5-0.2,0.7s0.1,0.4,0.2,0.6c0.1,0.2,0.3,0.3,0.6,0.4
		c0.3,0.1,0.6,0.2,1,0.2c0.8,0,1.5-0.1,2.3-0.2c0.7-0.1,1.4-0.3,2.1-0.5c0.6-0.2,1.2-0.4,1.7-0.6s0.8-0.4,1-0.5
		c0.2-0.1,0.4-0.2,0.7-0.1C238,159.9,238.2,160,238.3,160.1z"/>
	<path fill="#010101" d="M244.1,156.6c0,0.2-0.1,0.4-0.2,0.5c-0.1,0.2-0.4,0.2-0.6,0.3c-0.3,0-0.8,0-1.5,0c-0.6,0-1.3,0-1.9,0
		c0,0.4,0,0.9,0,1.3c0,0.5,0.1,0.9,0.1,1.4c0.1,0.4,0.1,0.9,0.2,1.3s0.1,0.7,0.2,1c0.1,0.3,0,0.5-0.1,0.7c-0.1,0.2-0.3,0.3-0.5,0.3
		c-0.2,0.1-0.4,0-0.7-0.1c-0.2-0.1-0.4-0.3-0.5-0.7c-0.2-0.7-0.3-1.5-0.4-2.4c-0.1-0.9-0.2-1.9-0.2-2.9h-1.7c-0.3,0-0.5-0.1-0.6-0.2
		c-0.1-0.2-0.2-0.4-0.2-0.6s0.1-0.4,0.2-0.6s0.4-0.3,0.6-0.3c0.2,0,0.4,0,0.7,0c0.3,0,0.6,0,0.9,0c0-0.5,0-1,0.1-1.6
		c0-0.6,0.1-1.3,0.2-1.9s0.2-1.3,0.3-2c0.1-0.7,0.2-1.3,0.4-1.9c-0.2-0.1-0.2-0.2-0.2-0.4c0-0.1,0.1-0.2,0.2-0.4
		c0.1-0.1,0.2-0.3,0.3-0.4c0-0.1,0.1-0.2,0.1-0.2c0-0.1,0.1-0.2,0.1-0.2c0.1-0.2,0.3-0.4,0.5-0.4c0.2-0.1,0.4,0,0.6,0.1
		c0.2,0.1,0.3,0.2,0.4,0.4c0.1,0.2,0.2,0.4,0.1,0.6c0,0.2,0,0.3-0.1,0.4c-0.1,0.1-0.1,0.2-0.2,0.4c-0.1,0.5-0.3,1.1-0.4,1.7
		s-0.2,1.3-0.3,2c-0.1,0.7-0.2,1.4-0.2,2.1c-0.1,0.7-0.1,1.3-0.1,1.9c0.2,0,0.4,0,0.7,0c0.3,0,0.6,0,0.9,0c0.3,0,0.7,0,1,0.1
		c0.3,0,0.6,0,0.8,0.1c0.2,0,0.4,0.1,0.5,0.3C244.1,156.2,244.1,156.4,244.1,156.6z"/>
	<path fill="#010101" d="M253.3,161.1c0,0.2,0,0.4-0.2,0.6c-0.1,0.2-0.3,0.3-0.7,0.3c-0.2,0-0.5,0.1-0.9,0.2
		c-0.4,0.1-0.8,0.2-1.2,0.4c-0.4,0.2-0.9,0.3-1.3,0.4c-0.4,0.1-0.8,0.3-1.1,0.3c-1,0.2-1.7,0.2-2.3,0c-0.5-0.2-0.9-0.8-1.2-1.7
		c-0.1-0.3-0.1-0.6-0.1-1c0-0.4,0-0.7,0-1c0-0.4,0.1-0.8,0.2-1.2c0.1-0.4,0.2-0.7,0.3-1c-0.1,0-0.1-0.1-0.1-0.2s0-0.2,0-0.3
		c0.1-0.1,0.2-0.3,0.3-0.5c0.1-0.2,0.2-0.4,0.4-0.5c0.2-0.1,0.3-0.2,0.5-0.2s0.4,0,0.5,0.1c0.2,0.1,0.4,0.2,0.5,0.4s0.1,0.3,0,0.5
		c-0.2,0.3-0.3,0.8-0.5,1.3c-0.2,0.6-0.3,1.1-0.3,1.6c0,0.3,0,0.6,0,0.8c0,0.2,0,0.5,0.1,0.6c0.1,0.3,0.2,0.5,0.4,0.6
		c0.2,0.1,0.5,0.1,0.9,0c0.3,0,0.6-0.1,1-0.3c0.4-0.2,0.8-0.3,1.3-0.5c0.5-0.2,0.9-0.3,1.3-0.5c0.4-0.1,0.8-0.2,1.1-0.2
		c0.3,0,0.5,0.1,0.7,0.3C253.2,160.7,253.3,160.9,253.3,161.1z M248.9,150.8c0.2,0.1,0.3,0.3,0.4,0.5c0.1,0.2,0.1,0.4,0.1,0.6
		c0,0.2,0,0.4-0.1,0.6s-0.2,0.4-0.4,0.5c-0.3,0.2-0.6,0.3-0.9,0.3c-0.3,0-0.6-0.2-0.9-0.4c-0.3-0.3-0.4-0.6-0.4-1
		c0-0.4,0.2-0.7,0.6-1c0.2-0.2,0.5-0.3,0.8-0.3S248.6,150.6,248.9,150.8z"/>
	<path fill="#010101" d="M260.8,157.4c0,0.2-0.1,0.4-0.2,0.6c-0.1,0.2-0.4,0.3-0.6,0.4c-0.2,0-0.4,0-0.6,0c-0.2,0-0.4,0-0.6-0.1
		c-0.1,0.3-0.3,0.6-0.4,1c-0.1,0.4-0.3,0.7-0.5,1.1s-0.3,0.7-0.5,1.1c-0.2,0.4-0.3,0.7-0.5,1c-0.6,1-1.2,1.5-1.9,1.5
		c-0.6,0-1.3-0.5-1.8-1.4c-0.1-0.2-0.3-0.5-0.4-0.8c-0.1-0.3-0.3-0.6-0.4-0.9c-0.2-0.6-0.3-1.2-0.4-1.9c-0.1-0.7-0.2-1.3-0.3-2
		c-0.1-0.1-0.1-0.1-0.2-0.3c0-0.1,0-0.2,0-0.3c0-0.1,0-0.2,0-0.3c0-0.1,0-0.2,0.1-0.3c0.1-0.3,0.2-0.5,0.4-0.7
		c0.2-0.2,0.4-0.2,0.6-0.2c0.2,0,0.4,0.1,0.5,0.2c0.2,0.1,0.2,0.4,0.3,0.7c0,0.3,0,0.6,0.1,0.9c0,0.4,0.1,0.7,0.1,1.1
		s0.1,0.8,0.2,1.2s0.2,0.8,0.3,1.2c0.1,0.2,0.1,0.4,0.2,0.6c0.1,0.2,0.2,0.4,0.2,0.5c0.1,0.2,0.2,0.3,0.3,0.4
		c0.1,0.1,0.2,0.1,0.2,0.1c0.1,0,0.2-0.1,0.3-0.1c0.1-0.1,0.2-0.2,0.3-0.4c0.3-0.5,0.6-1.1,0.9-1.8c0.3-0.7,0.6-1.3,0.8-2
		c-0.1-0.1-0.2-0.2-0.2-0.3c0-0.1-0.1-0.2-0.1-0.4c0-0.4,0.2-0.8,0.7-1c0.3-0.1,0.6-0.1,0.8,0c0.2,0.1,0.4,0.3,0.5,0.5
		c0.1,0,0.3,0.1,0.5,0.1c0.2,0,0.4,0,0.5,0c0.3,0,0.5,0,0.6,0.2C260.7,157,260.8,157.2,260.8,157.4z"/>
	<path fill="#010101" d="M270.8,160.8c0.1,0.2,0.1,0.4,0.1,0.6c-0.1,0.2-0.2,0.4-0.5,0.5c-0.4,0.1-0.8,0.3-1.4,0.5
		c-0.6,0.2-1.2,0.4-1.8,0.6c-0.7,0.2-1.4,0.3-2.1,0.4c-0.7,0.1-1.5,0.1-2.2,0c-0.7-0.1-1.3-0.4-1.6-0.8c-0.7-0.7-0.9-1.6-0.7-2.9
		c0.1-0.6,0.2-1.1,0.4-1.6c0.2-0.5,0.4-1,0.7-1.4c0.2-0.4,0.5-0.8,0.7-1.1s0.5-0.6,0.7-0.8s0.4-0.4,0.6-0.6c0.2-0.2,0.4-0.3,0.6-0.4
		c0.2-0.1,0.4-0.2,0.6-0.2c0.2-0.1,0.5-0.1,0.7-0.1c0.2,0,0.5,0,0.7,0c0.2,0,0.4,0.1,0.6,0.2c0.2,0.1,0.4,0.3,0.5,0.5
		c0.1,0.2,0.2,0.4,0.3,0.7s0.1,0.5,0,0.8c0,0.3-0.1,0.6-0.1,0.8c-0.1,0.5-0.4,1-0.8,1.4c-0.4,0.4-0.8,0.8-1.3,1.2
		c-0.5,0.3-1,0.6-1.6,0.8c-0.6,0.2-1.1,0.4-1.7,0.4c0,0.4,0,0.7,0.2,0.9c0.2,0.2,0.4,0.4,0.8,0.4c0.5,0.1,1.1,0.1,1.7,0
		s1.2-0.2,1.8-0.4c0.6-0.2,1.2-0.4,1.7-0.6c0.5-0.2,1-0.4,1.3-0.5c0.2-0.1,0.4-0.1,0.6,0C270.6,160.5,270.7,160.6,270.8,160.8z
		 M266.1,156.3c0.1-0.5,0.1-0.8-0.1-0.9c-0.1-0.1-0.3-0.1-0.5-0.1c-0.2,0-0.3,0.1-0.5,0.2c-0.2,0.1-0.4,0.3-0.7,0.6
		c-0.3,0.3-0.6,0.7-0.9,1.2c-0.3,0.5-0.5,0.9-0.7,1.4c0.3-0.1,0.7-0.2,1.1-0.3c0.4-0.2,0.7-0.3,1-0.6s0.6-0.4,0.8-0.7
		C265.8,156.8,266,156.5,266.1,156.3z"/>
	<path fill="#010101" d="M282.6,149.3c0,0.3-0.1,0.5-0.3,0.7s-0.3,0.2-0.3,0.3c-0.7,1.1-1.4,2.3-2.2,3.5c-0.8,1.2-1.6,2.4-2.3,3.6
		c0.3,0.4,0.6,0.9,1,1.4c0.4,0.5,0.7,1,1.1,1.5c0.4,0.5,0.8,1,1.2,1.4s0.8,0.9,1.3,1.3c0.2,0.2,0.3,0.4,0.3,0.6
		c0,0.2-0.1,0.4-0.3,0.6c-0.2,0.2-0.3,0.2-0.6,0.3c-0.2,0-0.4-0.1-0.6-0.2c-0.4-0.4-0.8-0.8-1.2-1.3s-0.8-0.9-1.1-1.4
		c-0.4-0.5-0.7-0.9-1.1-1.3c-0.3-0.4-0.7-0.9-0.9-1.3c-0.8,1.2-1.5,2.4-2.2,3.5c-0.7,1.1-1.3,2-1.7,2.8c-0.2,0.4-0.4,0.7-0.6,1.1
		c-0.1,0.2-0.2,0.3-0.3,0.4c-0.1,0.1-0.3,0.1-0.4,0.1c-0.3,0-0.5-0.1-0.7-0.3c-0.2-0.2-0.2-0.5-0.2-0.8c0-0.2,0.1-0.4,0.3-0.7
		c0.1-0.2,0.2-0.5,0.4-0.7c0.2-0.3,0.4-0.7,0.7-1.2c0.3-0.5,0.6-1,1-1.7c0.4-0.6,0.8-1.3,1.2-2c0.4-0.7,0.9-1.4,1.3-2.1
		c-0.1-0.2-0.3-0.5-0.5-0.9c-0.2-0.3-0.5-0.7-0.7-1.1c-0.2-0.4-0.5-0.8-0.7-1.1c-0.3-0.4-0.5-0.7-0.7-1s-0.4-0.6-0.5-0.8
		s-0.2-0.3-0.2-0.4c-0.1-0.2-0.2-0.4-0.1-0.6s0.1-0.4,0.3-0.5c0.2-0.1,0.4-0.2,0.7-0.2c0.2,0,0.4,0.2,0.6,0.4
		c0.1,0.1,0.2,0.3,0.5,0.7s0.5,0.8,0.8,1.3s0.6,0.9,0.9,1.4c0.3,0.5,0.6,0.9,0.7,1.2c0.3-0.5,0.7-1.1,1-1.6s0.7-1.1,1.1-1.7
		c0.4-0.6,0.7-1.1,1-1.6c0.3-0.5,0.7-1,1-1.5c0.1-0.2,0.2-0.3,0.3-0.3c0.1-0.1,0.2-0.2,0.2-0.3c0.1-0.3,0.3-0.4,0.5-0.4
		c0.2,0,0.4,0,0.6,0.1c0.2,0.1,0.3,0.2,0.4,0.4C282.6,148.9,282.6,149.1,282.6,149.3z"/>
</g>
<g>
	<g>
		<path fill="#010101" d="M96.1,40.8c-0.7,7.2-1.9,14.4-2.2,21.7c-0.3,6.8,0.9,13.5,2.5,20.1c2,8.4,5.4,17.5,12.7,22.7
			c9.7,6.9,23.2,6.6,34.6,6.7c15.3,0.2,30.9-1.3,46.1-2.3c11.2-0.8,24.2-1.8,34.6-6.3c10.6-4.6,8.9-16.7,8.4-26.2
			c-0.7-11.8,1.7-23.5-1.9-35c-3-9.5-11.2-14.1-20.4-16c-8.3-1.6-16.8-1.1-25.2-1.3c-12.6-0.3-25.2-0.8-37.9-0.7c-6,0-12,0.1-18,0.1
			c-5.1,0-10.4-0.5-15.4,0.7c-6.9,1.7-15.1,6.5-17.6,13.5c-0.8,2.3,2.8,3.3,3.6,1c2-5.5,8.7-8.8,13.8-10.5c6.4-2.2,14.4-0.9,21.1-1
			c15.7-0.1,31.6-0.5,47.3,0.5c10.4,0.7,20.8-0.5,31,2.2c14.1,3.7,16.3,16.9,16.3,29.6c0,5.6-0.5,11.3-0.3,16.9
			c0.3,6.3,2.2,14.6-2.1,19.9c-3.3,4-9.8,4.9-14.6,5.8c-7.5,1.3-14.9,2.5-22.5,3.1c-15.3,1.2-30.8,2.3-46.1,2.3
			c-12.3,0-27.4,0.4-36.2-9.6c-5.3-6-7-14.7-8.6-22.2c-2.5-11.9-0.2-23.7,1-35.6C100.1,38.4,96.3,38.4,96.1,40.8L96.1,40.8z"/>
	</g>
</g>
<g enable-background="new    ">
	<path fill="#010101" d="M130.7,69.1c0.2,0.2,0.2,0.4,0.2,0.6c0,0.2-0.1,0.4-0.2,0.5c-0.2,0.1-0.4,0.2-0.6,0.2
		c-0.2,0-0.4-0.1-0.6-0.4c-0.1-0.1-0.2-0.3-0.4-0.5c-0.1-0.2-0.3-0.5-0.4-0.7c-0.1-0.2-0.3-0.5-0.4-0.7c-0.1-0.2-0.2-0.5-0.3-0.6
		c0-0.1-0.1-0.2-0.2-0.3c-0.1-0.1-0.1-0.3-0.2-0.4c-1.5,0.4-2.8,0.7-4.1,1c-1.3,0.3-2.6,0.6-3.8,0.9c-0.1,0.2-0.2,0.5-0.4,0.8
		c-0.1,0.3-0.3,0.5-0.4,0.8c0,0.1,0,0.3-0.1,0.5c-0.1,0.2-0.2,0.3-0.5,0.5c-0.1,0.1-0.3,0.1-0.5,0.1c-0.2,0-0.3-0.1-0.4-0.2
		c-0.2-0.2-0.3-0.3-0.3-0.5s0-0.4,0.1-0.6c0.1-0.2,0.1-0.3,0.2-0.5c0.1-0.2,0.2-0.3,0.3-0.5c-0.3,0-0.5,0-0.7-0.1
		c-0.2-0.1-0.4-0.3-0.4-0.5c0-0.1,0-0.1,0-0.2s0.1-0.2,0.1-0.3s0.1-0.2,0.2-0.2c0.1-0.1,0.2-0.1,0.4-0.1c0.2,0,0.4-0.1,0.6-0.1
		s0.4-0.1,0.5-0.2c0.3-0.5,0.6-1.1,0.9-1.7c0.3-0.7,0.7-1.3,1-2c0.3-0.7,0.7-1.4,1-2.1c0.3-0.7,0.7-1.4,0.9-2
		c0.3-0.6,0.6-1.2,0.8-1.6c0.2-0.5,0.4-0.8,0.6-1.1c0-0.2,0.1-0.3,0.2-0.5c0.1-0.2,0.3-0.2,0.6-0.2c0.2,0,0.3,0,0.5,0.1
		c0.1,0.1,0.2,0.2,0.3,0.4c0.3,0.7,0.6,1.5,0.9,2.2c0.3,0.8,0.6,1.6,0.9,2.3c0.3,0.8,0.6,1.5,0.8,2.2c0.3,0.7,0.5,1.3,0.8,1.8
		c0.2,0,0.3-0.1,0.5-0.1c0.2,0,0.3-0.1,0.4-0.1c0.2,0,0.3,0,0.5,0.1s0.3,0.3,0.4,0.6c0,0.1,0,0.2-0.1,0.4c-0.1,0.2-0.2,0.3-0.4,0.3
		c-0.1,0-0.2,0.1-0.3,0.1c-0.1,0-0.2,0.1-0.3,0.1c0,0.1,0.1,0.2,0.1,0.3c0.1,0.1,0.1,0.2,0.2,0.3c0.1,0.1,0.2,0.3,0.3,0.5
		c0.1,0.2,0.2,0.4,0.3,0.6c0.1,0.2,0.2,0.4,0.3,0.6C130.5,68.8,130.6,69,130.7,69.1z M126.9,65.3c-0.5-1.1-0.9-2.3-1.3-3.4
		c-0.4-1.2-0.8-2.3-1.3-3.4c-0.3,0.6-0.6,1.2-0.9,1.9c-0.3,0.7-0.7,1.4-1,2.2c-0.3,0.7-0.7,1.5-1,2.2c-0.3,0.7-0.7,1.4-1,2
		c0.5-0.1,1-0.2,1.6-0.3c0.5-0.1,1.1-0.2,1.7-0.4c0.6-0.1,1.1-0.3,1.7-0.4C125.9,65.5,126.4,65.4,126.9,65.3z"/>
	<path fill="#010101" d="M141.7,66.3c0,0.4-0.1,0.7-0.2,0.9s-0.4,0.3-0.6,0.3c-0.2,0-0.3,0-0.5-0.1c-0.2-0.1-0.3-0.2-0.4-0.4
		c-0.2-0.2-0.3-0.5-0.5-0.7c-0.2-0.3-0.4-0.5-0.7-0.7c-0.2-0.2-0.5-0.4-0.8-0.5c-0.3-0.1-0.5-0.2-0.8-0.2c-0.2,0-0.5,0.1-0.8,0.2
		s-0.6,0.2-0.9,0.4c-0.3,0.2-0.6,0.4-0.9,0.6c-0.3,0.2-0.5,0.4-0.8,0.7c-0.2,0.2-0.3,0.3-0.3,0.5c-0.1,0.2-0.1,0.3-0.1,0.4
		c0,0.2,0.1,0.4,0.3,0.6c0.2,0.2,0.5,0.3,0.9,0.4c0.2,0.1,0.5,0.1,0.9,0.2c0.4,0,0.8,0.1,1.2,0.1c0.4,0,0.9,0,1.4-0.1
		c0.5-0.1,1-0.2,1.4-0.3c0.2-0.1,0.4-0.1,0.6,0s0.3,0.2,0.4,0.4c0.1,0.2,0.1,0.4,0,0.6c-0.1,0.2-0.3,0.3-0.6,0.5
		c-0.6,0.2-1.1,0.3-1.7,0.4c-0.5,0.1-1.1,0.1-1.6,0.1c-0.5,0-0.9,0-1.4-0.1s-0.8-0.1-1-0.2c-0.8-0.2-1.5-0.5-1.9-1
		c-0.4-0.4-0.7-0.9-0.7-1.5c0-0.6,0.3-1.2,0.8-1.8c0.3-0.3,0.6-0.6,1-0.9c0.4-0.3,0.8-0.6,1.2-0.8c0.4-0.2,0.9-0.4,1.3-0.6
		c0.4-0.2,0.9-0.2,1.3-0.2c0.3,0,0.6,0,0.9,0.1s0.5,0.2,0.7,0.3s0.4,0.3,0.6,0.4c0.2,0.2,0.4,0.3,0.5,0.4c-0.1-0.7-0.1-1.4-0.2-2.2
		c-0.1-0.8-0.1-1.5-0.2-2.2c-0.1-0.7-0.2-1.4-0.2-2.1c-0.1-0.7-0.2-1.3-0.2-1.8c-0.1-0.3,0-0.5,0.1-0.7c0.1-0.2,0.3-0.3,0.5-0.3
		c0.2,0,0.4,0,0.6,0.1c0.2,0.1,0.3,0.3,0.3,0.6c0.1,0.6,0.2,1.3,0.3,2.2c0.1,0.9,0.2,1.8,0.3,2.8c0.1,1,0.2,1.9,0.3,2.9
		C141.6,64.7,141.6,65.6,141.7,66.3z"/>
	<path fill="#010101" d="M163.1,68.3c-0.1,0.1-0.2,0.2-0.3,0.3c-0.1,0.1-0.3,0.2-0.4,0.2c-0.1,0-0.1,0-0.1,0s-0.1,0-0.2,0
		c-0.2,0-0.5,0.1-0.9,0.2c-0.4,0.1-0.9,0.2-1.3,0.4c-0.5,0.2-1.1,0.3-1.7,0.2s-1-0.3-1.4-0.8c-0.3-0.4-0.6-0.8-0.8-1.3
		c-0.2-0.5-0.4-1.1-0.5-1.7c-0.1-0.3-0.2-0.5-0.4-0.5c-0.2,0-0.6,0.2-1.1,0.6c-0.1,0.1-0.3,0.2-0.5,0.4c-0.2,0.2-0.4,0.4-0.6,0.6
		c-0.2,0.2-0.5,0.5-0.7,0.8c-0.2,0.3-0.5,0.5-0.7,0.8c-0.1,0.1-0.2,0.2-0.4,0.3c-0.2,0.1-0.3,0.1-0.5,0.1c-0.2,0-0.3,0-0.5-0.1
		s-0.3-0.2-0.3-0.3c-0.2-0.4-0.3-0.8-0.5-1.3c-0.1-0.5-0.3-0.9-0.4-1.2c-0.1-0.2-0.2-0.2-0.5-0.2c-0.2,0-0.5,0.2-0.8,0.6
		c-0.2,0.3-0.5,0.6-0.8,0.9c-0.3,0.3-0.6,0.6-0.8,0.9c-0.2,0.2-0.4,0.5-0.7,0.9c-0.2,0.3-0.4,0.7-0.6,0.9c-0.1,0.2-0.3,0.4-0.5,0.4
		s-0.4,0-0.6-0.1c-0.2-0.1-0.3-0.2-0.4-0.3c-0.1-0.2-0.2-0.3-0.2-0.6c0-0.4,0-0.9-0.1-1.4c0-0.5,0-1,0-1.6c0-0.5,0-1,0-1.4
		s0-0.8,0-1.1c0-0.3,0.1-0.5,0.3-0.6c0.2-0.1,0.3-0.2,0.5-0.2c0.2,0,0.4,0,0.5,0.2c0.2,0.1,0.2,0.3,0.2,0.6c0,0.6,0,1.2,0,1.8
		c0,0.7,0,1.3,0,1.9c0.1-0.1,0.2-0.2,0.3-0.4c0.1-0.2,0.2-0.3,0.4-0.5c0.2-0.2,0.4-0.5,0.6-0.7c0.2-0.3,0.4-0.5,0.6-0.7
		c0.2-0.3,0.5-0.6,0.9-0.8c0.4-0.3,0.7-0.4,1.1-0.5c0.3-0.1,0.6,0,0.9,0.1s0.5,0.4,0.7,0.9c0.1,0.3,0.2,0.6,0.3,0.9
		c0.1,0.3,0.2,0.5,0.3,0.7c0,0.1,0.1,0.2,0.2,0.2c0.1,0,0.2,0,0.2-0.1c0.1-0.1,0.3-0.3,0.4-0.5c0.2-0.2,0.3-0.3,0.5-0.5
		c0.2-0.2,0.3-0.3,0.5-0.5c0.2-0.2,0.3-0.3,0.4-0.4c0.9-0.8,1.7-1.2,2.4-1.2c0.4,0,0.7,0.1,0.9,0.4c0.2,0.3,0.4,0.7,0.5,1.2
		c0.1,0.5,0.2,1,0.4,1.6s0.4,0.9,0.6,1.2c0.2,0.2,0.4,0.3,0.6,0.3s0.5,0,0.7-0.1c0.2-0.1,0.5-0.2,0.8-0.2c0.3-0.1,0.5-0.2,0.8-0.2
		c0.3-0.1,0.5-0.1,0.8-0.2c0.2-0.1,0.4-0.1,0.6-0.1c0.3,0,0.6,0.1,0.8,0.2C163.2,67.6,163.3,67.9,163.1,68.3z"/>
	<path fill="#010101" d="M169.4,68.1c0,0.2,0,0.3-0.2,0.5c-0.1,0.2-0.3,0.3-0.6,0.3c-0.2,0-0.5,0.1-0.8,0.2
		c-0.3,0.1-0.7,0.2-1.1,0.4s-0.8,0.3-1.2,0.4c-0.4,0.1-0.7,0.2-1,0.3c-0.9,0.2-1.5,0.2-2,0c-0.5-0.2-0.8-0.7-1.1-1.5
		c-0.1-0.3-0.1-0.6-0.1-0.9c0-0.3,0-0.7,0-0.9c0-0.4,0.1-0.7,0.2-1c0.1-0.3,0.2-0.7,0.3-0.9c-0.1,0-0.1-0.1-0.1-0.2s0-0.2,0-0.2
		c0.1-0.1,0.1-0.3,0.2-0.5c0.1-0.2,0.2-0.3,0.3-0.4c0.1-0.1,0.3-0.2,0.5-0.2c0.2,0,0.3,0,0.5,0.1c0.2,0.1,0.3,0.2,0.4,0.3
		c0.1,0.1,0.1,0.3,0,0.5c-0.2,0.3-0.3,0.7-0.5,1.2c-0.2,0.5-0.3,1-0.3,1.4c0,0.3,0,0.5,0,0.7c0,0.2,0,0.4,0.1,0.6
		c0.1,0.3,0.2,0.5,0.4,0.5c0.2,0.1,0.4,0.1,0.8,0c0.2,0,0.5-0.1,0.9-0.3s0.8-0.3,1.2-0.4c0.4-0.2,0.8-0.3,1.2-0.4
		c0.4-0.1,0.7-0.2,1-0.2c0.3,0,0.5,0.1,0.6,0.2S169.4,67.9,169.4,68.1z M165.4,58.8c0.2,0.1,0.3,0.3,0.4,0.4
		c0.1,0.2,0.1,0.4,0.1,0.5c0,0.2,0,0.4-0.1,0.5c-0.1,0.2-0.2,0.3-0.4,0.5c-0.2,0.2-0.5,0.2-0.8,0.2c-0.3,0-0.6-0.1-0.8-0.4
		c-0.2-0.2-0.3-0.6-0.3-0.9s0.2-0.7,0.5-0.9c0.2-0.2,0.4-0.2,0.7-0.2S165.2,58.7,165.4,58.8z"/>
	<path fill="#010101" d="M181.7,67.8c0,0.2,0,0.3-0.1,0.4s-0.2,0.2-0.4,0.3c-0.1,0-0.2,0.1-0.3,0.1s-0.2,0-0.3,0
		c-0.3,0.1-0.6,0.2-1,0.4c-0.4,0.1-0.8,0.3-1.2,0.5c-0.7,0.3-1.4,0.4-2.1,0.2c-0.7-0.2-1.2-0.6-1.5-1.3c-0.2-0.5-0.4-0.9-0.5-1.4
		c-0.1-0.5-0.1-0.8-0.2-1.1c0-0.2-0.2-0.3-0.3-0.3c-0.1,0-0.3,0-0.4,0s-0.3,0.1-0.5,0.2c-0.1,0.1-0.3,0.2-0.4,0.4
		c-0.2,0.1-0.3,0.3-0.5,0.5c-0.2,0.2-0.4,0.3-0.5,0.5c-0.2,0.2-0.4,0.3-0.5,0.4c-0.2,0.1-0.3,0.3-0.5,0.5c-0.2,0.2-0.4,0.4-0.6,0.6
		c-0.2,0.2-0.3,0.4-0.5,0.6c-0.1,0.2-0.2,0.4-0.3,0.5c-0.2,0.3-0.3,0.4-0.6,0.5c-0.2,0-0.4,0-0.6-0.1c-0.2-0.1-0.3-0.2-0.4-0.3
		s-0.1-0.3-0.1-0.5c0-0.4,0-0.7,0-1.1c0-0.4,0-0.8,0-1.1s0-0.7,0-1s0-0.6,0-0.8c-0.2-0.1-0.3-0.2-0.3-0.4c0-0.1,0.1-0.3,0.2-0.5
		s0.2-0.3,0.3-0.4c0.1-0.1,0.2-0.2,0.3-0.2c0.1,0,0.3,0,0.4,0c0.2,0,0.3,0.1,0.5,0.2s0.2,0.2,0.2,0.4c0,0.2,0,0.4,0,0.7
		c0,0.3,0,0.6,0,0.9c0,0.3,0,0.6,0,0.9c0,0.3,0,0.5,0,0.8c0.2-0.3,0.4-0.5,0.7-0.8c0.3-0.2,0.5-0.5,0.8-0.7c0.3-0.3,0.6-0.5,0.9-0.8
		c0.3-0.3,0.6-0.5,0.9-0.7c0.3-0.2,0.6-0.4,1-0.6c0.4-0.1,0.7-0.2,1.1-0.2c0.4,0,0.7,0.1,1,0.3c0.3,0.2,0.5,0.6,0.5,1.1
		c0.1,0.5,0.1,1,0.2,1.4s0.2,0.8,0.3,1c0.2,0.3,0.4,0.5,0.7,0.5s0.6,0,0.9-0.1c0.4-0.2,0.9-0.4,1.4-0.6c0.5-0.2,1-0.4,1.4-0.5
		c0.3-0.1,0.6,0,0.7,0.1C181.6,67.4,181.7,67.6,181.7,67.8z"/>
	<path fill="#010101" d="M193.5,69.1c0.2,0.2,0.2,0.4,0.2,0.6c0,0.2-0.1,0.4-0.2,0.5c-0.2,0.1-0.4,0.2-0.6,0.2s-0.4-0.1-0.6-0.4
		c-0.1-0.1-0.2-0.3-0.4-0.5c-0.1-0.2-0.3-0.5-0.4-0.7c-0.1-0.2-0.3-0.5-0.4-0.7c-0.1-0.2-0.2-0.5-0.3-0.6c0-0.1-0.1-0.2-0.2-0.3
		c-0.1-0.1-0.1-0.3-0.2-0.4c-1.5,0.4-2.8,0.7-4.1,1c-1.3,0.3-2.6,0.6-3.8,0.9c-0.1,0.2-0.2,0.5-0.4,0.8s-0.3,0.5-0.4,0.8
		c0,0.1,0,0.3-0.1,0.5c-0.1,0.2-0.2,0.3-0.5,0.5c-0.1,0.1-0.3,0.1-0.5,0.1c-0.2,0-0.3-0.1-0.4-0.2c-0.2-0.2-0.3-0.3-0.3-0.5
		s0-0.4,0.1-0.6c0.1-0.2,0.1-0.3,0.2-0.5c0.1-0.2,0.2-0.3,0.3-0.5c-0.3,0-0.5,0-0.7-0.1c-0.2-0.1-0.4-0.3-0.4-0.5c0-0.1,0-0.1,0-0.2
		s0.1-0.2,0.1-0.3s0.1-0.2,0.2-0.2c0.1-0.1,0.2-0.1,0.4-0.1c0.2,0,0.4-0.1,0.6-0.1c0.2,0,0.4-0.1,0.5-0.2c0.3-0.5,0.6-1.1,0.9-1.7
		c0.3-0.7,0.7-1.3,1-2c0.3-0.7,0.7-1.4,1-2.1c0.3-0.7,0.7-1.4,0.9-2c0.3-0.6,0.6-1.2,0.8-1.6c0.2-0.5,0.4-0.8,0.6-1.1
		c0-0.2,0.1-0.3,0.2-0.5c0.1-0.2,0.3-0.2,0.6-0.2c0.2,0,0.3,0,0.5,0.1c0.1,0.1,0.2,0.2,0.3,0.4c0.3,0.7,0.6,1.5,0.9,2.2
		c0.3,0.8,0.6,1.6,0.9,2.3c0.3,0.8,0.6,1.5,0.8,2.2c0.3,0.7,0.5,1.3,0.8,1.8c0.2,0,0.3-0.1,0.5-0.1c0.2,0,0.3-0.1,0.4-0.1
		c0.2,0,0.3,0,0.5,0.1c0.2,0.1,0.3,0.3,0.4,0.6c0,0.1,0,0.2-0.1,0.4s-0.2,0.3-0.4,0.3c-0.1,0-0.2,0.1-0.3,0.1s-0.2,0.1-0.3,0.1
		c0,0.1,0.1,0.2,0.1,0.3s0.1,0.2,0.2,0.3c0.1,0.1,0.2,0.3,0.3,0.5c0.1,0.2,0.2,0.4,0.3,0.6c0.1,0.2,0.2,0.4,0.3,0.6
		C193.4,68.8,193.5,69,193.5,69.1z M189.8,65.3c-0.5-1.1-0.9-2.3-1.3-3.4c-0.4-1.2-0.8-2.3-1.3-3.4c-0.3,0.6-0.6,1.2-0.9,1.9
		c-0.3,0.7-0.7,1.4-1,2.2c-0.3,0.7-0.7,1.5-1,2.2c-0.3,0.7-0.7,1.4-1,2c0.5-0.1,1-0.2,1.6-0.3c0.5-0.1,1.1-0.2,1.7-0.4
		c0.6-0.1,1.1-0.3,1.7-0.4C188.7,65.5,189.3,65.4,189.8,65.3z"/>
	<path fill="#010101" d="M203,65.8c0,0.4-0.1,0.8-0.4,1.2c-0.3,0.4-0.7,0.7-1.2,1c-0.1,0-0.2,0.1-0.3,0.2c-0.1,0.1-0.3,0.1-0.4,0.2
		s-0.3,0.1-0.5,0.2c-0.2,0.1-0.3,0.1-0.4,0.2c-0.1,0.1-0.3,0.2-0.5,0.3c-0.2,0.1-0.4,0.2-0.6,0.3c-0.2,0.1-0.4,0.2-0.7,0.2
		c-0.2,0.1-0.4,0.1-0.6,0.1c-0.3,0-0.5-0.1-0.7-0.2c-0.2-0.1-0.3-0.3-0.3-0.5c0-0.3,0.1-0.5,0.4-0.8c0.1-0.1,0.3-0.2,0.5-0.2
		s0.4,0,0.5,0.1c0.1,0,0.1,0,0.2-0.1s0.2-0.1,0.4-0.1c0.1-0.1,0.3-0.1,0.4-0.2s0.2-0.1,0.4-0.2c0.1-0.1,0.2-0.1,0.3-0.2
		s0.3-0.1,0.4-0.2c0.1-0.1,0.2-0.1,0.4-0.1c0.1,0,0.2-0.1,0.2-0.1c0.2-0.1,0.4-0.3,0.5-0.4c0.1-0.2,0.2-0.3,0.2-0.4
		c0-0.2-0.1-0.3-0.2-0.5c-0.2-0.2-0.4-0.3-0.6-0.4c-0.2-0.1-0.4-0.2-0.7-0.3c-0.3-0.1-0.6-0.2-1-0.3c-0.3-0.1-0.7-0.2-1.1-0.3
		c-0.4-0.1-0.7-0.2-1.1-0.2c-0.1,0.9-0.2,1.8-0.3,2.8s-0.2,2-0.2,3s-0.1,1.9-0.1,2.9c0,0.9,0,1.8,0,2.6c0.2,0.1,0.3,0.3,0.4,0.6
		c0,0.1,0,0.3-0.1,0.5s-0.2,0.3-0.3,0.5c-0.1,0.2-0.3,0.3-0.5,0.3c-0.2,0.1-0.3,0.1-0.5,0s-0.3-0.1-0.4-0.2
		c-0.1-0.1-0.2-0.3-0.2-0.5c0-0.1,0-0.2-0.1-0.4s0-0.3,0-0.5c0-1,0-2.1,0-3.1c0-1,0.1-2.1,0.1-3.1s0.1-2,0.2-2.9
		c0.1-0.9,0.1-1.8,0.2-2.6c-0.1,0-0.2,0-0.3,0s-0.2,0-0.3,0c-0.1,0-0.2,0-0.3,0c-0.1,0-0.2,0-0.3,0c-0.2-0.1-0.3-0.2-0.4-0.3
		c-0.1-0.1-0.1-0.3-0.1-0.4c0-0.2,0.1-0.4,0.2-0.6c0.2-0.2,0.4-0.3,0.7-0.2c1.5,0.1,2.8,0.3,3.9,0.6c1.2,0.3,2.2,0.7,3,1.1
		c0.6,0.3,1,0.6,1.3,1C202.8,65,203,65.4,203,65.8z"/>
	<path fill="#010101" d="M212.1,65.8c0,0.4-0.1,0.8-0.4,1.2s-0.7,0.7-1.2,1c-0.1,0-0.2,0.1-0.3,0.2c-0.1,0.1-0.3,0.1-0.4,0.2
		c-0.2,0.1-0.3,0.1-0.5,0.2c-0.2,0.1-0.3,0.1-0.4,0.2c-0.1,0.1-0.3,0.2-0.5,0.3c-0.2,0.1-0.4,0.2-0.6,0.3c-0.2,0.1-0.4,0.2-0.7,0.2
		c-0.2,0.1-0.4,0.1-0.6,0.1c-0.3,0-0.5-0.1-0.7-0.2c-0.2-0.1-0.3-0.3-0.3-0.5c0-0.3,0.1-0.5,0.4-0.8c0.1-0.1,0.3-0.2,0.5-0.2
		c0.2,0,0.4,0,0.5,0.1c0.1,0,0.1,0,0.2-0.1c0.1,0,0.2-0.1,0.4-0.1c0.1-0.1,0.3-0.1,0.4-0.2c0.1-0.1,0.2-0.1,0.4-0.2
		c0.1-0.1,0.2-0.1,0.3-0.2c0.1-0.1,0.3-0.1,0.4-0.2s0.2-0.1,0.4-0.1c0.1,0,0.2-0.1,0.2-0.1c0.2-0.1,0.4-0.3,0.5-0.4
		c0.1-0.2,0.2-0.3,0.2-0.4c0-0.2-0.1-0.3-0.2-0.5c-0.2-0.2-0.4-0.3-0.6-0.4c-0.2-0.1-0.4-0.2-0.7-0.3c-0.3-0.1-0.6-0.2-1-0.3
		c-0.3-0.1-0.7-0.2-1.1-0.3s-0.7-0.2-1.1-0.2c-0.1,0.9-0.2,1.8-0.3,2.8s-0.2,2-0.2,3s-0.1,1.9-0.1,2.9s0,1.8,0,2.6
		c0.2,0.1,0.3,0.3,0.4,0.6c0,0.1,0,0.3-0.1,0.5c-0.1,0.2-0.2,0.3-0.3,0.5c-0.1,0.2-0.3,0.3-0.5,0.3c-0.2,0.1-0.3,0.1-0.5,0
		c-0.1,0-0.3-0.1-0.4-0.2c-0.1-0.1-0.2-0.3-0.2-0.5c0-0.1,0-0.2-0.1-0.4s0-0.3,0-0.5c0-1,0-2.1,0-3.1c0-1,0.1-2.1,0.1-3.1
		s0.1-2,0.2-2.9s0.1-1.8,0.2-2.6c-0.1,0-0.2,0-0.3,0c-0.1,0-0.2,0-0.3,0c-0.1,0-0.2,0-0.3,0c-0.1,0-0.2,0-0.3,0
		c-0.2-0.1-0.3-0.2-0.4-0.3c-0.1-0.1-0.1-0.3-0.1-0.4c0-0.2,0.1-0.4,0.2-0.6c0.2-0.2,0.4-0.3,0.7-0.2c1.5,0.1,2.8,0.3,3.9,0.6
		c1.2,0.3,2.2,0.7,3,1.1c0.6,0.3,1,0.6,1.3,1C212,65,212.1,65.4,212.1,65.8z"/>
</g>
<g>
	<g>
		<path fill="#010101" d="M7,218.9c-0.9,7.2-2.3,14.2-1.9,21.5c0.3,5.4,1.9,11.1,3.8,16.2c3.1,8.3,9.1,13.8,17.5,16.3
			c5.9,1.7,12.6,1.7,18.7,2c7.9,0.3,15.7-0.1,23.6-0.6c14.6-0.9,29-1.2,43.4-3.4c9.6-1.5,19.2-3.3,20.1-14.6
			c0.4-5.3-0.6-10.8-0.4-16.2c0.2-6,0.4-12-1.1-17.8c-2.5-10-11.6-14-20.9-15.3c-11.1-1.6-23-1.1-34.2-1.4c-14.8-0.4-29.7,0-44.5,0
			c-8,0-20.2,2.5-23.8,10.9c-0.9,2.2,2.3,4.1,3.2,1.9c2.1-4.9,8.6-7.3,13.3-8.5c6.5-1.8,14.6-0.5,21.3-0.6
			c14.9-0.1,29.8,0.3,44.7,0.6c10.4,0.2,23.8-1.4,32.6,5.6c9.5,7.5,4.9,24.7,5.8,35.1c0.3,3.1,0.4,6.1-0.4,9.2
			c-0.9,3.5-4.7,4.9-7.8,5.8c-6.2,1.9-13.4,2.5-19.8,3.2c-15.1,1.6-30.8,2.1-46,2.4c-12,0.2-28.6,1.4-37.5-8.3
			c-8.4-9.2-8.7-24.9-7-36.3c0.4-2.6,0.7-5.1,1-7.7C11,216.5,7.3,216.5,7,218.9L7,218.9z"/>
	</g>
</g>
<g enable-background="new    ">
	<path fill="#010101" d="M41.7,232.2c-0.2,0.3-0.4,0.4-0.8,0.4c-0.2,0-0.3,0-0.5-0.1c-0.2-0.1-0.4-0.2-0.5-0.3c-0.3,0-0.8,0-1.3,0
		c-0.6,0-1.3,0-2,0.1c-0.8,0-1.6,0-2.5,0c-0.9,0-1.9,0-2.8,0c0,0.6,0,1.2,0.1,1.9s0.1,1.2,0.1,1.8c0.4,0,0.9,0,1.5-0.1
		c0.6,0,1.2-0.1,1.8-0.1c0.6-0.1,1.2-0.1,1.8-0.2c0.6-0.1,1-0.1,1.4-0.2c0.3,0,0.6-0.1,0.9-0.3c0.2-0.1,0.4-0.2,0.6-0.1
		s0.3,0.1,0.5,0.3c0.2,0.2,0.2,0.4,0.2,0.7c0,0.3-0.1,0.5-0.4,0.7c-0.2,0.1-0.4,0.2-0.7,0.3c-0.3,0.1-0.6,0.1-0.9,0.2
		c-0.4,0.1-0.9,0.1-1.5,0.2c-0.6,0.1-1.1,0.1-1.7,0.1c-0.6,0-1.2,0.1-1.8,0.1c-0.6,0-1.2,0.1-1.7,0.1c0,0.4,0,1,0.1,1.6
		s0.1,1.3,0.1,2c0,0.7,0.1,1.4,0.1,2.1c0,0.7,0.1,1.3,0.1,1.9c0,0.3,0,0.5-0.2,0.6c-0.2,0.1-0.4,0.2-0.6,0.2c-0.2,0-0.4-0.1-0.6-0.2
		c-0.2-0.1-0.3-0.3-0.3-0.6c0-0.6-0.1-1.2-0.1-1.9c0-0.7-0.1-1.3-0.1-2c0-0.7-0.1-1.3-0.1-1.9s0-1.2,0-1.7c-0.2,0-0.5-0.1-0.7-0.1
		c-0.2-0.1-0.3-0.2-0.4-0.3s-0.1-0.3-0.2-0.4c0-0.1,0-0.2,0.1-0.4c0.1-0.1,0.2-0.2,0.3-0.3c0.1,0,0.3-0.1,0.4-0.1
		c0.1,0,0.3-0.1,0.4-0.1c0-0.4,0-1-0.1-1.7c0-0.7-0.1-1.4-0.1-2c-0.1,0-0.3,0-0.5,0c-0.2,0-0.4,0-0.6,0c-0.2,0.2-0.5,0.3-1,0.1
		c-0.3-0.1-0.6-0.3-0.7-0.5s-0.2-0.4-0.3-0.6c0-0.2,0.1-0.5,0.3-0.6s0.5-0.2,0.9-0.2c0.8,0.1,1.8,0.1,2.9,0.1c1.1,0,2.3,0,3.5,0
		c1.2,0,2.3,0,3.3-0.1c1.1,0,1.9,0,2.6,0c0.3,0,0.7,0,1,0.1c0.3,0.1,0.5,0.2,0.6,0.3c0.2,0.2,0.3,0.5,0.3,0.7
		C41.9,231.9,41.9,232.1,41.7,232.2z"/>
	<path fill="#010101" d="M50.1,242.4c0.1,0.2,0.1,0.4,0.1,0.6c-0.1,0.2-0.2,0.4-0.5,0.5c-0.4,0.1-0.8,0.3-1.4,0.5
		c-0.6,0.2-1.2,0.4-1.8,0.6c-0.7,0.2-1.4,0.3-2.1,0.4c-0.7,0.1-1.5,0.1-2.2,0c-0.7-0.1-1.3-0.4-1.6-0.8c-0.7-0.7-0.9-1.6-0.7-2.9
		c0.1-0.6,0.2-1.1,0.4-1.6c0.2-0.5,0.4-1,0.7-1.4c0.2-0.4,0.5-0.8,0.7-1.1s0.5-0.6,0.7-0.8c0.2-0.2,0.4-0.4,0.6-0.6
		c0.2-0.2,0.4-0.3,0.6-0.4c0.2-0.1,0.4-0.2,0.6-0.2c0.2-0.1,0.5-0.1,0.7-0.1c0.2,0,0.5,0,0.7,0c0.2,0,0.4,0.1,0.6,0.2
		c0.2,0.1,0.4,0.3,0.5,0.5c0.1,0.2,0.2,0.4,0.3,0.7s0.1,0.5,0,0.8c0,0.3-0.1,0.6-0.1,0.8c-0.1,0.5-0.4,1-0.8,1.4
		c-0.4,0.4-0.8,0.8-1.3,1.2c-0.5,0.3-1.1,0.6-1.6,0.8c-0.6,0.2-1.1,0.4-1.7,0.4c0,0.4,0,0.7,0.2,0.9c0.2,0.2,0.4,0.4,0.8,0.4
		c0.5,0.1,1.1,0.1,1.7,0c0.6-0.1,1.2-0.2,1.8-0.4c0.6-0.2,1.2-0.4,1.7-0.6c0.5-0.2,1-0.4,1.3-0.5c0.2-0.1,0.4-0.1,0.6,0
		C49.9,242.1,50,242.3,50.1,242.4z M45.3,237.9c0.1-0.5,0.1-0.8-0.1-0.9c-0.1-0.1-0.3-0.1-0.5-0.1c-0.2,0-0.3,0.1-0.5,0.2
		c-0.2,0.1-0.4,0.3-0.7,0.6c-0.3,0.3-0.6,0.7-0.9,1.2c-0.3,0.5-0.5,0.9-0.7,1.4c0.3-0.1,0.7-0.2,1.1-0.3c0.4-0.2,0.7-0.3,1-0.6
		c0.3-0.2,0.6-0.4,0.8-0.7C45.1,238.5,45.3,238.2,45.3,237.9z"/>
	<path fill="#010101" d="M62.1,242.3c0.2,0.2,0.2,0.4,0.2,0.7c0,0.3-0.2,0.5-0.4,0.6c-0.5,0.3-1.1,0.6-1.8,0.8
		c-0.7,0.2-1.3,0.4-1.9,0.4c-0.7,0.1-1.2,0-1.6-0.1s-0.7-0.4-0.9-0.8c-0.1-0.1-0.2-0.3-0.3-0.6c-0.1-0.3-0.1-0.5-0.1-0.7
		c0-0.1-0.1-0.2-0.2-0.2c-0.1,0-0.2,0-0.3,0.1c-0.2,0.1-0.4,0.3-0.6,0.4s-0.5,0.4-0.8,0.6c-0.3,0.2-0.5,0.5-0.8,0.7
		c-0.3,0.2-0.5,0.5-0.8,0.7c-0.6,0.4-1.1,0.7-1.6,0.7c-0.5,0-0.9-0.1-1.2-0.4c-0.4-0.4-0.6-0.9-0.6-1.6c0-0.3,0.1-0.7,0.2-1
		c0.1-0.3,0.2-0.6,0.4-1c0.2-0.5,0.5-0.9,0.9-1.4c0.3-0.4,0.7-0.9,1.1-1.3c0.4-0.4,0.8-0.7,1.1-1.1c0.4-0.3,0.7-0.6,1.1-0.8
		c0.3-0.2,0.6-0.4,0.9-0.6c0.4-0.2,0.7-0.4,1.1-0.5s0.8-0.1,1.3-0.1c0.4,0.1,0.9,0.3,1.3,0.6c0.2,0.2,0.3,0.4,0.3,0.6
		c0,0.2,0,0.4-0.1,0.6c-0.1,0.2-0.3,0.4-0.6,0.4c-0.3,0.1-0.5,0-0.8-0.1c-0.4-0.3-0.7-0.4-1.2-0.3c-0.4,0.1-0.9,0.3-1.5,0.7
		c-0.3,0.2-0.6,0.4-0.9,0.7c-0.3,0.3-0.7,0.6-1,1c-0.3,0.4-0.6,0.7-0.9,1.1s-0.5,0.7-0.7,1.1c-0.1,0.2-0.2,0.4-0.2,0.7
		c0,0.3,0,0.4,0.1,0.5c0.2,0.1,0.4,0.1,0.7-0.2c0.2-0.2,0.5-0.4,0.9-0.7c0.3-0.3,0.7-0.6,1.1-0.9c0.4-0.3,0.7-0.6,1.1-0.9
		c0.4-0.3,0.7-0.5,1-0.7c0.2-0.1,0.5-0.2,0.7-0.3s0.4-0.1,0.6,0c0.2,0,0.3,0.1,0.4,0.3c0.1,0.2,0.2,0.4,0.2,0.6c0,0.3,0,0.6,0,0.9
		s0.1,0.5,0.1,0.7c0.1,0.3,0.2,0.4,0.4,0.5c0.2,0.1,0.4,0.1,0.6,0.1c0.2,0,0.4-0.1,0.7-0.1c0.3-0.1,0.5-0.1,0.8-0.2s0.5-0.2,0.8-0.3
		s0.5-0.2,0.7-0.3c0.2-0.1,0.4-0.1,0.6-0.1S62,242.2,62.1,242.3z"/>
	<path fill="#010101" d="M68.4,238.2c0,0.2-0.1,0.4-0.2,0.5s-0.4,0.2-0.6,0.3c-0.3,0-0.8,0-1.5,0c-0.6,0-1.3,0-1.9,0
		c0,0.4,0,0.9,0,1.3s0.1,0.9,0.1,1.4c0.1,0.4,0.1,0.9,0.2,1.3c0.1,0.4,0.1,0.7,0.2,1c0.1,0.3,0,0.5-0.1,0.7
		c-0.1,0.2-0.3,0.3-0.5,0.3c-0.2,0.1-0.4,0-0.7-0.1s-0.4-0.3-0.5-0.7c-0.2-0.7-0.3-1.5-0.4-2.4s-0.2-1.9-0.2-2.9h-1.7
		c-0.3,0-0.5-0.1-0.6-0.2c-0.1-0.2-0.2-0.4-0.2-0.6s0.1-0.4,0.2-0.6c0.1-0.2,0.4-0.3,0.6-0.3c0.2,0,0.4,0,0.7,0c0.3,0,0.6,0,0.9,0
		c0-0.5,0-1,0.1-1.6c0-0.6,0.1-1.3,0.2-1.9c0.1-0.7,0.2-1.3,0.3-2c0.1-0.7,0.2-1.3,0.4-1.9c-0.2-0.1-0.2-0.2-0.2-0.4
		c0-0.1,0.1-0.2,0.2-0.4c0.1-0.1,0.2-0.3,0.3-0.4c0-0.1,0.1-0.2,0.1-0.2s0.1-0.2,0.1-0.2c0.1-0.2,0.3-0.4,0.5-0.4s0.4,0,0.6,0.1
		c0.2,0.1,0.3,0.2,0.4,0.4c0.1,0.2,0.2,0.4,0.1,0.6c0,0.2,0,0.3-0.1,0.4c-0.1,0.1-0.1,0.2-0.2,0.4c-0.1,0.5-0.3,1.1-0.4,1.7
		c-0.1,0.7-0.2,1.3-0.3,2c-0.1,0.7-0.2,1.4-0.2,2.1c-0.1,0.7-0.1,1.3-0.1,1.9c0.2,0,0.4,0,0.7,0c0.3,0,0.6,0,0.9,0
		c0.3,0,0.7,0,1,0.1c0.3,0,0.6,0,0.8,0.1c0.2,0,0.4,0.1,0.5,0.3C68.4,237.8,68.4,238,68.4,238.2z"/>
	<path fill="#010101" d="M83.3,242.5c0.1,0.2,0.1,0.4,0.1,0.6c0,0.2-0.2,0.4-0.4,0.6c-0.4,0.2-0.8,0.4-1.3,0.6s-1.1,0.3-1.7,0.4
		c-0.5,0.1-1.1,0-1.6-0.1c-0.5-0.2-0.9-0.4-1.2-0.9c-0.1-0.2-0.2-0.4-0.3-0.7c-0.1-0.2-0.1-0.5-0.1-0.9c-0.3,0.4-0.7,0.8-1.1,1.3
		c-0.4,0.4-0.9,0.8-1.3,1c-0.6,0.4-1.2,0.7-1.8,0.8c-0.6,0.1-1.2,0.1-1.7,0c-0.4-0.1-0.8-0.3-1.1-0.6c-0.3-0.3-0.6-0.7-0.7-1.1
		c-0.1-0.4-0.2-0.9-0.2-1.4c0-0.5,0-1,0-1.6s0.1-1,0.2-1.4c0.1-0.4,0.2-0.8,0.3-1.1c0.1-0.2,0.2-0.4,0.4-0.5
		c0.2-0.1,0.4-0.2,0.6-0.2c0.2,0,0.4,0.1,0.6,0.3c0.2,0.2,0.2,0.4,0.1,0.7c-0.1,0.3-0.2,0.7-0.3,1.1c-0.1,0.4-0.1,0.8-0.2,1.2
		s-0.1,0.8,0,1.2c0,0.4,0.1,0.7,0.1,0.9c0.1,0.4,0.4,0.6,0.7,0.8c0.3,0.1,0.6,0.1,0.9,0c0.4-0.1,0.7-0.2,1.1-0.5
		c0.9-0.6,1.6-1.4,2.2-2.2c0.6-0.8,1-1.6,1.3-2.3c0.1-0.2,0.2-0.4,0.4-0.4c0.2-0.1,0.4-0.1,0.6-0.1c0.2,0.1,0.4,0.2,0.5,0.3
		s0.2,0.4,0.1,0.6c-0.2,0.7-0.3,1.3-0.3,1.8s0,1,0.2,1.4c0.1,0.3,0.3,0.5,0.5,0.6c0.2,0.1,0.5,0.1,0.8,0.1c0.4,0,0.9-0.1,1.3-0.3
		s0.8-0.3,1.1-0.5c0.3-0.2,0.5-0.2,0.7-0.1C83.1,242.1,83.2,242.3,83.3,242.5z"/>
	<path fill="#010101" d="M91.1,239.5c-0.1,0.2-0.2,0.3-0.4,0.3c-0.2,0.1-0.4,0-0.6-0.1c-0.2-0.1-0.3-0.1-0.4-0.1c-0.1,0-0.3,0-0.4,0
		c-0.2,0-0.5,0.1-0.9,0.2c-0.3,0.1-0.7,0.2-1,0.4c-0.4,0.2-0.7,0.3-1.1,0.5c-0.4,0.2-0.7,0.4-1,0.6c-0.3,0.2-0.5,0.3-0.7,0.5
		c-0.2,0.2-0.3,0.3-0.4,0.5c-0.1,0.2-0.2,0.4-0.3,0.6c0,0.2-0.1,0.4-0.1,0.6c0,0.3-0.1,0.5-0.3,0.6c-0.2,0.1-0.3,0.2-0.6,0.2
		c-0.2,0-0.4-0.1-0.6-0.2c-0.2-0.2-0.3-0.4-0.3-0.7c0-0.3,0-0.6,0-1c0-0.4,0-0.8,0-1.2c0-0.4,0-0.8,0-1.1s0-0.7,0.1-1
		c-0.1,0-0.2-0.1-0.2-0.2c0-0.1,0-0.2,0.1-0.3c0.1-0.1,0.2-0.3,0.2-0.4c0.1-0.1,0.1-0.3,0.2-0.4c0.1-0.2,0.2-0.3,0.4-0.4
		c0.2-0.1,0.4-0.1,0.6,0c0.2,0.1,0.3,0.2,0.4,0.3s0.2,0.3,0.1,0.5c0,0.1-0.1,0.3-0.1,0.5c0,0.2-0.1,0.4-0.1,0.6s0,0.4,0,0.6
		c0,0.2,0,0.4,0,0.5c0.1-0.1,0.2-0.2,0.3-0.3c0.1-0.1,0.2-0.2,0.3-0.3c0.3-0.2,0.7-0.5,1.2-0.7c0.4-0.2,0.9-0.4,1.4-0.6
		c0.5-0.2,0.9-0.3,1.4-0.5c0.5-0.1,0.9-0.2,1.2-0.2c0.3,0,0.6,0,0.8,0.1c0.2,0.1,0.4,0.2,0.6,0.3c0.2,0.2,0.3,0.4,0.3,0.6
		C91.3,239.1,91.3,239.3,91.1,239.5z"/>
	<path fill="#010101" d="M101.7,242.4c0.1,0.2,0.1,0.4,0.1,0.6c-0.1,0.2-0.2,0.4-0.5,0.5c-0.4,0.1-0.8,0.3-1.4,0.5
		c-0.6,0.2-1.2,0.4-1.8,0.6c-0.7,0.2-1.4,0.3-2.1,0.4c-0.7,0.1-1.5,0.1-2.2,0c-0.7-0.1-1.3-0.4-1.6-0.8c-0.7-0.7-0.9-1.6-0.7-2.9
		c0.1-0.6,0.2-1.1,0.4-1.6c0.2-0.5,0.4-1,0.7-1.4c0.2-0.4,0.5-0.8,0.7-1.1s0.5-0.6,0.7-0.8c0.2-0.2,0.4-0.4,0.6-0.6
		c0.2-0.2,0.4-0.3,0.6-0.4c0.2-0.1,0.4-0.2,0.6-0.2c0.2-0.1,0.5-0.1,0.7-0.1c0.2,0,0.5,0,0.7,0c0.2,0,0.4,0.1,0.6,0.2
		c0.2,0.1,0.4,0.3,0.5,0.5c0.1,0.2,0.2,0.4,0.3,0.7s0.1,0.5,0,0.8c0,0.3-0.1,0.6-0.1,0.8c-0.1,0.5-0.4,1-0.8,1.4
		c-0.4,0.4-0.8,0.8-1.3,1.2c-0.5,0.3-1.1,0.6-1.6,0.8c-0.6,0.2-1.1,0.4-1.7,0.4c0,0.4,0,0.7,0.2,0.9c0.2,0.2,0.4,0.4,0.8,0.4
		c0.5,0.1,1.1,0.1,1.7,0c0.6-0.1,1.2-0.2,1.8-0.4c0.6-0.2,1.2-0.4,1.7-0.6c0.5-0.2,1-0.4,1.3-0.5c0.2-0.1,0.4-0.1,0.6,0
		C101.5,242.1,101.6,242.3,101.7,242.4z M97,237.9c0.1-0.5,0.1-0.8-0.1-0.9c-0.1-0.1-0.3-0.1-0.5-0.1c-0.2,0-0.3,0.1-0.5,0.2
		c-0.2,0.1-0.4,0.3-0.7,0.6c-0.3,0.3-0.6,0.7-0.9,1.2c-0.3,0.5-0.5,0.9-0.7,1.4c0.3-0.1,0.7-0.2,1.1-0.3c0.4-0.2,0.7-0.3,1-0.6
		c0.3-0.2,0.6-0.4,0.8-0.7C96.7,238.5,96.9,238.2,97,237.9z"/>
	<path fill="#010101" d="M116.4,241.8c0,0.6-0.1,1.2-0.4,1.9c-0.3,0.6-0.7,1.3-1.4,1.9c-0.5,0.5-1,0.9-1.6,1.3
		c-0.6,0.4-1.2,0.8-1.9,1.2s-1.3,0.7-2,1c-0.7,0.3-1.4,0.5-2,0.7c-0.4,0.1-0.8,0.1-1.2,0.1s-0.7-0.2-1-0.4c-0.2-0.2-0.3-0.4-0.3-0.7
		c0-0.2,0.1-0.4,0.3-0.6c0.1-0.1,0.3-0.2,0.4-0.3s0.4,0,0.5,0.1c0.1,0.1,0.2,0.1,0.4,0.1c0.2,0,0.3,0,0.5-0.1c0.5-0.1,1-0.3,1.6-0.5
		c0.6-0.2,1.2-0.5,1.8-0.8c0.6-0.3,1.2-0.7,1.7-1.1c0.6-0.4,1-0.8,1.4-1.2c0.8-0.9,1.2-1.7,1.2-2.4c0-0.4-0.1-0.8-0.4-1.1
		s-0.6-0.7-1.1-1.1c-0.2-0.1-0.4-0.2-0.6-0.3c-0.3-0.1-0.6-0.2-0.9-0.2c-0.3-0.1-0.7-0.1-1-0.1c-0.4,0-0.7,0-1,0
		c-0.4,0-0.7-0.1-0.9-0.2c-0.2-0.1-0.4-0.4-0.6-0.7c-0.1-0.2-0.1-0.5-0.1-0.7c0.1-0.3,0.2-0.5,0.5-0.6c0.5-0.4,1.1-0.7,1.7-1
		c0.6-0.3,1.2-0.7,1.9-1.1c0.5-0.4,0.7-0.7,0.6-1c-0.1-0.2-0.4-0.4-1-0.5c-0.3,0-0.6-0.1-1.1-0.1c-0.4-0.1-0.9-0.1-1.4-0.2
		c-0.5-0.1-1-0.1-1.5-0.2c-0.5-0.1-1-0.2-1.5-0.2c0,0.7,0,1.5-0.1,2.3c0,0.8-0.1,1.7-0.1,2.6c0,0.9-0.1,1.7-0.1,2.5s0,1.6,0,2.2
		c0,0.4,0.2,0.6,0.5,0.8c0.3,0.2,0.4,0.4,0.5,0.6c0,0.2,0,0.4-0.1,0.6c-0.1,0.2-0.3,0.3-0.5,0.4c-0.2,0.1-0.4,0.1-0.7,0
		c-0.3-0.1-0.7-0.4-1-0.7c-0.3-0.3-0.5-0.8-0.5-1.4c0-0.7-0.1-1.5,0-2.4c0-0.9,0-1.8,0.1-2.7c0-0.9,0.1-1.8,0.1-2.7
		c0-0.9,0.1-1.7,0.1-2.4c-0.4-0.1-0.7-0.1-1-0.2c-0.3-0.1-0.7-0.2-1-0.3c-0.3-0.1-0.6-0.2-0.9-0.3s-0.5-0.2-0.7-0.3
		c-0.3-0.2-0.4-0.3-0.4-0.6c0-0.2,0-0.4,0.2-0.6c0.1-0.2,0.3-0.3,0.5-0.4c0.2-0.1,0.4,0,0.7,0.1c0.2,0.1,0.5,0.2,0.9,0.4
		s0.8,0.2,1.3,0.3c0.5,0.1,1.1,0.2,1.7,0.3c0.6,0.1,1.2,0.2,1.9,0.3c0.8,0.1,1.6,0.2,2.3,0.3c0.7,0.1,1.4,0.2,2,0.2
		c0.8,0.1,1.5,0.3,2,0.6c0.5,0.3,0.8,0.6,0.9,1c0.1,0.4,0.1,0.8-0.1,1.3c-0.2,0.5-0.6,0.9-1.2,1.3c-0.5,0.3-0.9,0.6-1.2,0.8
		s-0.7,0.4-1.1,0.6c-0.1,0.1-0.2,0.2-0.2,0.3c0,0.1,0.1,0.2,0.3,0.2c0.2,0,0.4,0,0.7,0.1c0.3,0,0.5,0.1,0.8,0.1s0.5,0.1,0.8,0.2
		c0.3,0.1,0.5,0.2,0.7,0.3c0.7,0.4,1.2,1,1.6,1.5C116.2,240.4,116.4,241.1,116.4,241.8z"/>
</g>
<g>
</g>
<g>
</g>
<g>
</g>
<g>
</g>
<g>
</g>
<g>
</g>
</svg>
