<?xml version="1.0" encoding="utf-8"?>
<!-- Generator: Adobe Illustrator 17.1.0, SVG Export Plug-In . SVG Version: 6.00 Build 0)  -->
<!DOCTYPE svg PUBLIC "-//W3C//DTD SVG 1.1//EN" "http://www.w3.org/Graphics/SVG/1.1/DTD/svg11.dtd">
<svg version="1.1" id="Layer_1" xmlns="http://www.w3.org/2000/svg" xmlns:xlink="http://www.w3.org/1999/xlink" x="0px" y="0px"
	 viewBox="0 0 300 300" enable-background="new 0 0 300 300" xml:space="preserve">
<g>
	<g>
		<path fill="#010101" d="M173.8,42.3c-0.7,7.2-1.9,14.3-1.7,21.5c0.2,5.7,1.7,11.6,3.6,17c3,8.7,9.3,14.4,18.4,16.2
			c14.5,2.9,29.7,0.6,44.3,0c11.8-0.5,25.6-0.8,36.6-5.6c10-4.4,6.2-18.1,6.5-26.6c0.3-10,1.4-22.4-6.9-29.7
			c-7.2-6.3-18.7-5.6-27.5-5.6c-14.3-0.1-28.5-0.7-42.8-0.6c-10.4,0.1-25.6-0.8-30.1,11.4c-0.8,2.3,2.8,3.2,3.6,1
			c1.8-4.8,8.2-7.5,12.8-8.5c2.6-0.6,5.7-0.1,8.4-0.1c3.5,0,7.1-0.1,10.6-0.1c12.9-0.1,25.8,0.5,38.8,0.6c10.1,0.1,23.6-0.5,28,10.7
			c2,5.1,1.8,11.2,1.7,16.6c-0.1,5.5,0,10.8,0.2,16.2c0.3,7.3-2.4,11-9.4,12.8c-6.2,1.6-12.9,2.4-19.3,3
			c-13.9,1.2-28.3,2.3-42.3,1.9c-12.3-0.4-23-2.1-27.7-14.6s-3.1-24.7-1.8-37.6C177.8,39.9,174.1,39.9,173.8,42.3L173.8,42.3z"/>
	</g>
</g>
<g>
	<g>
		<path fill="#010101" d="M173.8,123.9c-0.7,7.2-1.9,14.3-1.7,21.5c0.2,5.7,1.7,11.6,3.6,17c3,8.7,9.3,14.4,18.4,16.2
			c14.5,2.9,29.7,0.6,44.3,0c11.8-0.5,25.6-0.8,36.6-5.6c10-4.4,6.2-18.1,6.5-26.6c0.3-10,1.4-22.4-6.9-29.7
			c-7.2-6.3-18.7-5.6-27.5-5.6c-14.3-0.1-28.5-0.7-42.8-0.6c-10.4,0.1-25.6-0.8-30.1,11.4c-0.8,2.3,2.8,3.2,3.6,1
			c1.8-4.8,8.2-7.5,12.8-8.5c2.6-0.6,5.7-0.1,8.4-0.1c3.5,0,7.1-0.1,10.6-0.1c12.9-0.1,25.8,0.5,38.8,0.6c10.1,0.1,23.6-0.5,28,10.7
			c2,5.1,1.8,11.2,1.7,16.6c-0.1,5.5,0,10.8,0.2,16.2c0.3,7.3-2.4,11-9.4,12.8c-6.2,1.6-12.9,2.4-19.3,3
			c-13.9,1.2-28.3,2.3-42.3,1.9c-12.3-0.4-23-2.1-27.7-14.6s-3.1-24.7-1.8-37.6C177.8,121.5,174.1,121.5,173.8,123.9L173.8,123.9z"
			/>
	</g>
</g>
<g>
	<g>
		<path fill="#010101" d="M173.8,212.4c-0.7,7.2-1.9,14.3-1.7,21.5c0.2,5.7,1.7,11.6,3.6,17c3,8.7,9.3,14.4,18.4,16.2
			c14.5,2.9,29.7,0.6,44.3,0c11.8-0.5,25.6-0.8,36.6-5.6c10-4.4,6.2-18.1,6.5-26.6c0.3-10,1.4-22.4-6.9-29.7
			c-7.2-6.3-18.7-5.6-27.5-5.6c-14.3-0.1-28.5-0.7-42.8-0.6c-10.4,0.1-25.6-0.8-30.1,11.4c-0.8,2.3,2.8,3.2,3.6,1
			c1.8-4.8,8.2-7.5,12.8-8.5c2.6-0.6,5.7-0.1,8.4-0.1c3.5,0,7.1-0.1,10.6-0.1c12.9-0.1,25.8,0.5,38.8,0.6c10.1,0.1,23.6-0.5,28,10.7
			c2,5.1,1.8,11.2,1.7,16.6c-0.1,5.5,0,10.8,0.2,16.2c0.3,7.3-2.4,11-9.4,12.8c-6.2,1.6-12.9,2.4-19.3,3
			c-13.9,1.2-28.3,2.3-42.3,1.9c-12.3-0.4-23-2.1-27.7-14.6s-3.1-24.7-1.8-37.6C177.8,210,174.1,210.1,173.8,212.4L173.8,212.4z"/>
	</g>
</g>
<g enable-background="new    ">
	<path fill="#010101" d="M201.2,50.5c0.4,0.3,0.4,0.8,0,1.3c-0.2,0.3-0.6,0.7-1.2,1.1s-1.1,0.9-1.7,1.5c-0.6,0.5-1.3,1.1-1.9,1.6
		c-0.6,0.6-1.2,1.1-1.7,1.6c-0.6,0.7-1,1.3-1,1.9c0,0.5,0.3,1,0.9,1.6c0.2,0.2,0.5,0.4,0.8,0.7c0.3,0.3,0.6,0.6,1,0.9
		c0.3,0.3,0.7,0.6,1,0.9c0.3,0.3,0.6,0.5,0.8,0.7c1,1,1.5,2.1,1.5,3.1c0,0.4-0.1,0.8-0.2,1.2c-0.2,0.4-0.4,0.8-0.6,1.1
		c-0.3,0.3-0.6,0.6-0.9,0.9c-0.3,0.3-0.6,0.5-0.9,0.8c-0.3,0.2-0.6,0.4-0.9,0.6c-0.3,0.2-0.6,0.3-0.8,0.4c-0.3,0.1-0.5,0.1-0.7,0.1
		c-0.2-0.1-0.4-0.2-0.5-0.4c-0.1-0.2-0.2-0.4-0.1-0.6c0-0.2,0.2-0.4,0.5-0.6c0.2-0.1,0.4-0.2,0.7-0.4c0.3-0.2,0.5-0.3,0.8-0.5
		c0.3-0.2,0.5-0.4,0.8-0.6c0.3-0.2,0.5-0.5,0.7-0.7c0.3-0.4,0.5-0.9,0.5-1.3c0-0.6-0.4-1.2-1-1.8c-0.2-0.2-0.5-0.4-0.8-0.7
		c-0.3-0.3-0.6-0.6-1-0.9c-0.3-0.3-0.7-0.6-1-0.8c-0.3-0.3-0.6-0.5-0.8-0.7c-1-0.9-1.5-1.8-1.5-2.8c0-0.9,0.5-1.9,1.5-3
		c0.5-0.5,1-1,1.6-1.6c0.6-0.5,1.1-1,1.7-1.5c0.5-0.5,1-0.9,1.5-1.2s0.8-0.7,1.1-1c0.1-0.2,0.2-0.5,0.3-0.6s0.3-0.3,0.5-0.4
		c0.2-0.1,0.4-0.1,0.6,0C200.9,50.3,201.1,50.3,201.2,50.5z"/>
	<path fill="#010101" d="M211.3,65.9c0.1,0.2,0.1,0.4,0.1,0.6c-0.1,0.2-0.2,0.4-0.5,0.5c-0.4,0.1-0.8,0.3-1.4,0.5
		c-0.6,0.2-1.2,0.4-1.8,0.6c-0.7,0.2-1.4,0.3-2.1,0.4c-0.7,0.1-1.5,0.1-2.2,0c-0.7-0.1-1.3-0.4-1.6-0.8c-0.7-0.7-0.9-1.6-0.7-2.9
		c0.1-0.6,0.2-1.1,0.4-1.6c0.2-0.5,0.4-1,0.7-1.4c0.2-0.4,0.5-0.8,0.7-1.1s0.5-0.6,0.7-0.8s0.4-0.4,0.6-0.6c0.2-0.2,0.4-0.3,0.6-0.4
		c0.2-0.1,0.4-0.2,0.6-0.2c0.2-0.1,0.5-0.1,0.7-0.1c0.2,0,0.5,0,0.7,0c0.2,0,0.4,0.1,0.6,0.2c0.2,0.1,0.4,0.3,0.5,0.5
		c0.1,0.2,0.2,0.4,0.3,0.7s0.1,0.5,0,0.8c0,0.3-0.1,0.6-0.1,0.8c-0.1,0.5-0.4,1-0.8,1.4c-0.4,0.4-0.8,0.8-1.3,1.2
		c-0.5,0.3-1,0.6-1.6,0.8c-0.6,0.2-1.1,0.4-1.7,0.4c0,0.4,0,0.7,0.2,0.9c0.2,0.2,0.4,0.4,0.8,0.4c0.5,0.1,1.1,0.1,1.7,0
		s1.2-0.2,1.8-0.4c0.6-0.2,1.2-0.4,1.7-0.6c0.5-0.2,1-0.4,1.3-0.5c0.2-0.1,0.4-0.1,0.6,0C211.1,65.6,211.2,65.7,211.3,65.9z
		 M206.5,61.4c0.1-0.5,0.1-0.8-0.1-0.9c-0.1-0.1-0.3-0.1-0.5-0.1c-0.2,0-0.3,0.1-0.5,0.2c-0.2,0.1-0.4,0.3-0.7,0.6
		c-0.3,0.3-0.6,0.7-0.9,1.2c-0.3,0.5-0.5,0.9-0.7,1.4c0.3-0.1,0.7-0.2,1.1-0.3c0.4-0.2,0.7-0.3,1-0.6s0.6-0.4,0.8-0.7
		C206.3,61.9,206.4,61.6,206.5,61.4z"/>
	<path fill="#010101" d="M218.8,63c-0.1,0.2-0.2,0.3-0.4,0.3c-0.2,0.1-0.4,0-0.6-0.1c-0.2-0.1-0.3-0.1-0.4-0.1c-0.1,0-0.3,0-0.4,0
		c-0.2,0-0.5,0.1-0.9,0.2c-0.3,0.1-0.7,0.2-1,0.4s-0.7,0.3-1.1,0.5s-0.7,0.4-1,0.6c-0.3,0.2-0.5,0.3-0.7,0.5
		c-0.2,0.2-0.3,0.3-0.4,0.5c-0.1,0.2-0.2,0.4-0.3,0.6c0,0.2-0.1,0.4-0.1,0.6c0,0.3-0.1,0.5-0.3,0.6c-0.2,0.1-0.3,0.2-0.6,0.2
		c-0.2,0-0.4-0.1-0.6-0.2c-0.2-0.2-0.3-0.4-0.3-0.7c0-0.3,0-0.6,0-1c0-0.4,0-0.8,0-1.2c0-0.4,0-0.8,0-1.1c0-0.4,0-0.7,0.1-1
		c-0.1,0-0.2-0.1-0.2-0.2c0-0.1,0-0.2,0.1-0.3c0.1-0.1,0.2-0.3,0.2-0.4c0.1-0.1,0.1-0.3,0.2-0.4c0.1-0.2,0.2-0.3,0.4-0.4
		c0.2-0.1,0.4-0.1,0.6,0c0.2,0.1,0.3,0.2,0.4,0.3c0.1,0.1,0.2,0.3,0.1,0.5c0,0.1-0.1,0.3-0.1,0.5c0,0.2-0.1,0.4-0.1,0.6
		c0,0.2,0,0.4,0,0.6c0,0.2,0,0.4,0,0.5c0.1-0.1,0.2-0.2,0.3-0.3c0.1-0.1,0.2-0.2,0.3-0.3c0.3-0.2,0.7-0.5,1.2-0.7
		c0.4-0.2,0.9-0.4,1.4-0.6c0.5-0.2,0.9-0.3,1.4-0.5c0.5-0.1,0.9-0.2,1.2-0.2c0.3,0,0.6,0,0.8,0.1c0.2,0.1,0.4,0.2,0.6,0.3
		c0.2,0.2,0.3,0.4,0.3,0.6C218.9,62.6,218.9,62.8,218.8,63z"/>
	<path fill="#010101" d="M229.7,62.5c0,0.2-0.1,0.4-0.2,0.6s-0.4,0.3-0.6,0.4c-0.2,0-0.4,0-0.6,0c-0.2,0-0.4,0-0.6-0.1
		c-0.1,0.3-0.3,0.6-0.4,1c-0.1,0.4-0.3,0.7-0.5,1.1c-0.2,0.4-0.3,0.7-0.5,1.1c-0.2,0.4-0.3,0.7-0.5,1c-0.6,1-1.2,1.5-1.9,1.5
		c-0.6,0-1.3-0.5-1.8-1.4c-0.1-0.2-0.3-0.5-0.4-0.8c-0.1-0.3-0.3-0.6-0.4-0.9c-0.2-0.6-0.3-1.2-0.4-1.9c-0.1-0.7-0.2-1.3-0.3-2
		c-0.1-0.1-0.1-0.1-0.2-0.3c0-0.1,0-0.2,0-0.3c0-0.1,0-0.2,0-0.3c0-0.1,0-0.2,0.1-0.3c0.1-0.3,0.2-0.5,0.4-0.7
		c0.2-0.2,0.4-0.2,0.6-0.2c0.2,0,0.4,0.1,0.5,0.2c0.2,0.1,0.2,0.4,0.3,0.7c0,0.3,0,0.6,0.1,0.9s0.1,0.7,0.1,1.1
		c0.1,0.4,0.1,0.8,0.2,1.2c0.1,0.4,0.2,0.8,0.3,1.2c0.1,0.2,0.1,0.4,0.2,0.6c0.1,0.2,0.2,0.4,0.2,0.5c0.1,0.2,0.2,0.3,0.3,0.4
		c0.1,0.1,0.2,0.1,0.2,0.1c0.1,0,0.2-0.1,0.3-0.1c0.1-0.1,0.2-0.2,0.3-0.4c0.3-0.5,0.6-1.1,0.9-1.8c0.3-0.7,0.6-1.3,0.8-2
		c-0.1-0.1-0.2-0.2-0.2-0.3c0-0.1-0.1-0.2-0.1-0.4c0-0.4,0.2-0.8,0.7-1c0.3-0.1,0.6-0.1,0.8,0c0.2,0.1,0.4,0.3,0.5,0.5
		c0.1,0,0.3,0.1,0.5,0.1c0.2,0,0.4,0,0.5,0c0.3,0,0.5,0,0.6,0.2S229.7,62.3,229.7,62.5z"/>
	<path fill="#010101" d="M238.6,66.2c0,0.2,0,0.4-0.2,0.6c-0.1,0.2-0.3,0.3-0.7,0.3c-0.2,0-0.5,0.1-0.9,0.2
		c-0.4,0.1-0.8,0.2-1.2,0.4c-0.4,0.2-0.9,0.3-1.3,0.4c-0.4,0.1-0.8,0.3-1.1,0.3c-1,0.2-1.7,0.2-2.3,0c-0.5-0.2-0.9-0.8-1.2-1.7
		c-0.1-0.3-0.1-0.6-0.1-1c0-0.4,0-0.7,0-1c0-0.4,0.1-0.8,0.2-1.2c0.1-0.4,0.2-0.7,0.3-1c-0.1,0-0.1-0.1-0.1-0.2s0-0.2,0-0.3
		c0.1-0.1,0.2-0.3,0.3-0.5c0.1-0.2,0.2-0.4,0.4-0.5c0.2-0.1,0.3-0.2,0.5-0.2s0.4,0,0.5,0.1c0.2,0.1,0.4,0.2,0.5,0.4s0.1,0.3,0,0.5
		c-0.2,0.3-0.3,0.8-0.5,1.3c-0.2,0.6-0.3,1.1-0.3,1.6c0,0.3,0,0.6,0,0.8c0,0.2,0,0.5,0.1,0.6c0.1,0.3,0.2,0.5,0.4,0.6
		c0.2,0.1,0.5,0.1,0.9,0c0.3,0,0.6-0.1,1-0.3c0.4-0.2,0.8-0.3,1.3-0.5c0.5-0.2,0.9-0.3,1.3-0.5c0.4-0.1,0.8-0.2,1.1-0.2
		c0.3,0,0.5,0.1,0.7,0.3C238.5,65.8,238.6,66,238.6,66.2z M234.2,55.9c0.2,0.1,0.3,0.3,0.4,0.5c0.1,0.2,0.1,0.4,0.1,0.6
		c0,0.2,0,0.4-0.1,0.6s-0.2,0.4-0.4,0.5c-0.3,0.2-0.6,0.3-0.9,0.3c-0.3,0-0.6-0.2-0.9-0.4c-0.3-0.3-0.4-0.6-0.4-1
		c0-0.4,0.2-0.7,0.6-1c0.2-0.2,0.5-0.3,0.8-0.3S233.9,55.7,234.2,55.9z"/>
	<path fill="#010101" d="M248.5,65.2c0.1,0.2,0.2,0.4,0.1,0.7c0,0.2-0.2,0.4-0.5,0.6c-0.3,0.2-0.7,0.3-1.2,0.6
		c-0.5,0.2-1.1,0.4-1.8,0.7s-1.4,0.4-2.2,0.5s-1.7,0.2-2.6,0.3c-0.8,0-1.5-0.1-2.1-0.3c-0.6-0.2-1-0.5-1.3-0.9
		c-0.3-0.4-0.4-0.8-0.4-1.3c0-0.5,0.2-1.1,0.6-1.7c0.2-0.4,0.5-0.8,0.8-1.2c0.3-0.4,0.7-0.7,1.1-1.1c0.4-0.3,0.8-0.6,1.3-0.9
		s0.9-0.5,1.4-0.7c0.2-0.1,0.4-0.1,0.7-0.1c0.3,0,0.5,0,0.7,0c0.4,0,0.6,0.2,0.8,0.3c0.2,0.2,0.2,0.4,0.3,0.6c0,0.2-0.1,0.4-0.2,0.6
		c-0.1,0.2-0.3,0.3-0.6,0.4c-0.2,0-0.4,0.1-0.6,0c-0.2,0-0.4-0.1-0.6-0.1c-0.3,0.1-0.6,0.2-0.9,0.4c-0.3,0.2-0.6,0.4-1,0.7
		s-0.6,0.6-0.9,0.9s-0.5,0.6-0.6,0.9c-0.1,0.2-0.2,0.5-0.2,0.7s0.1,0.4,0.2,0.6c0.1,0.2,0.3,0.3,0.6,0.4c0.3,0.1,0.6,0.2,1,0.2
		c0.8,0,1.5-0.1,2.3-0.2c0.7-0.1,1.4-0.3,2.1-0.5c0.6-0.2,1.2-0.4,1.7-0.6c0.5-0.2,0.8-0.4,1-0.5c0.2-0.1,0.4-0.2,0.7-0.1
		C248.3,65,248.4,65.1,248.5,65.2z"/>
	<path fill="#010101" d="M257.3,65.9c0.1,0.2,0.1,0.4,0.1,0.6c-0.1,0.2-0.2,0.4-0.5,0.5c-0.4,0.1-0.8,0.3-1.4,0.5
		c-0.6,0.2-1.2,0.4-1.8,0.6s-1.4,0.3-2.1,0.4s-1.5,0.1-2.2,0c-0.7-0.1-1.3-0.4-1.6-0.8c-0.7-0.7-0.9-1.6-0.7-2.9
		c0.1-0.6,0.2-1.1,0.4-1.6c0.2-0.5,0.4-1,0.7-1.4c0.2-0.4,0.5-0.8,0.7-1.1s0.5-0.6,0.7-0.8c0.2-0.2,0.4-0.4,0.6-0.6
		c0.2-0.2,0.4-0.3,0.6-0.4c0.2-0.1,0.4-0.2,0.6-0.2c0.2-0.1,0.5-0.1,0.7-0.1c0.2,0,0.5,0,0.7,0c0.2,0,0.4,0.1,0.6,0.2
		c0.2,0.1,0.4,0.3,0.5,0.5s0.2,0.4,0.3,0.7s0.1,0.5,0,0.8c0,0.3-0.1,0.6-0.1,0.8c-0.1,0.5-0.4,1-0.8,1.4c-0.4,0.4-0.8,0.8-1.3,1.2
		c-0.5,0.3-1.1,0.6-1.6,0.8c-0.6,0.2-1.1,0.4-1.7,0.4c0,0.4,0,0.7,0.2,0.9c0.2,0.2,0.4,0.4,0.8,0.4c0.5,0.1,1.1,0.1,1.7,0
		c0.6-0.1,1.2-0.2,1.8-0.4c0.6-0.2,1.2-0.4,1.7-0.6c0.5-0.2,1-0.4,1.3-0.5c0.2-0.1,0.4-0.1,0.6,0C257.1,65.6,257.2,65.7,257.3,65.9z
		 M252.6,61.4c0.1-0.5,0.1-0.8-0.1-0.9c-0.1-0.1-0.3-0.1-0.5-0.1c-0.2,0-0.3,0.1-0.5,0.2c-0.2,0.1-0.4,0.3-0.7,0.6
		c-0.3,0.3-0.6,0.7-0.9,1.2s-0.5,0.9-0.7,1.4c0.3-0.1,0.7-0.2,1.1-0.3c0.4-0.2,0.7-0.3,1-0.6c0.3-0.2,0.6-0.4,0.8-0.7
		C252.3,61.9,252.5,61.6,252.6,61.4z"/>
	<path fill="#010101" d="M264,59.7c-0.1,0.1-0.2,0.2-0.4,0.3c-0.2,0.1-0.3,0.1-0.6,0c-0.2-0.1-0.4-0.2-0.6-0.3c-0.2,0-0.5,0-0.8,0.1
		c-0.3,0.1-0.7,0.2-1.1,0.3c-0.4,0.1-0.7,0.3-1.1,0.5c-0.4,0.2-0.7,0.4-0.9,0.5c-0.4,0.3-0.6,0.5-0.6,0.7c0,0.2,0.2,0.4,0.6,0.6
		c0.5,0.2,0.9,0.5,1.4,0.7c0.4,0.2,0.9,0.5,1.4,0.9c0.4,0.3,0.6,0.6,0.8,1.1c0.2,0.4,0.2,0.8,0.2,1.2c0,0.4-0.1,0.9-0.2,1.3
		c-0.1,0.4-0.3,0.8-0.6,1.1c-0.4,0.6-0.9,1.2-1.4,1.7c-0.6,0.5-1.2,1-2,1.4c-0.4,0.2-0.7,0.3-1.1,0.3c-0.4,0-0.7-0.1-1.1-0.3
		c-0.3-0.2-0.5-0.4-0.6-0.6s-0.1-0.5,0-0.7c0.1-0.2,0.3-0.4,0.5-0.5c0.2-0.1,0.5,0,0.8,0.1c0.1,0.1,0.3,0.1,0.4,0.1s0.3,0,0.4-0.1
		c0.5-0.3,1-0.7,1.5-1.1c0.5-0.5,0.9-0.9,1.1-1.3c0.2-0.3,0.3-0.5,0.4-0.8c0.1-0.2,0.1-0.5,0.1-0.7c0-0.4-0.1-0.7-0.4-1
		c-0.3-0.3-0.7-0.5-1.2-0.7c-0.5-0.2-1-0.5-1.6-0.7c-0.5-0.2-0.9-0.5-1.2-0.8s-0.4-0.7-0.4-1c0-0.4,0.1-0.7,0.4-1.1s0.7-0.8,1.2-1.1
		c0.3-0.2,0.6-0.4,1-0.6c0.4-0.2,0.8-0.4,1.3-0.6c0.4-0.2,0.9-0.3,1.4-0.4c0.5-0.1,1-0.2,1.4-0.2c0.3,0,0.6,0,0.8,0.1
		s0.4,0.2,0.6,0.4c0.2,0.2,0.3,0.4,0.3,0.6S264.1,59.5,264,59.7z"/>
</g>
<g enable-background="new    ">
	<path fill="#010101" d="M195.8,232.2c0.1,0.4-0.1,0.9-0.4,1.5c-0.3,0.6-0.7,1.1-1.2,1.7c-0.5,0.6-1,1.1-1.6,1.6s-1.1,0.9-1.6,1.3
		c-0.8,0.5-1.6,1-2.4,1.5c-0.9,0.5-1.8,1-2.7,1.5c-0.3,0.1-0.5,0.2-0.7,0.1c-0.2-0.1-0.4-0.2-0.5-0.4c-0.1-0.2-0.1-0.4-0.1-0.7
		s0.2-0.4,0.5-0.6c1-0.5,1.9-1,2.7-1.5c0.9-0.5,1.6-0.9,2.3-1.4c0.4-0.3,0.8-0.6,1.3-1s0.9-0.8,1.3-1.3c0.4-0.4,0.7-0.9,1-1.3
		c0.3-0.4,0.4-0.8,0.4-1.1c0-0.5-0.2-0.9-0.5-1.3c-0.3-0.4-0.9-0.9-1.6-1.3c-0.4-0.2-0.8-0.5-1.3-0.8c-0.5-0.3-1.1-0.6-1.6-1
		c-0.6-0.3-1.2-0.7-1.8-1c-0.6-0.3-1.2-0.6-1.7-0.9c-0.1,1.2-0.2,2.3-0.3,3.6s-0.2,2.4-0.3,3.4c-0.1,1.1-0.2,2-0.2,2.7
		s-0.1,1.3-0.1,1.6c0,0.2,0.1,0.4,0.2,0.6c0.1,0.2,0.2,0.4,0.3,0.6c0.1,0.2,0.1,0.4,0,0.6s-0.2,0.3-0.4,0.4c-0.2,0.1-0.4,0.1-0.7,0
		c-0.2-0.1-0.4-0.2-0.6-0.5c-0.1-0.2-0.2-0.4-0.3-0.7c-0.1-0.3-0.2-0.6-0.2-1c0-0.2,0-0.6,0-1.1c0-0.5,0.1-1,0.1-1.7
		c0.1-0.6,0.1-1.3,0.2-2.1c0.1-0.8,0.1-1.6,0.2-2.4c0.1-0.8,0.2-1.6,0.2-2.5s0.1-1.6,0.2-2.4c-0.1-0.1-0.3-0.2-0.4-0.2
		c-0.2-0.1-0.3-0.1-0.4-0.2c-0.2,0-0.3,0-0.5-0.1c-0.2-0.1-0.3-0.2-0.4-0.4c-0.1-0.2-0.2-0.4-0.2-0.6c0-0.2,0.1-0.3,0.2-0.5
		c0.1-0.2,0.3-0.3,0.6-0.3c0.2-0.1,0.5,0,0.8,0.1c0.9,0.5,1.9,1,2.8,1.5c0.9,0.5,1.8,1,2.7,1.5c0.8,0.5,1.6,0.9,2.3,1.3
		s1.2,0.7,1.6,1C194.8,229.3,195.8,230.7,195.8,232.2z"/>
	<path fill="#010101" d="M205.9,237c0,0.2,0,0.4-0.2,0.6c-0.1,0.2-0.3,0.3-0.7,0.3c-0.2,0-0.5,0.1-0.9,0.2c-0.4,0.1-0.8,0.2-1.2,0.4
		c-0.4,0.2-0.9,0.3-1.3,0.4c-0.4,0.1-0.8,0.3-1.1,0.3c-1,0.2-1.7,0.2-2.3,0c-0.5-0.2-0.9-0.8-1.2-1.7c-0.1-0.3-0.1-0.6-0.1-1
		c0-0.4,0-0.7,0-1c0-0.4,0.1-0.8,0.2-1.2c0.1-0.4,0.2-0.7,0.3-1c-0.1,0-0.1-0.1-0.1-0.2s0-0.2,0-0.3c0.1-0.1,0.2-0.3,0.3-0.5
		c0.1-0.2,0.2-0.4,0.4-0.5c0.2-0.1,0.3-0.2,0.5-0.2s0.4,0,0.5,0.1c0.2,0.1,0.4,0.2,0.5,0.4s0.1,0.3,0,0.5c-0.2,0.3-0.3,0.8-0.5,1.3
		c-0.2,0.6-0.3,1.1-0.3,1.6c0,0.3,0,0.6,0,0.8c0,0.2,0,0.5,0.1,0.6c0.1,0.3,0.2,0.5,0.4,0.6c0.2,0.1,0.5,0.1,0.9,0
		c0.3,0,0.6-0.1,1-0.3c0.4-0.2,0.8-0.3,1.3-0.5c0.5-0.2,0.9-0.3,1.3-0.5c0.4-0.1,0.8-0.2,1.1-0.2c0.3,0,0.5,0.1,0.7,0.3
		C205.8,236.6,205.8,236.8,205.9,237z M201.4,226.7c0.2,0.1,0.3,0.3,0.4,0.5c0.1,0.2,0.1,0.4,0.1,0.6c0,0.2,0,0.4-0.1,0.6
		s-0.2,0.4-0.4,0.5c-0.3,0.2-0.6,0.3-0.9,0.3c-0.3,0-0.6-0.2-0.9-0.4c-0.3-0.3-0.4-0.6-0.4-1c0-0.4,0.2-0.7,0.6-1
		c0.2-0.2,0.5-0.3,0.8-0.3S201.2,226.6,201.4,226.7z"/>
	<path fill="#010101" d="M213.4,233.8c-0.1,0.2-0.2,0.3-0.4,0.3c-0.2,0.1-0.4,0-0.6-0.1c-0.2-0.1-0.3-0.1-0.4-0.1
		c-0.1,0-0.3,0-0.4,0c-0.2,0-0.5,0.1-0.9,0.2s-0.7,0.2-1,0.4c-0.4,0.2-0.7,0.3-1.1,0.5c-0.4,0.2-0.7,0.4-1,0.6
		c-0.3,0.2-0.5,0.3-0.7,0.5c-0.2,0.2-0.3,0.3-0.4,0.5c-0.1,0.2-0.2,0.4-0.3,0.6c0,0.2-0.1,0.4-0.1,0.6c0,0.3-0.1,0.5-0.3,0.6
		s-0.3,0.2-0.6,0.2s-0.4-0.1-0.6-0.2s-0.3-0.4-0.3-0.7c0-0.3,0-0.6,0-1c0-0.4,0-0.8,0-1.2c0-0.4,0-0.8,0-1.1c0-0.4,0-0.7,0.1-1
		c-0.1,0-0.2-0.1-0.2-0.2c0-0.1,0-0.2,0.1-0.3c0.1-0.1,0.2-0.3,0.2-0.4s0.1-0.3,0.2-0.4c0.1-0.2,0.2-0.3,0.4-0.4
		c0.2-0.1,0.4-0.1,0.6,0c0.2,0.1,0.3,0.2,0.4,0.3c0.1,0.1,0.2,0.3,0.1,0.5c0,0.1-0.1,0.3-0.1,0.5c0,0.2-0.1,0.4-0.1,0.6
		c0,0.2,0,0.4,0,0.6c0,0.2,0,0.4,0,0.5c0.1-0.1,0.2-0.2,0.3-0.3c0.1-0.1,0.2-0.2,0.3-0.3c0.3-0.2,0.7-0.5,1.2-0.7
		c0.4-0.2,0.9-0.4,1.4-0.6c0.5-0.2,0.9-0.3,1.4-0.5c0.5-0.1,0.9-0.2,1.2-0.2c0.3,0,0.6,0,0.8,0.1c0.2,0.1,0.4,0.2,0.6,0.3
		c0.2,0.2,0.3,0.4,0.3,0.6C213.6,233.4,213.5,233.7,213.4,233.8z"/>
	<path fill="#010101" d="M224,236.7c0.1,0.2,0.1,0.4,0.1,0.6c-0.1,0.2-0.2,0.4-0.5,0.5c-0.4,0.1-0.8,0.3-1.4,0.5
		c-0.6,0.2-1.2,0.4-1.8,0.6s-1.4,0.3-2.1,0.4s-1.5,0.1-2.2,0c-0.7-0.1-1.3-0.4-1.6-0.8c-0.7-0.7-0.9-1.6-0.7-2.9
		c0.1-0.6,0.2-1.1,0.4-1.6c0.2-0.5,0.4-1,0.7-1.4c0.2-0.4,0.5-0.8,0.7-1.1s0.5-0.6,0.7-0.8c0.2-0.2,0.4-0.4,0.6-0.6
		c0.2-0.2,0.4-0.3,0.6-0.4c0.2-0.1,0.4-0.2,0.6-0.2c0.2-0.1,0.5-0.1,0.7-0.1c0.2,0,0.5,0,0.7,0c0.2,0,0.4,0.1,0.6,0.2
		c0.2,0.1,0.4,0.3,0.5,0.5s0.2,0.4,0.3,0.7s0.1,0.5,0,0.8c0,0.3-0.1,0.6-0.1,0.8c-0.1,0.5-0.4,1-0.8,1.4c-0.4,0.4-0.8,0.8-1.3,1.2
		c-0.5,0.3-1.1,0.6-1.6,0.8c-0.6,0.2-1.1,0.4-1.7,0.4c0,0.4,0,0.7,0.2,0.9c0.2,0.2,0.4,0.4,0.8,0.4c0.5,0.1,1.1,0.1,1.7,0
		c0.6-0.1,1.2-0.2,1.8-0.4c0.6-0.2,1.2-0.4,1.7-0.6c0.5-0.2,1-0.4,1.3-0.5c0.2-0.1,0.4-0.1,0.6,0C223.8,236.4,223.9,236.6,224,236.7
		z M219.2,232.2c0.1-0.5,0.1-0.8-0.1-0.9c-0.1-0.1-0.3-0.1-0.5-0.1c-0.2,0-0.3,0.1-0.5,0.2c-0.2,0.1-0.4,0.3-0.7,0.6
		c-0.3,0.3-0.6,0.7-0.9,1.2s-0.5,0.9-0.7,1.4c0.3-0.1,0.7-0.2,1.1-0.3c0.4-0.2,0.7-0.3,1-0.6c0.3-0.2,0.6-0.4,0.8-0.7
		C219,232.8,219.2,232.5,219.2,232.2z"/>
	<path fill="#010101" d="M233.8,236.1c0.1,0.2,0.2,0.4,0.1,0.7c0,0.2-0.2,0.4-0.5,0.6c-0.3,0.2-0.7,0.3-1.2,0.6
		c-0.5,0.2-1.1,0.4-1.8,0.7s-1.4,0.4-2.2,0.5s-1.7,0.2-2.6,0.3c-0.8,0-1.5-0.1-2.1-0.3c-0.6-0.2-1-0.5-1.3-0.9
		c-0.3-0.4-0.4-0.8-0.4-1.3c0-0.5,0.2-1.1,0.6-1.7c0.2-0.4,0.5-0.8,0.8-1.2c0.3-0.4,0.7-0.7,1.1-1.1c0.4-0.3,0.8-0.6,1.3-0.9
		s0.9-0.5,1.4-0.7c0.2-0.1,0.4-0.1,0.7-0.1c0.3,0,0.5,0,0.7,0c0.4,0,0.6,0.2,0.8,0.3c0.2,0.2,0.2,0.4,0.3,0.6c0,0.2-0.1,0.4-0.2,0.6
		c-0.1,0.2-0.3,0.3-0.6,0.4c-0.2,0-0.4,0.1-0.6,0c-0.2,0-0.4-0.1-0.6-0.1c-0.3,0.1-0.6,0.2-0.9,0.4c-0.3,0.2-0.6,0.4-1,0.7
		s-0.6,0.6-0.9,0.9s-0.5,0.6-0.6,0.9c-0.1,0.2-0.2,0.5-0.2,0.7s0.1,0.4,0.2,0.6c0.1,0.2,0.3,0.3,0.6,0.4c0.3,0.1,0.6,0.2,1,0.2
		c0.8,0,1.5-0.1,2.3-0.2c0.7-0.1,1.4-0.3,2.1-0.5c0.6-0.2,1.2-0.4,1.7-0.6c0.5-0.2,0.8-0.4,1-0.5c0.2-0.1,0.4-0.2,0.7-0.1
		C233.5,235.8,233.7,235.9,233.8,236.1z"/>
	<path fill="#010101" d="M239.6,232.5c0,0.2-0.1,0.4-0.2,0.5c-0.1,0.2-0.4,0.2-0.6,0.3c-0.3,0-0.8,0-1.5,0c-0.6,0-1.3,0-1.9,0
		c0,0.4,0,0.9,0,1.3c0,0.5,0.1,0.9,0.1,1.4c0.1,0.4,0.1,0.9,0.2,1.3c0.1,0.4,0.1,0.7,0.2,1c0.1,0.3,0,0.5-0.1,0.7
		c-0.1,0.2-0.3,0.3-0.5,0.3c-0.2,0.1-0.4,0-0.7-0.1c-0.2-0.1-0.4-0.3-0.5-0.7c-0.2-0.7-0.3-1.5-0.4-2.4c-0.1-0.9-0.2-1.9-0.2-2.9
		h-1.7c-0.3,0-0.5-0.1-0.6-0.2c-0.1-0.2-0.2-0.4-0.2-0.6s0.1-0.4,0.2-0.6c0.1-0.2,0.4-0.3,0.6-0.3c0.2,0,0.4,0,0.7,0
		c0.3,0,0.6,0,0.9,0c0-0.5,0-1,0.1-1.6c0-0.6,0.1-1.3,0.2-1.9c0.1-0.7,0.2-1.3,0.3-2s0.2-1.3,0.4-1.9c-0.2-0.1-0.2-0.2-0.2-0.4
		c0-0.1,0.1-0.2,0.2-0.4s0.2-0.3,0.3-0.4c0-0.1,0.1-0.2,0.1-0.2c0-0.1,0.1-0.2,0.1-0.2c0.1-0.2,0.3-0.4,0.5-0.4
		c0.2-0.1,0.4,0,0.6,0.1c0.2,0.1,0.3,0.2,0.4,0.4s0.2,0.4,0.1,0.6c0,0.2,0,0.3-0.1,0.4s-0.1,0.2-0.2,0.4c-0.1,0.5-0.3,1.1-0.4,1.7
		c-0.1,0.7-0.2,1.3-0.3,2c-0.1,0.7-0.2,1.4-0.2,2.1c-0.1,0.7-0.1,1.3-0.1,1.9c0.2,0,0.4,0,0.7,0c0.3,0,0.6,0,0.9,0
		c0.3,0,0.7,0,1,0.1s0.6,0,0.8,0.1c0.2,0,0.4,0.1,0.5,0.3C239.6,232.2,239.6,232.3,239.6,232.5z"/>
	<path fill="#010101" d="M248.8,237c0,0.2,0,0.4-0.2,0.6c-0.1,0.2-0.3,0.3-0.7,0.3c-0.2,0-0.5,0.1-0.9,0.2c-0.4,0.1-0.8,0.2-1.2,0.4
		c-0.4,0.2-0.9,0.3-1.3,0.4c-0.4,0.1-0.8,0.3-1.1,0.3c-1,0.2-1.7,0.2-2.3,0c-0.5-0.2-0.9-0.8-1.2-1.7c-0.1-0.3-0.1-0.6-0.1-1
		c0-0.4,0-0.7,0-1c0-0.4,0.1-0.8,0.2-1.2c0.1-0.4,0.2-0.7,0.3-1c-0.1,0-0.1-0.1-0.1-0.2s0-0.2,0-0.3c0.1-0.1,0.2-0.3,0.3-0.5
		c0.1-0.2,0.2-0.4,0.4-0.5c0.2-0.1,0.3-0.2,0.5-0.2c0.2,0,0.4,0,0.5,0.1c0.2,0.1,0.4,0.2,0.5,0.4c0.1,0.2,0.1,0.3,0,0.5
		c-0.2,0.3-0.3,0.8-0.5,1.3c-0.2,0.6-0.3,1.1-0.3,1.6c0,0.3,0,0.6,0,0.8c0,0.2,0,0.5,0.1,0.6c0.1,0.3,0.2,0.5,0.4,0.6
		c0.2,0.1,0.5,0.1,0.9,0c0.3,0,0.6-0.1,1-0.3c0.4-0.2,0.8-0.3,1.3-0.5c0.5-0.2,0.9-0.3,1.3-0.5c0.4-0.1,0.8-0.2,1.1-0.2
		c0.3,0,0.5,0.1,0.7,0.3C248.7,236.6,248.8,236.8,248.8,237z M244.4,226.7c0.2,0.1,0.3,0.3,0.4,0.5c0.1,0.2,0.1,0.4,0.1,0.6
		c0,0.2,0,0.4-0.1,0.6c-0.1,0.2-0.2,0.4-0.4,0.5c-0.3,0.2-0.6,0.3-0.9,0.3c-0.3,0-0.6-0.2-0.9-0.4c-0.3-0.3-0.4-0.6-0.4-1
		c0-0.4,0.2-0.7,0.6-1c0.2-0.2,0.5-0.3,0.8-0.3C243.9,226.5,244.1,226.6,244.4,226.7z"/>
	<path fill="#010101" d="M256.3,233.4c0,0.2-0.1,0.4-0.2,0.6s-0.4,0.3-0.6,0.4c-0.2,0-0.4,0-0.6,0c-0.2,0-0.4,0-0.6-0.1
		c-0.1,0.3-0.3,0.6-0.4,1c-0.1,0.4-0.3,0.7-0.5,1.1c-0.2,0.4-0.3,0.7-0.5,1.1c-0.2,0.4-0.3,0.7-0.5,1c-0.6,1-1.2,1.5-1.9,1.5
		c-0.6,0-1.3-0.5-1.8-1.4c-0.1-0.2-0.3-0.5-0.4-0.8c-0.1-0.3-0.3-0.6-0.4-0.9c-0.2-0.6-0.3-1.2-0.4-1.9c-0.1-0.7-0.2-1.3-0.3-2
		c-0.1-0.1-0.1-0.1-0.2-0.3c0-0.1,0-0.2,0-0.3c0-0.1,0-0.2,0-0.3c0-0.1,0-0.2,0.1-0.3c0.1-0.3,0.2-0.5,0.4-0.7
		c0.2-0.2,0.4-0.2,0.6-0.2c0.2,0,0.4,0.1,0.5,0.2c0.2,0.1,0.2,0.4,0.3,0.7c0,0.3,0,0.6,0.1,0.9s0.1,0.7,0.1,1.1
		c0.1,0.4,0.1,0.8,0.2,1.2c0.1,0.4,0.2,0.8,0.3,1.2c0.1,0.2,0.1,0.4,0.2,0.6c0.1,0.2,0.2,0.4,0.2,0.5c0.1,0.2,0.2,0.3,0.3,0.4
		c0.1,0.1,0.2,0.1,0.2,0.1c0.1,0,0.2-0.1,0.3-0.1c0.1-0.1,0.2-0.2,0.3-0.4c0.3-0.5,0.6-1.1,0.9-1.8c0.3-0.7,0.6-1.3,0.8-2
		c-0.1-0.1-0.2-0.2-0.2-0.3c0-0.1-0.1-0.2-0.1-0.4c0-0.4,0.2-0.8,0.7-1c0.3-0.1,0.6-0.1,0.8,0c0.2,0.1,0.4,0.3,0.5,0.5
		c0.1,0,0.3,0.1,0.5,0.1c0.2,0,0.4,0,0.5,0c0.3,0,0.5,0,0.6,0.2S256.3,233.1,256.3,233.4z"/>
	<path fill="#010101" d="M266.3,236.7c0.1,0.2,0.1,0.4,0.1,0.6c-0.1,0.2-0.2,0.4-0.5,0.5c-0.4,0.1-0.8,0.3-1.4,0.5
		c-0.6,0.2-1.2,0.4-1.8,0.6s-1.4,0.3-2.1,0.4s-1.5,0.1-2.2,0c-0.7-0.1-1.3-0.4-1.6-0.8c-0.7-0.7-0.9-1.6-0.7-2.9
		c0.1-0.6,0.2-1.1,0.4-1.6c0.2-0.5,0.4-1,0.7-1.4c0.2-0.4,0.5-0.8,0.7-1.1s0.5-0.6,0.7-0.8c0.2-0.2,0.4-0.4,0.6-0.6
		c0.2-0.2,0.4-0.3,0.6-0.4c0.2-0.1,0.4-0.2,0.6-0.2c0.2-0.1,0.5-0.1,0.7-0.1c0.2,0,0.5,0,0.7,0c0.2,0,0.4,0.1,0.6,0.2
		c0.2,0.1,0.4,0.3,0.5,0.5s0.2,0.4,0.3,0.7s0.1,0.5,0,0.8c0,0.3-0.1,0.6-0.1,0.8c-0.1,0.5-0.4,1-0.8,1.4c-0.4,0.4-0.8,0.8-1.3,1.2
		c-0.5,0.3-1.1,0.6-1.6,0.8c-0.6,0.2-1.1,0.4-1.7,0.4c0,0.4,0,0.7,0.2,0.9c0.2,0.2,0.4,0.4,0.8,0.4c0.5,0.1,1.1,0.1,1.7,0
		c0.6-0.1,1.2-0.2,1.8-0.4c0.6-0.2,1.2-0.4,1.7-0.6c0.5-0.2,1-0.4,1.3-0.5c0.2-0.1,0.4-0.1,0.6,0
		C266.1,236.4,266.2,236.6,266.3,236.7z M261.6,232.2c0.1-0.5,0.1-0.8-0.1-0.9c-0.1-0.1-0.3-0.1-0.5-0.1c-0.2,0-0.3,0.1-0.5,0.2
		c-0.2,0.1-0.4,0.3-0.7,0.6c-0.3,0.3-0.6,0.7-0.9,1.2s-0.5,0.9-0.7,1.4c0.3-0.1,0.7-0.2,1.1-0.3c0.4-0.2,0.7-0.3,1-0.6
		c0.3-0.2,0.6-0.4,0.8-0.7C261.3,232.8,261.5,232.5,261.6,232.2z"/>
	<path fill="#010101" d="M273,230.6c-0.1,0.1-0.2,0.2-0.4,0.3c-0.2,0.1-0.3,0.1-0.6,0c-0.2-0.1-0.4-0.2-0.6-0.3
		c-0.2,0-0.5,0-0.8,0.1c-0.3,0.1-0.7,0.2-1.1,0.3c-0.4,0.1-0.7,0.3-1.1,0.5c-0.4,0.2-0.7,0.4-0.9,0.5c-0.4,0.3-0.6,0.5-0.6,0.7
		c0,0.2,0.2,0.4,0.6,0.6c0.5,0.2,0.9,0.5,1.4,0.7c0.4,0.2,0.9,0.5,1.4,0.9c0.4,0.3,0.6,0.6,0.8,1.1c0.2,0.4,0.2,0.8,0.2,1.2
		c0,0.4-0.1,0.9-0.2,1.3c-0.1,0.4-0.3,0.8-0.6,1.1c-0.4,0.6-0.9,1.2-1.4,1.7c-0.6,0.5-1.2,1-2,1.4c-0.4,0.2-0.7,0.3-1.1,0.3
		c-0.4,0-0.7-0.1-1.1-0.3c-0.3-0.2-0.5-0.4-0.6-0.6s-0.1-0.5,0-0.7c0.1-0.2,0.3-0.4,0.5-0.5c0.2-0.1,0.5,0,0.8,0.1
		c0.1,0.1,0.3,0.1,0.4,0.1s0.3,0,0.4-0.1c0.5-0.3,1-0.7,1.5-1.1c0.5-0.5,0.9-0.9,1.1-1.3c0.2-0.3,0.3-0.5,0.4-0.8
		c0.1-0.2,0.1-0.5,0.1-0.7c0-0.4-0.1-0.7-0.4-1c-0.3-0.3-0.7-0.5-1.2-0.7c-0.5-0.2-1-0.5-1.6-0.7c-0.5-0.2-0.9-0.5-1.2-0.8
		s-0.4-0.7-0.4-1c0-0.4,0.1-0.7,0.4-1.1s0.7-0.8,1.2-1.1c0.3-0.2,0.6-0.4,1-0.6c0.4-0.2,0.8-0.4,1.3-0.6c0.4-0.2,0.9-0.3,1.4-0.4
		c0.5-0.1,1-0.2,1.4-0.2c0.3,0,0.6,0,0.8,0.1s0.4,0.2,0.6,0.4c0.2,0.2,0.3,0.4,0.3,0.6S273.1,230.4,273,230.6z"/>
</g>
<g enable-background="new    ">
	<path fill="#010101" d="M209.7,140c-0.2,0.3-0.4,0.4-0.8,0.4c-0.2,0-0.3,0-0.5-0.1c-0.2-0.1-0.4-0.2-0.5-0.3c-0.3,0-0.8,0-1.3,0
		c-0.6,0-1.3,0-2,0.1c-0.8,0-1.6,0-2.5,0c-0.9,0-1.9,0-2.8,0c0,0.6,0,1.2,0.1,1.9c0,0.6,0.1,1.2,0.1,1.8c0.4,0,0.9,0,1.5-0.1
		c0.6,0,1.2-0.1,1.8-0.1c0.6-0.1,1.2-0.1,1.8-0.2c0.6-0.1,1-0.1,1.4-0.2c0.3,0,0.6-0.1,0.9-0.3c0.2-0.1,0.4-0.2,0.6-0.1
		c0.2,0.1,0.3,0.1,0.5,0.3c0.2,0.2,0.2,0.4,0.2,0.7c0,0.3-0.1,0.5-0.4,0.7c-0.2,0.1-0.4,0.2-0.7,0.3c-0.3,0.1-0.6,0.1-0.9,0.2
		c-0.4,0.1-0.9,0.1-1.5,0.2c-0.6,0.1-1.1,0.1-1.7,0.1c-0.6,0-1.2,0.1-1.8,0.1c-0.6,0-1.2,0.1-1.7,0.1c0,0.4,0,1,0.1,1.6
		s0.1,1.3,0.1,2c0,0.7,0.1,1.4,0.1,2.1c0,0.7,0.1,1.3,0.1,1.9c0,0.3,0,0.5-0.2,0.6c-0.2,0.1-0.4,0.2-0.6,0.2c-0.2,0-0.4-0.1-0.6-0.2
		c-0.2-0.1-0.3-0.3-0.3-0.6c0-0.6-0.1-1.2-0.1-1.9c0-0.7-0.1-1.3-0.1-2c0-0.7-0.1-1.3-0.1-1.9c0-0.6,0-1.2,0-1.7
		c-0.2,0-0.5-0.1-0.7-0.1c-0.2-0.1-0.3-0.2-0.4-0.3s-0.1-0.3-0.2-0.4c0-0.1,0-0.2,0.1-0.4c0.1-0.1,0.2-0.2,0.3-0.3
		c0.1,0,0.3-0.1,0.4-0.1s0.3-0.1,0.4-0.1c0-0.4,0-1-0.1-1.7c0-0.7-0.1-1.4-0.1-2c-0.1,0-0.3,0-0.5,0c-0.2,0-0.4,0-0.6,0
		c-0.2,0.2-0.5,0.3-1,0.1c-0.3-0.1-0.6-0.3-0.7-0.5s-0.2-0.4-0.3-0.6c0-0.2,0.1-0.5,0.3-0.6s0.5-0.2,0.9-0.2
		c0.8,0.1,1.8,0.1,2.9,0.1c1.1,0,2.3,0,3.5,0c1.2,0,2.3,0,3.3-0.1c1.1,0,1.9,0,2.6,0c0.3,0,0.7,0,1,0.1c0.3,0.1,0.5,0.2,0.6,0.3
		c0.2,0.2,0.3,0.5,0.3,0.7C209.9,139.6,209.9,139.8,209.7,140z"/>
	<path fill="#010101" d="M218.3,150.5c0,0.2,0,0.4-0.2,0.6c-0.1,0.2-0.3,0.3-0.7,0.3c-0.2,0-0.5,0.1-0.9,0.2
		c-0.4,0.1-0.8,0.2-1.2,0.4c-0.4,0.2-0.9,0.3-1.3,0.4c-0.4,0.1-0.8,0.3-1.1,0.3c-1,0.2-1.7,0.2-2.3,0c-0.5-0.2-0.9-0.8-1.2-1.7
		c-0.1-0.3-0.1-0.6-0.1-1c0-0.4,0-0.7,0-1c0-0.4,0.1-0.8,0.2-1.2c0.1-0.4,0.2-0.7,0.3-1c-0.1,0-0.1-0.1-0.1-0.2s0-0.2,0-0.3
		c0.1-0.1,0.2-0.3,0.3-0.5c0.1-0.2,0.2-0.4,0.4-0.5c0.2-0.1,0.3-0.2,0.5-0.2c0.2,0,0.4,0,0.5,0.1c0.2,0.1,0.4,0.2,0.5,0.4
		c0.1,0.2,0.1,0.3,0,0.5c-0.2,0.3-0.3,0.8-0.5,1.3c-0.2,0.6-0.3,1.1-0.3,1.6c0,0.3,0,0.6,0,0.8c0,0.2,0,0.5,0.1,0.6
		c0.1,0.3,0.2,0.5,0.4,0.6c0.2,0.1,0.5,0.1,0.9,0c0.3,0,0.6-0.1,1-0.3c0.4-0.2,0.8-0.3,1.3-0.5c0.5-0.2,0.9-0.3,1.3-0.5
		c0.4-0.1,0.8-0.2,1.1-0.2c0.3,0,0.5,0.1,0.7,0.3C218.2,150.1,218.3,150.3,218.3,150.5z M213.9,140.2c0.2,0.1,0.3,0.3,0.4,0.5
		c0.1,0.2,0.1,0.4,0.1,0.6c0,0.2,0,0.4-0.1,0.6c-0.1,0.2-0.2,0.4-0.4,0.5c-0.3,0.2-0.6,0.3-0.9,0.3c-0.3,0-0.6-0.2-0.9-0.4
		c-0.3-0.3-0.4-0.6-0.4-1c0-0.4,0.2-0.7,0.6-1c0.2-0.2,0.5-0.3,0.8-0.3C213.3,139.9,213.6,140,213.9,140.2z"/>
	<path fill="#010101" d="M226,150.1c0.1,0.2,0.1,0.4,0,0.6c-0.1,0.2-0.3,0.4-0.6,0.5c-0.4,0.1-0.9,0.3-1.5,0.5s-1.3,0.4-2,0.6
		c-0.7,0.2-1.4,0.2-2.1,0.3c-0.7,0-1.3-0.1-1.9-0.3c-1-0.4-1.6-1.1-2-2.1c-0.4-1-0.5-2.2-0.5-3.7c0-0.6,0.1-1.3,0.2-2s0.3-1.4,0.5-2
		s0.4-1.2,0.7-1.8c0.3-0.6,0.5-1,0.8-1.4c0.5-0.7,1-1.2,1.5-1.5c0.5-0.3,0.9-0.5,1.4-0.4c0.5,0.1,0.8,0.4,1.1,0.9
		c0.3,0.5,0.5,1.3,0.5,2.4c0,0.4,0,0.9,0,1.3c0,0.5-0.1,1-0.2,1.5c-0.1,0.5-0.2,1-0.3,1.4c-0.1,0.5-0.3,0.9-0.4,1.3
		c-0.2,0.4-0.4,0.8-0.6,1.2c-0.2,0.4-0.5,0.8-0.7,1.1s-0.5,0.7-0.8,1c-0.3,0.3-0.5,0.6-0.8,0.9c0.1,0.1,0.2,0.2,0.4,0.3
		c0.2,0.1,0.4,0.2,0.5,0.2c0.4,0.1,0.8,0.1,1.3,0s0.9-0.1,1.4-0.3c0.5-0.1,1-0.3,1.5-0.4s1-0.3,1.4-0.5c0.3-0.1,0.5-0.1,0.7,0
		S225.9,149.9,226,150.1z M220.4,140.9c0-0.8-0.2-1.3-0.5-1.4c-0.2-0.1-0.6,0.2-1,0.9c-0.2,0.3-0.4,0.7-0.6,1.1
		c-0.2,0.5-0.4,1-0.6,1.5c-0.2,0.5-0.3,1.1-0.4,1.7c-0.1,0.6-0.2,1.2-0.2,1.7c0,0.8,0.1,1.5,0.3,2.1c0.4-0.5,0.8-1,1.2-1.5
		c0.4-0.5,0.7-1.1,1-1.7c0.1-0.2,0.2-0.5,0.3-0.9c0.1-0.4,0.2-0.7,0.3-1.2s0.1-0.8,0.2-1.2S220.4,141.3,220.4,140.9z"/>
	<path fill="#010101" d="M230.8,146c0,0.2-0.1,0.4-0.2,0.5c-0.1,0.2-0.4,0.2-0.6,0.3c-0.3,0-0.8,0-1.5,0c-0.6,0-1.3,0-1.9,0
		c0,0.4,0,0.9,0,1.3c0,0.5,0.1,0.9,0.1,1.4c0.1,0.4,0.1,0.9,0.2,1.3c0.1,0.4,0.1,0.7,0.2,1c0.1,0.3,0,0.5-0.1,0.7
		c-0.1,0.2-0.3,0.3-0.5,0.3c-0.2,0.1-0.4,0-0.7-0.1c-0.2-0.1-0.4-0.3-0.5-0.7c-0.2-0.7-0.3-1.5-0.4-2.4c-0.1-0.9-0.2-1.9-0.2-2.9
		h-1.7c-0.3,0-0.5-0.1-0.6-0.2c-0.1-0.2-0.2-0.4-0.2-0.6s0.1-0.4,0.2-0.6c0.1-0.2,0.4-0.3,0.6-0.3c0.2,0,0.4,0,0.7,0
		c0.3,0,0.6,0,0.9,0c0-0.5,0-1,0.1-1.6c0-0.6,0.1-1.3,0.2-1.9c0.1-0.7,0.2-1.3,0.3-2s0.2-1.3,0.4-1.9c-0.2-0.1-0.2-0.2-0.2-0.4
		c0-0.1,0.1-0.2,0.2-0.4s0.2-0.3,0.3-0.4c0-0.1,0.1-0.2,0.1-0.2c0-0.1,0.1-0.2,0.1-0.2c0.1-0.2,0.3-0.4,0.5-0.4
		c0.2-0.1,0.4,0,0.6,0.1c0.2,0.1,0.3,0.2,0.4,0.4s0.2,0.4,0.1,0.6c0,0.2,0,0.3-0.1,0.4s-0.1,0.2-0.2,0.4c-0.1,0.5-0.3,1.1-0.4,1.7
		c-0.1,0.7-0.2,1.3-0.3,2c-0.1,0.7-0.2,1.4-0.2,2.1c-0.1,0.7-0.1,1.3-0.1,1.9c0.2,0,0.4,0,0.7,0c0.3,0,0.6,0,0.9,0
		c0.3,0,0.7,0,1,0.1s0.6,0,0.8,0.1c0.2,0,0.4,0.1,0.5,0.3C230.7,145.6,230.8,145.8,230.8,146z"/>
	<path fill="#010101" d="M240.5,150.2c0.1,0.2,0.1,0.4,0.1,0.6c-0.1,0.2-0.2,0.4-0.5,0.5c-0.4,0.1-0.8,0.3-1.4,0.5
		c-0.6,0.2-1.2,0.4-1.8,0.6c-0.7,0.2-1.4,0.3-2.1,0.4c-0.7,0.1-1.5,0.1-2.2,0c-0.7-0.1-1.3-0.4-1.6-0.8c-0.7-0.7-0.9-1.6-0.7-2.9
		c0.1-0.6,0.2-1.1,0.4-1.6c0.2-0.5,0.4-1,0.7-1.4c0.2-0.4,0.5-0.8,0.7-1.1s0.5-0.6,0.7-0.8s0.4-0.4,0.6-0.6c0.2-0.2,0.4-0.3,0.6-0.4
		c0.2-0.1,0.4-0.2,0.6-0.2c0.2-0.1,0.5-0.1,0.7-0.1c0.2,0,0.5,0,0.7,0c0.2,0,0.4,0.1,0.6,0.2c0.2,0.1,0.4,0.3,0.5,0.5
		c0.1,0.2,0.2,0.4,0.3,0.7s0.1,0.5,0,0.8c0,0.3-0.1,0.6-0.1,0.8c-0.1,0.5-0.4,1-0.8,1.4c-0.4,0.4-0.8,0.8-1.3,1.2
		c-0.5,0.3-1,0.6-1.6,0.8c-0.6,0.2-1.1,0.4-1.7,0.4c0,0.4,0,0.7,0.2,0.9c0.2,0.2,0.4,0.4,0.8,0.4c0.5,0.1,1.1,0.1,1.7,0
		s1.2-0.2,1.8-0.4c0.6-0.2,1.2-0.4,1.7-0.6c0.5-0.2,1-0.4,1.3-0.5c0.2-0.1,0.4-0.1,0.6,0C240.3,149.9,240.4,150,240.5,150.2z
		 M235.7,145.7c0.1-0.5,0.1-0.8-0.1-0.9c-0.1-0.1-0.3-0.1-0.5-0.1c-0.2,0-0.3,0.1-0.5,0.2c-0.2,0.1-0.4,0.3-0.7,0.6
		c-0.3,0.3-0.6,0.7-0.9,1.2c-0.3,0.5-0.5,0.9-0.7,1.4c0.3-0.1,0.7-0.2,1.1-0.3c0.4-0.2,0.7-0.3,1-0.6s0.6-0.4,0.8-0.7
		C235.5,146.2,235.7,146,235.7,145.7z"/>
	<path fill="#010101" d="M248,147.3c-0.1,0.2-0.2,0.3-0.4,0.3c-0.2,0.1-0.4,0-0.6-0.1c-0.2-0.1-0.3-0.1-0.4-0.1c-0.1,0-0.3,0-0.4,0
		c-0.2,0-0.5,0.1-0.9,0.2c-0.3,0.1-0.7,0.2-1,0.4s-0.7,0.3-1.1,0.5s-0.7,0.4-1,0.6c-0.3,0.2-0.5,0.3-0.7,0.5
		c-0.2,0.2-0.3,0.3-0.4,0.5c-0.1,0.2-0.2,0.4-0.3,0.6c0,0.2-0.1,0.4-0.1,0.6c0,0.3-0.1,0.5-0.3,0.6c-0.2,0.1-0.3,0.2-0.6,0.2
		c-0.2,0-0.4-0.1-0.6-0.2c-0.2-0.2-0.3-0.4-0.3-0.7c0-0.3,0-0.6,0-1c0-0.4,0-0.8,0-1.2c0-0.4,0-0.8,0-1.1c0-0.4,0-0.7,0.1-1
		c-0.1,0-0.2-0.1-0.2-0.2c0-0.1,0-0.2,0.1-0.3c0.1-0.1,0.2-0.3,0.2-0.4c0.1-0.1,0.1-0.3,0.2-0.4c0.1-0.2,0.2-0.3,0.4-0.4
		c0.2-0.1,0.4-0.1,0.6,0c0.2,0.1,0.3,0.2,0.4,0.3c0.1,0.1,0.2,0.3,0.1,0.5c0,0.1-0.1,0.3-0.1,0.5c0,0.2-0.1,0.4-0.1,0.6
		c0,0.2,0,0.4,0,0.6c0,0.2,0,0.4,0,0.5c0.1-0.1,0.2-0.2,0.3-0.3c0.1-0.1,0.2-0.2,0.3-0.3c0.3-0.2,0.7-0.5,1.2-0.7
		c0.4-0.2,0.9-0.4,1.4-0.6c0.5-0.2,0.9-0.3,1.4-0.5c0.5-0.1,0.9-0.2,1.2-0.2c0.3,0,0.6,0,0.8,0.1c0.2,0.1,0.4,0.2,0.6,0.3
		c0.2,0.2,0.3,0.4,0.3,0.6C248.2,146.9,248.1,147.1,248,147.3z"/>
	<path fill="#010101" d="M256.8,144c-0.1,0.1-0.2,0.2-0.4,0.3c-0.2,0.1-0.3,0.1-0.6,0c-0.2-0.1-0.4-0.2-0.6-0.3
		c-0.2,0-0.5,0-0.8,0.1c-0.3,0.1-0.7,0.2-1.1,0.3c-0.4,0.1-0.7,0.3-1.1,0.5c-0.4,0.2-0.7,0.4-0.9,0.5c-0.4,0.3-0.6,0.5-0.6,0.7
		c0,0.2,0.2,0.4,0.6,0.6c0.5,0.2,0.9,0.5,1.4,0.7c0.4,0.2,0.9,0.5,1.4,0.9c0.4,0.3,0.6,0.6,0.8,1.1c0.2,0.4,0.2,0.8,0.2,1.2
		c0,0.4-0.1,0.9-0.2,1.3c-0.1,0.4-0.3,0.8-0.6,1.1c-0.4,0.6-0.9,1.2-1.4,1.7c-0.6,0.5-1.2,1-2,1.4c-0.4,0.2-0.7,0.3-1.1,0.3
		c-0.4,0-0.7-0.1-1.1-0.3c-0.3-0.2-0.5-0.4-0.6-0.6s-0.1-0.5,0-0.7c0.1-0.2,0.3-0.4,0.5-0.5c0.2-0.1,0.5,0,0.8,0.1
		c0.1,0.1,0.3,0.1,0.4,0.1s0.3,0,0.4-0.1c0.5-0.3,1-0.7,1.5-1.1c0.5-0.5,0.9-0.9,1.1-1.3c0.2-0.3,0.3-0.5,0.4-0.8
		c0.1-0.2,0.1-0.5,0.1-0.7c0-0.4-0.1-0.7-0.4-1c-0.3-0.3-0.7-0.5-1.2-0.7c-0.5-0.2-1-0.5-1.6-0.7c-0.5-0.2-0.9-0.5-1.2-0.8
		s-0.4-0.7-0.4-1c0-0.4,0.1-0.7,0.4-1.1s0.7-0.8,1.2-1.1c0.3-0.2,0.6-0.4,1-0.6c0.4-0.2,0.8-0.4,1.3-0.6c0.4-0.2,0.9-0.3,1.4-0.4
		c0.5-0.1,1-0.2,1.4-0.2c0.3,0,0.6,0,0.8,0.1s0.4,0.2,0.6,0.4c0.2,0.2,0.3,0.4,0.3,0.6S256.9,143.9,256.8,144z"/>
</g>
<g>
	<g>
		<path fill="#010101" d="M17.1,117.9c-0.7,7.2-1.9,14.4-2.2,21.7c-0.3,6.8,0.9,13.5,2.5,20.1c2,8.4,5.4,17.5,12.7,22.7
			c9.7,6.9,23.2,6.6,34.6,6.7c15.3,0.2,30.9-1.3,46.1-2.3c11.2-0.8,24.2-1.8,34.6-6.3c10.6-4.6,8.9-16.7,8.4-26.2
			c-0.7-11.8,1.7-23.5-1.9-35c-3-9.5-11.2-14.1-20.4-16c-8.3-1.6-16.8-1.1-25.2-1.3c-12.6-0.3-25.2-0.8-37.9-0.7c-6,0-12,0.1-18,0.1
			c-5.1,0-10.4-0.5-15.4,0.7c-6.9,1.7-15.1,6.5-17.6,13.5c-0.8,2.3,2.8,3.3,3.6,1c2-5.5,8.7-8.8,13.8-10.5c6.4-2.2,14.4-0.9,21.1-1
			c15.7-0.1,31.6-0.5,47.3,0.5c10.4,0.7,20.8-0.5,31,2.2c14.1,3.7,16.3,16.9,16.3,29.6c0,5.6-0.5,11.3-0.3,16.9
			c0.3,6.3,2.2,14.6-2.1,19.9c-3.3,4-9.8,4.9-14.6,5.8c-7.5,1.3-14.9,2.5-22.5,3.1c-15.3,1.2-30.8,2.3-46.1,2.3
			c-12.3,0-27.4,0.4-36.2-9.6c-5.3-6-7-14.7-8.6-22.2c-2.5-11.9-0.2-23.7,1-35.6C21.1,115.5,17.3,115.5,17.1,117.9L17.1,117.9z"/>
	</g>
</g>
<g enable-background="new    ">
	<path fill="#010101" d="M40.5,146.1c0.2,0.2,0.2,0.4,0.2,0.6c0,0.2-0.1,0.4-0.2,0.5c-0.2,0.1-0.4,0.2-0.6,0.2
		c-0.2,0-0.4-0.1-0.6-0.4c-0.1-0.1-0.2-0.3-0.4-0.5c-0.1-0.2-0.3-0.5-0.4-0.7c-0.1-0.2-0.3-0.5-0.4-0.7c-0.1-0.2-0.2-0.5-0.3-0.6
		c0-0.1-0.1-0.2-0.2-0.3c-0.1-0.1-0.1-0.3-0.2-0.4c-1.5,0.4-2.8,0.7-4.1,1c-1.3,0.3-2.6,0.6-3.8,0.9c-0.1,0.2-0.2,0.5-0.4,0.8
		c-0.1,0.3-0.3,0.5-0.4,0.8c0,0.1,0,0.3-0.1,0.5c-0.1,0.2-0.2,0.3-0.5,0.5c-0.1,0.1-0.3,0.1-0.5,0.1c-0.2,0-0.3-0.1-0.4-0.2
		c-0.2-0.2-0.3-0.3-0.3-0.5s0-0.4,0.1-0.6c0.1-0.2,0.1-0.3,0.2-0.5c0.1-0.2,0.2-0.3,0.3-0.5c-0.3,0-0.5,0-0.7-0.1
		c-0.2-0.1-0.4-0.3-0.4-0.5c0-0.1,0-0.1,0-0.2s0.1-0.2,0.1-0.3s0.1-0.2,0.2-0.2c0.1-0.1,0.2-0.1,0.4-0.1c0.2,0,0.4-0.1,0.6-0.1
		s0.4-0.1,0.5-0.2c0.3-0.5,0.6-1.1,0.9-1.7c0.3-0.7,0.7-1.3,1-2c0.3-0.7,0.7-1.4,1-2.1c0.3-0.7,0.7-1.4,0.9-2
		c0.3-0.6,0.6-1.2,0.8-1.6c0.2-0.5,0.4-0.8,0.6-1.1c0-0.2,0.1-0.3,0.2-0.5c0.1-0.2,0.3-0.2,0.6-0.2c0.2,0,0.3,0,0.5,0.1
		c0.1,0.1,0.2,0.2,0.3,0.4c0.3,0.7,0.6,1.5,0.9,2.2c0.3,0.8,0.6,1.6,0.9,2.3c0.3,0.8,0.6,1.5,0.8,2.2c0.3,0.7,0.5,1.3,0.8,1.8
		c0.2,0,0.3-0.1,0.5-0.1c0.2,0,0.3-0.1,0.4-0.1c0.2,0,0.3,0,0.5,0.1s0.3,0.3,0.4,0.6c0,0.1,0,0.2-0.1,0.4c-0.1,0.2-0.2,0.3-0.4,0.3
		c-0.1,0-0.2,0.1-0.3,0.1c-0.1,0-0.2,0.1-0.3,0.1c0,0.1,0.1,0.2,0.1,0.3c0.1,0.1,0.1,0.2,0.2,0.3c0.1,0.1,0.2,0.3,0.3,0.5
		c0.1,0.2,0.2,0.4,0.3,0.6c0.1,0.2,0.2,0.4,0.3,0.6C40.3,145.9,40.4,146,40.5,146.1z M36.8,142.4c-0.5-1.1-0.9-2.3-1.3-3.4
		c-0.4-1.2-0.8-2.3-1.3-3.4c-0.3,0.6-0.6,1.2-0.9,1.9c-0.3,0.7-0.7,1.4-1,2.2c-0.3,0.7-0.7,1.5-1,2.2c-0.3,0.7-0.7,1.4-1,2
		c0.5-0.1,1-0.2,1.6-0.3c0.5-0.1,1.1-0.2,1.7-0.4c0.6-0.1,1.1-0.3,1.7-0.4C35.7,142.6,36.3,142.5,36.8,142.4z"/>
	<path fill="#010101" d="M56.5,144.9c-0.2,0.4-0.4,0.7-0.8,1s-0.8,0.6-1.3,0.8c-0.4,0.2-0.9,0.4-1.5,0.6c-0.5,0.2-1.1,0.2-1.7,0.2
		c-0.5,0-0.9-0.1-1.3-0.2s-0.8-0.4-1.1-0.8c-0.2-0.2-0.3-0.3-0.4-0.6c-0.1-0.2-0.2-0.4-0.3-0.6c0-0.2-0.1-0.2-0.2-0.2
		c-0.1,0-0.2,0.1-0.3,0.2c-0.2,0.2-0.4,0.4-0.7,0.6c-0.2,0.2-0.6,0.4-0.9,0.7c-0.6,0.4-1.2,0.6-1.8,0.6c-0.6,0-1.1-0.1-1.6-0.4
		c-0.3-0.2-0.5-0.4-0.7-0.7c-0.2-0.3-0.2-0.6-0.2-1c0-0.5,0.1-1,0.2-1.5c0.1-0.5,0.3-0.9,0.6-1.3c0.2-0.4,0.5-0.7,0.9-1
		c0.3-0.3,0.7-0.4,1-0.5c0.1,0,0.2,0,0.3,0c0.1,0,0.2,0,0.3,0c0.2,0,0.4,0.1,0.5,0.3c0.1,0.2,0.2,0.3,0.2,0.5c0,0.2-0.1,0.3-0.2,0.4
		c-0.1,0.1-0.2,0.2-0.4,0.2c-0.1,0-0.2,0-0.3,0c-0.1,0-0.2,0-0.2,0c-0.2,0.1-0.3,0.2-0.5,0.3c-0.2,0.2-0.3,0.4-0.4,0.6
		c-0.1,0.2-0.2,0.5-0.3,0.8c-0.1,0.3-0.1,0.6-0.1,0.9c0,0.3,0.1,0.6,0.4,0.7c0.2,0.1,0.4,0.1,0.7,0s0.5-0.2,0.8-0.3
		c0.2-0.1,0.4-0.2,0.6-0.4c0.2-0.2,0.4-0.3,0.6-0.5s0.4-0.4,0.6-0.5c0.2-0.2,0.4-0.3,0.6-0.5c0.3-0.3,0.6-0.4,0.9-0.3
		s0.5,0.2,0.6,0.4c0,0.1,0.1,0.3,0.2,0.5c0.1,0.2,0.1,0.4,0.2,0.5c0.1,0.2,0.1,0.4,0.2,0.5c0.1,0.2,0.2,0.3,0.3,0.4
		c0.2,0.2,0.4,0.4,0.6,0.4c0.2,0.1,0.5,0.1,0.8,0.2c0.4,0,0.8-0.1,1.2-0.2c0.4-0.1,0.8-0.3,1.2-0.5c0.7-0.3,1.1-0.7,1.3-1.1
		c0.1-0.2,0.2-0.4,0.1-0.7c0-0.2-0.1-0.5-0.2-0.7c-0.2-0.3-0.4-0.6-0.6-0.9s-0.5-0.6-0.7-0.9c-0.2-0.2-0.3-0.4-0.3-0.6
		c0-0.2,0.1-0.4,0.2-0.5c0.2-0.2,0.3-0.3,0.6-0.3s0.5,0.1,0.7,0.2c0.1,0.1,0.2,0.2,0.3,0.3c0.1,0.1,0.1,0.3,0.1,0.5
		c0.2,0.2,0.4,0.4,0.6,0.7c0.2,0.3,0.3,0.5,0.5,0.8c0.2,0.4,0.4,0.9,0.4,1.3C56.8,144,56.7,144.5,56.5,144.9z"/>
	<path fill="#010101" d="M66.7,144.9c0.1,0.2,0.1,0.4,0.1,0.6c-0.1,0.2-0.2,0.3-0.5,0.4c-0.3,0.1-0.7,0.3-1.2,0.5s-1,0.4-1.6,0.6
		c-0.6,0.2-1.2,0.3-1.9,0.4s-1.3,0.1-1.9,0c-0.6-0.1-1.1-0.3-1.5-0.7c-0.6-0.6-0.8-1.5-0.6-2.6c0.1-0.5,0.2-1,0.4-1.5
		s0.4-0.9,0.6-1.2s0.4-0.7,0.7-1s0.4-0.5,0.6-0.7c0.2-0.2,0.4-0.4,0.6-0.5s0.4-0.3,0.5-0.3c0.2-0.1,0.3-0.2,0.5-0.2
		c0.2-0.1,0.4-0.1,0.6-0.1s0.4,0,0.6,0s0.4,0.1,0.6,0.2c0.2,0.1,0.4,0.3,0.5,0.5c0.1,0.2,0.2,0.4,0.2,0.6c0,0.2,0.1,0.5,0,0.7
		c0,0.3-0.1,0.5-0.1,0.7c-0.1,0.5-0.4,0.9-0.7,1.3c-0.3,0.4-0.7,0.7-1.2,1c-0.5,0.3-0.9,0.6-1.5,0.8c-0.5,0.2-1,0.3-1.5,0.4
		c0,0.3,0,0.6,0.2,0.8c0.2,0.2,0.4,0.3,0.7,0.4c0.5,0.1,1,0.1,1.5,0c0.6-0.1,1.1-0.2,1.6-0.4c0.5-0.2,1.1-0.3,1.5-0.5
		c0.5-0.2,0.9-0.3,1.2-0.4c0.2-0.1,0.4-0.1,0.5,0C66.6,144.6,66.7,144.7,66.7,144.9z M62.5,140.8c0.1-0.4,0.1-0.7-0.1-0.8
		c-0.1-0.1-0.2-0.1-0.4-0.1s-0.3,0.1-0.4,0.1c-0.2,0.1-0.4,0.3-0.6,0.5c-0.3,0.3-0.6,0.6-0.8,1.1s-0.5,0.8-0.6,1.3
		c0.3-0.1,0.6-0.2,0.9-0.3c0.3-0.1,0.6-0.3,0.9-0.5c0.3-0.2,0.5-0.4,0.7-0.6C62.3,141.3,62.4,141.1,62.5,140.8z"/>
	<path fill="#010101" d="M72.7,139.4c-0.1,0.1-0.2,0.2-0.3,0.3c-0.1,0.1-0.3,0.1-0.5,0c-0.2-0.1-0.4-0.2-0.6-0.3
		c-0.2,0-0.4,0-0.7,0.1c-0.3,0.1-0.6,0.2-0.9,0.3c-0.3,0.1-0.7,0.3-1,0.4c-0.3,0.2-0.6,0.3-0.8,0.5c-0.4,0.2-0.5,0.5-0.6,0.7
		c0,0.2,0.2,0.4,0.5,0.5c0.4,0.2,0.8,0.4,1.2,0.6c0.4,0.2,0.8,0.4,1.3,0.8c0.3,0.3,0.5,0.6,0.7,0.9c0.1,0.4,0.2,0.7,0.2,1.1
		c0,0.4-0.1,0.8-0.2,1.1c-0.1,0.4-0.3,0.7-0.5,1c-0.4,0.5-0.8,1.1-1.3,1.5c-0.5,0.5-1.1,0.9-1.8,1.3c-0.3,0.2-0.6,0.3-1,0.3
		c-0.3,0-0.7-0.1-1-0.2c-0.3-0.2-0.5-0.3-0.5-0.6c-0.1-0.2-0.1-0.4,0-0.6c0.1-0.2,0.2-0.3,0.5-0.4c0.2-0.1,0.4,0,0.7,0.1
		c0.1,0.1,0.2,0.1,0.4,0.1c0.1,0,0.3,0,0.4-0.1c0.5-0.3,0.9-0.6,1.3-1c0.4-0.4,0.8-0.8,1-1.2c0.2-0.2,0.3-0.5,0.3-0.7
		c0.1-0.2,0.1-0.4,0.1-0.6c0-0.3-0.1-0.6-0.3-0.9c-0.3-0.2-0.6-0.5-1-0.7c-0.4-0.2-0.9-0.4-1.4-0.7c-0.5-0.2-0.8-0.4-1-0.7
		c-0.2-0.3-0.3-0.6-0.3-0.9c0-0.3,0.1-0.6,0.4-1c0.2-0.3,0.6-0.7,1.1-1c0.3-0.2,0.6-0.4,0.9-0.6c0.4-0.2,0.7-0.4,1.1-0.5
		c0.4-0.2,0.8-0.3,1.2-0.4s0.9-0.2,1.3-0.2c0.3,0,0.5,0,0.7,0.1c0.2,0.1,0.4,0.2,0.5,0.4c0.2,0.2,0.2,0.3,0.2,0.5
		C72.9,139,72.8,139.2,72.7,139.4z"/>
	<path fill="#010101" d="M81.5,142.1c0,0.1,0,0.2-0.1,0.3c-0.1,0.1-0.1,0.2-0.2,0.3c-0.2,0.1-0.5,0.1-0.9,0.1
		c0.1,0.1,0.2,0.3,0.2,0.5c0.1,0.2,0.1,0.4,0.1,0.7c0,0.2,0,0.5-0.1,0.8c-0.1,0.3-0.3,0.6-0.5,0.9c-0.8,0.9-1.6,1.5-2.5,1.9
		c-0.4,0.2-0.8,0.3-1.2,0.4c-0.4,0.1-0.9,0.1-1.4,0.1c-1.2,0-2.1-0.4-2.6-1.2c-0.4-0.6-0.4-1.5-0.2-2.6c0.1-0.4,0.2-0.8,0.4-1.2
		c0.2-0.4,0.4-0.7,0.6-1c0.2-0.3,0.5-0.6,0.8-0.8c0.3-0.2,0.6-0.5,0.9-0.6c0.3-0.2,0.6-0.2,0.9-0.2c0.3,0,0.6,0.1,0.9,0.4
		c0.1,0,0.3-0.1,0.4-0.1s0.3,0,0.4,0c0.2,0,0.5,0.1,0.7,0.2c0.3,0.1,0.5,0.2,0.6,0.4h1.7c0.2,0,0.4,0.1,0.6,0.2
		C81.4,141.7,81.5,141.9,81.5,142.1z M78.7,144.6c0.3-0.3,0.3-0.6,0.2-1c-0.1-0.3-0.3-0.6-0.6-0.8c-0.2,0-0.4,0-0.7,0s-0.5,0-0.8,0
		c-0.4,0-0.7-0.1-0.9-0.2c-0.2-0.1-0.3-0.3-0.2-0.5c-0.1,0-0.1,0-0.2,0s-0.2,0.1-0.3,0.1c-0.3,0.2-0.6,0.5-0.9,0.9
		c-0.3,0.4-0.5,0.9-0.6,1.4c-0.1,0.7-0.1,1.1,0.1,1.4c0.2,0.3,0.6,0.5,1.1,0.5c0.4,0,0.8,0,1.1-0.1s0.6-0.1,0.9-0.3
		c0.4-0.2,0.7-0.4,1-0.6C78.2,145.2,78.5,144.9,78.7,144.6z"/>
	<path fill="#010101" d="M102.2,145.4c-0.1,0.1-0.2,0.2-0.3,0.3c-0.1,0.1-0.3,0.2-0.4,0.2c-0.1,0-0.1,0-0.1,0c0,0-0.1,0-0.2,0
		c-0.2,0-0.5,0.1-0.9,0.2c-0.4,0.1-0.9,0.2-1.3,0.4c-0.5,0.2-1.1,0.3-1.7,0.2c-0.6,0-1-0.3-1.4-0.8c-0.3-0.4-0.6-0.8-0.8-1.3
		c-0.2-0.5-0.4-1.1-0.5-1.7c-0.1-0.3-0.2-0.5-0.4-0.5c-0.2,0-0.6,0.2-1.1,0.6c-0.1,0.1-0.3,0.2-0.5,0.4c-0.2,0.2-0.4,0.4-0.6,0.6
		c-0.2,0.2-0.5,0.5-0.7,0.8c-0.2,0.3-0.5,0.5-0.7,0.8c-0.1,0.1-0.2,0.2-0.4,0.3c-0.2,0.1-0.3,0.1-0.5,0.1c-0.2,0-0.3,0-0.5-0.1
		s-0.3-0.2-0.3-0.3c-0.2-0.4-0.3-0.8-0.5-1.3c-0.1-0.5-0.3-0.9-0.4-1.2c-0.1-0.2-0.2-0.2-0.5-0.2c-0.2,0-0.5,0.2-0.8,0.6
		c-0.2,0.3-0.5,0.6-0.8,0.9c-0.3,0.3-0.6,0.6-0.8,0.9c-0.2,0.2-0.4,0.5-0.7,0.9c-0.2,0.3-0.4,0.7-0.6,0.9c-0.1,0.2-0.3,0.4-0.5,0.4
		s-0.4,0-0.6-0.1c-0.2-0.1-0.3-0.2-0.4-0.3c-0.1-0.2-0.2-0.3-0.2-0.6c0-0.4,0-0.9-0.1-1.4c0-0.5,0-1,0-1.6c0-0.5,0-1,0-1.4
		s0-0.8,0-1.1c0-0.3,0.1-0.5,0.3-0.6c0.2-0.1,0.3-0.2,0.5-0.2c0.2,0,0.4,0,0.5,0.2c0.2,0.1,0.2,0.3,0.2,0.6c0,0.6,0,1.2,0,1.8
		c0,0.7,0,1.3,0,1.9c0.1-0.1,0.2-0.2,0.3-0.4c0.1-0.2,0.2-0.3,0.4-0.5c0.2-0.2,0.4-0.5,0.6-0.7c0.2-0.3,0.4-0.5,0.6-0.7
		c0.2-0.3,0.5-0.6,0.9-0.8c0.4-0.3,0.7-0.4,1.1-0.5c0.3-0.1,0.6,0,0.9,0.1s0.5,0.4,0.7,0.9c0.1,0.3,0.2,0.6,0.3,0.9
		c0.1,0.3,0.2,0.5,0.3,0.7c0,0.1,0.1,0.2,0.2,0.2c0.1,0,0.2,0,0.2-0.1c0.1-0.1,0.3-0.3,0.4-0.5c0.2-0.2,0.3-0.3,0.5-0.5
		c0.2-0.2,0.3-0.3,0.5-0.5c0.2-0.2,0.3-0.3,0.4-0.4c0.9-0.8,1.7-1.2,2.4-1.2c0.4,0,0.7,0.1,0.9,0.4c0.2,0.3,0.4,0.7,0.5,1.2
		c0.1,0.5,0.2,1,0.4,1.6c0.2,0.5,0.4,0.9,0.6,1.2c0.2,0.2,0.4,0.3,0.6,0.3c0.2,0,0.5,0,0.7-0.1c0.2-0.1,0.5-0.2,0.8-0.2
		s0.5-0.2,0.8-0.2c0.3-0.1,0.5-0.1,0.8-0.2c0.2-0.1,0.4-0.1,0.6-0.1c0.3,0,0.6,0.1,0.8,0.2C102.4,144.7,102.4,145,102.2,145.4z"/>
	<path fill="#010101" d="M109.8,144.9c0.1,0.2,0.1,0.4,0.1,0.6c-0.1,0.2-0.2,0.3-0.5,0.4c-0.3,0.1-0.7,0.3-1.2,0.5s-1,0.4-1.6,0.6
		c-0.6,0.2-1.2,0.3-1.9,0.4s-1.3,0.1-1.9,0c-0.6-0.1-1.1-0.3-1.5-0.7c-0.6-0.6-0.8-1.5-0.6-2.6c0.1-0.5,0.2-1,0.4-1.5
		s0.4-0.9,0.6-1.2s0.4-0.7,0.7-1s0.4-0.5,0.6-0.7c0.2-0.2,0.4-0.4,0.6-0.5s0.4-0.3,0.5-0.3c0.2-0.1,0.3-0.2,0.5-0.2
		c0.2-0.1,0.4-0.1,0.6-0.1s0.4,0,0.6,0s0.4,0.1,0.6,0.2c0.2,0.1,0.4,0.3,0.5,0.5c0.1,0.2,0.2,0.4,0.2,0.6c0,0.2,0.1,0.5,0,0.7
		c0,0.3-0.1,0.5-0.1,0.7c-0.1,0.5-0.4,0.9-0.7,1.3c-0.3,0.4-0.7,0.7-1.2,1c-0.5,0.3-0.9,0.6-1.5,0.8c-0.5,0.2-1,0.3-1.5,0.4
		c0,0.3,0,0.6,0.2,0.8c0.2,0.2,0.4,0.3,0.7,0.4c0.5,0.1,1,0.1,1.5,0c0.6-0.1,1.1-0.2,1.6-0.4c0.5-0.2,1.1-0.3,1.5-0.5
		c0.5-0.2,0.9-0.3,1.2-0.4c0.2-0.1,0.4-0.1,0.5,0C109.6,144.6,109.7,144.7,109.8,144.9z M105.5,140.8c0.1-0.4,0.1-0.7-0.1-0.8
		c-0.1-0.1-0.2-0.1-0.4-0.1s-0.3,0.1-0.4,0.1c-0.2,0.1-0.4,0.3-0.6,0.5c-0.3,0.3-0.6,0.6-0.8,1.1s-0.5,0.8-0.6,1.3
		c0.3-0.1,0.6-0.2,0.9-0.3c0.3-0.1,0.6-0.3,0.9-0.5c0.3-0.2,0.5-0.4,0.7-0.6C105.3,141.3,105.4,141.1,105.5,140.8z"/>
	<path fill="#010101" d="M123.4,146.1c0.2,0.2,0.2,0.4,0.2,0.6c0,0.2-0.1,0.4-0.2,0.5c-0.2,0.1-0.4,0.2-0.6,0.2
		c-0.2,0-0.4-0.1-0.6-0.4c-0.1-0.1-0.2-0.3-0.4-0.5c-0.1-0.2-0.3-0.5-0.4-0.7c-0.1-0.2-0.3-0.5-0.4-0.7c-0.1-0.2-0.2-0.5-0.3-0.6
		c0-0.1-0.1-0.2-0.2-0.3c-0.1-0.1-0.1-0.3-0.2-0.4c-1.5,0.4-2.8,0.7-4.1,1c-1.3,0.3-2.6,0.6-3.8,0.9c-0.1,0.2-0.2,0.5-0.4,0.8
		c-0.1,0.3-0.3,0.5-0.4,0.8c0,0.1,0,0.3-0.1,0.5c-0.1,0.2-0.2,0.3-0.5,0.5c-0.1,0.1-0.3,0.1-0.5,0.1c-0.2,0-0.3-0.1-0.4-0.2
		c-0.2-0.2-0.3-0.3-0.3-0.5s0-0.4,0.1-0.6c0.1-0.2,0.1-0.3,0.2-0.5c0.1-0.2,0.2-0.3,0.3-0.5c-0.3,0-0.5,0-0.7-0.1
		c-0.2-0.1-0.4-0.3-0.4-0.5c0-0.1,0-0.1,0-0.2s0.1-0.2,0.1-0.3s0.1-0.2,0.2-0.2c0.1-0.1,0.2-0.1,0.4-0.1c0.2,0,0.4-0.1,0.6-0.1
		s0.4-0.1,0.5-0.2c0.3-0.5,0.6-1.1,0.9-1.7c0.3-0.7,0.7-1.3,1-2c0.3-0.7,0.7-1.4,1-2.1c0.3-0.7,0.7-1.4,0.9-2
		c0.3-0.6,0.6-1.2,0.8-1.6c0.2-0.5,0.4-0.8,0.6-1.1c0-0.2,0.1-0.3,0.2-0.5c0.1-0.2,0.3-0.2,0.6-0.2c0.2,0,0.3,0,0.5,0.1
		c0.1,0.1,0.2,0.2,0.3,0.4c0.3,0.7,0.6,1.5,0.9,2.2c0.3,0.8,0.6,1.6,0.9,2.3c0.3,0.8,0.6,1.5,0.8,2.2c0.3,0.7,0.5,1.3,0.8,1.8
		c0.2,0,0.3-0.1,0.5-0.1c0.2,0,0.3-0.1,0.4-0.1c0.2,0,0.3,0,0.5,0.1s0.3,0.3,0.4,0.6c0,0.1,0,0.2-0.1,0.4c-0.1,0.2-0.2,0.3-0.4,0.3
		c-0.1,0-0.2,0.1-0.3,0.1c-0.1,0-0.2,0.1-0.3,0.1c0,0.1,0.1,0.2,0.1,0.3c0.1,0.1,0.1,0.2,0.2,0.3c0.1,0.1,0.2,0.3,0.3,0.5
		c0.1,0.2,0.2,0.4,0.3,0.6c0.1,0.2,0.2,0.4,0.3,0.6C123.2,145.9,123.3,146,123.4,146.1z M119.7,142.4c-0.5-1.1-0.9-2.3-1.3-3.4
		c-0.4-1.2-0.8-2.3-1.3-3.4c-0.3,0.6-0.6,1.2-0.9,1.9c-0.3,0.7-0.7,1.4-1,2.2c-0.3,0.7-0.7,1.5-1,2.2c-0.3,0.7-0.7,1.4-1,2
		c0.5-0.1,1-0.2,1.6-0.3c0.5-0.1,1.1-0.2,1.7-0.4c0.6-0.1,1.1-0.3,1.7-0.4C118.6,142.6,119.2,142.5,119.7,142.4z"/>
	<path fill="#010101" d="M132.9,142.9c0,0.4-0.1,0.8-0.4,1.2c-0.3,0.4-0.7,0.7-1.2,1c-0.1,0-0.2,0.1-0.3,0.2s-0.3,0.1-0.4,0.2
		c-0.2,0.1-0.3,0.1-0.5,0.2c-0.2,0.1-0.3,0.1-0.4,0.2c-0.1,0.1-0.3,0.2-0.5,0.3c-0.2,0.1-0.4,0.2-0.6,0.3s-0.4,0.2-0.7,0.2
		s-0.4,0.1-0.6,0.1c-0.3,0-0.5-0.1-0.7-0.2c-0.2-0.1-0.3-0.3-0.3-0.5c0-0.3,0.1-0.5,0.4-0.8c0.1-0.1,0.3-0.2,0.5-0.2
		c0.2,0,0.4,0,0.5,0.1c0.1,0,0.1,0,0.2-0.1c0.1,0,0.2-0.1,0.4-0.1c0.1-0.1,0.3-0.1,0.4-0.2c0.1-0.1,0.2-0.1,0.4-0.2
		c0.1-0.1,0.2-0.1,0.3-0.2c0.1-0.1,0.3-0.1,0.4-0.2c0.1-0.1,0.2-0.1,0.4-0.1c0.1,0,0.2-0.1,0.2-0.1c0.2-0.1,0.4-0.3,0.5-0.4
		c0.1-0.2,0.2-0.3,0.2-0.4c0-0.2-0.1-0.3-0.2-0.5c-0.2-0.2-0.4-0.3-0.6-0.4c-0.2-0.1-0.4-0.2-0.7-0.3c-0.3-0.1-0.6-0.2-1-0.3
		c-0.3-0.1-0.7-0.2-1.1-0.3c-0.4-0.1-0.7-0.2-1.1-0.2c-0.1,0.9-0.2,1.8-0.3,2.8s-0.2,2-0.2,3s-0.1,1.9-0.1,2.9c0,0.9,0,1.8,0,2.6
		c0.2,0.1,0.3,0.3,0.4,0.6c0,0.1,0,0.3-0.1,0.5c-0.1,0.2-0.2,0.3-0.3,0.5c-0.1,0.2-0.3,0.3-0.5,0.3s-0.3,0.1-0.5,0
		c-0.1,0-0.3-0.1-0.4-0.2c-0.1-0.1-0.2-0.3-0.2-0.5c0-0.1,0-0.2-0.1-0.4s0-0.3,0-0.5c0-1,0-2.1,0-3.1c0-1,0.1-2.1,0.1-3.1
		s0.1-2,0.2-2.9c0.1-0.9,0.1-1.8,0.2-2.6c-0.1,0-0.2,0-0.3,0c-0.1,0-0.2,0-0.3,0c-0.1,0-0.2,0-0.3,0c-0.1,0-0.2,0-0.3,0
		c-0.2-0.1-0.3-0.2-0.4-0.3c-0.1-0.1-0.1-0.3-0.1-0.4c0-0.2,0.1-0.4,0.2-0.6c0.2-0.2,0.4-0.3,0.7-0.2c1.5,0.1,2.8,0.3,3.9,0.6
		c1.2,0.3,2.2,0.7,3,1.1c0.6,0.3,1,0.6,1.3,1C132.7,142.1,132.9,142.5,132.9,142.9z"/>
	<path fill="#010101" d="M142,142.9c0,0.4-0.1,0.8-0.4,1.2c-0.3,0.4-0.7,0.7-1.2,1c-0.1,0-0.2,0.1-0.3,0.2s-0.3,0.1-0.4,0.2
		c-0.2,0.1-0.3,0.1-0.5,0.2c-0.2,0.1-0.3,0.1-0.4,0.2c-0.1,0.1-0.3,0.2-0.5,0.3c-0.2,0.1-0.4,0.2-0.6,0.3s-0.4,0.2-0.7,0.2
		s-0.4,0.1-0.6,0.1c-0.3,0-0.5-0.1-0.7-0.2c-0.2-0.1-0.3-0.3-0.3-0.5c0-0.3,0.1-0.5,0.4-0.8c0.1-0.1,0.3-0.2,0.5-0.2
		c0.2,0,0.4,0,0.5,0.1c0.1,0,0.1,0,0.2-0.1c0.1,0,0.2-0.1,0.4-0.1c0.1-0.1,0.3-0.1,0.4-0.2c0.1-0.1,0.2-0.1,0.4-0.2
		c0.1-0.1,0.2-0.1,0.3-0.2c0.1-0.1,0.3-0.1,0.4-0.2c0.1-0.1,0.2-0.1,0.4-0.1c0.1,0,0.2-0.1,0.2-0.1c0.2-0.1,0.4-0.3,0.5-0.4
		c0.1-0.2,0.2-0.3,0.2-0.4c0-0.2-0.1-0.3-0.2-0.5c-0.2-0.2-0.4-0.3-0.6-0.4c-0.2-0.1-0.4-0.2-0.7-0.3c-0.3-0.1-0.6-0.2-1-0.3
		c-0.3-0.1-0.7-0.2-1.1-0.3c-0.4-0.1-0.7-0.2-1.1-0.2c-0.1,0.9-0.2,1.8-0.3,2.8s-0.2,2-0.2,3s-0.1,1.9-0.1,2.9c0,0.9,0,1.8,0,2.6
		c0.2,0.1,0.3,0.3,0.4,0.6c0,0.1,0,0.3-0.1,0.5c-0.1,0.2-0.2,0.3-0.3,0.5c-0.1,0.2-0.3,0.3-0.5,0.3s-0.3,0.1-0.5,0
		c-0.1,0-0.3-0.1-0.4-0.2c-0.1-0.1-0.2-0.3-0.2-0.5c0-0.1,0-0.2-0.1-0.4s0-0.3,0-0.5c0-1,0-2.1,0-3.1c0-1,0.1-2.1,0.1-3.1
		s0.1-2,0.2-2.9c0.1-0.9,0.1-1.8,0.2-2.6c-0.1,0-0.2,0-0.3,0c-0.1,0-0.2,0-0.3,0c-0.1,0-0.2,0-0.3,0c-0.1,0-0.2,0-0.3,0
		c-0.2-0.1-0.3-0.2-0.4-0.3c-0.1-0.1-0.1-0.3-0.1-0.4c0-0.2,0.1-0.4,0.2-0.6c0.2-0.2,0.4-0.3,0.7-0.2c1.5,0.1,2.8,0.3,3.9,0.6
		c1.2,0.3,2.2,0.7,3,1.1c0.6,0.3,1,0.6,1.3,1C141.9,142.1,142,142.5,142,142.9z"/>
</g>
<g>
</g>
<g>
</g>
<g>
</g>
<g>
</g>
<g>
</g>
<g>
</g>
</svg>
