<svg xmlns="http://www.w3.org/2000/svg" width="12" height="16"><path d="M2 2L8 2L11 5L11 6L1 6L1 3L2 3M2 7L8 7L8 8L11 8L11 9L12 9L12 11L0 11L0 9L1 9L1 8L2 8M1 14L4 14L4 16L0 16L0 15L1 15M8 14L11 14L11 15L12 15L12 16L8 16" fill="#887000"/><path d="M3 0L8 0L8 1L11 1L11 2L2 2L2 1L3 1M4 7L5 7L5 9L7 9L7 8L8 8L8 10L9 10L9 12L10 12L10 14L7 14L7 13L5 13L5 14L2 14L2 12L3 12L3 10L4 10" fill="#d82800"/><path d="M2 3L3 3L3 5L2 5M5 2L7 2L7 4L8 4L8 5L7 5L7 6L10 6L10 7L3 7L3 5L5 5L5 4L4 4L4 3L5 3M8 2L9 2L9 3L11 3L11 4L12 4L12 5L9 5L9 4L8 4M0 10L2 10L2 11L3 11L3 12L2 12L2 13L0 13M4 10L5 10L5 11L4 11M7 10L8 10L8 11L7 11M10 10L12 10L12 13L10 13L10 12L9 12L9 11L10 11" fill="#fc9838"/></svg>